<?xml version="1.0" standalone="no"?>
<!DOCTYPE svg PUBLIC "-//W3C//DTD SVG 1.1//EN" "http://www.w3.org/Graphics/SVG/1.1/DTD/svg11.dtd" >
<svg>
<metadata>
Created by FontForge 20090914 at Sun Dec 20 11:42:25 2015
 By www-data
Copyright (c) 2011 by vernon adams. All rights reserved.
</metadata>
<defs>
<font id="Oswald-Light" horiz-adv-x="838" >
  <font-face 
    font-family="Oswald"
    font-weight="300"
    font-stretch="squinchy"
    units-per-em="2048"
    panose-1="2 0 5 6 0 0 0 2 0 4"
    ascent="1638"
    descent="-410"
    x-height="1198"
    cap-height="1721"
    bbox="-106 -522 1953 2246"
    underline-thickness="50"
    underline-position="-100"
    unicode-range="U+000D-U+FB04"
  />
<missing-glyph horiz-adv-x="740" 
d="M607 0v1288h-473v-1288h473zM131 1297h479v-1306h-479v1306z" />
    <glyph glyph-name=".notdef" horiz-adv-x="740" 
d="M607 0v1288h-473v-1288h473zM131 1297h479v-1306h-479v1306z" />
    <glyph glyph-name="CR.001" unicode="&#xd;" horiz-adv-x="334" 
 />
    <glyph glyph-name="space" unicode=" " horiz-adv-x="334" 
 />
    <glyph glyph-name="space" unicode="&#xa0;" horiz-adv-x="334" 
 />
    <glyph glyph-name="exclam" unicode="!" horiz-adv-x="434" 
d="M117 1719h194l-60 -1331h-54zM138 179h185v-179h-185v179z" />
    <glyph glyph-name="quotedbl" unicode="&#x22;" horiz-adv-x="694" 
d="M102 1715h168l-24.5 -148.5l-26.5 -158.5h-67zM425 1715h168l-24.5 -148.5l-26.5 -158.5h-67z" />
    <glyph glyph-name="numbersign" unicode="#" horiz-adv-x="1020" 
d="M203 660h-155v125h190l67 239h-207v115h239l163 582h145l-163 -582h176l163 582h145l-163 -582h154v-115h-187l-67 -239h204v-125h-239l-185 -660h-144l185 660h-177l-185 -660h-144zM559 785l67 239h-177l-67 -239h177z" />
    <glyph glyph-name="dollar" unicode="$" horiz-adv-x="948" 
d="M446 6c-72.667 8 -136.496 33.3301 -191.496 75.9971s-97.667 94.667 -128 156s-51.5 130.333 -63.5 207l134 39c1.33301 -13.333 2.66602 -23.333 3.99902 -30c16 -96 48.333 -174.167 97 -234.5s116 -91.833 202 -94.5c52 0 97.333 7.33301 136 22
s70.5 40.334 95.5 77.001s37.5 83.334 37.5 140.001c0 102 -78.333 214 -235 336l-295 230c-121.333 98.667 -182 200 -182 304c0 106.667 36.167 192.5 108.5 257.5s165.833 99.167 280.5 102.5v153h88v-156c192.667 -24 311.667 -144.667 357 -362
c1.33301 -6 2.66602 -13.667 3.99902 -23l-128 -40c0 1.33301 -0.166992 3 -0.5 5s-0.5 3.33301 -0.5 4c-13.333 82.667 -45.5 152.5 -96.5 209.5s-113.5 85.5 -187.5 85.5c-185.333 0 -278 -72 -278 -216c0 -78 47 -156 141 -234l283 -225
c43.333 -35.333 79.166 -66.333 107.499 -93s57.666 -58.167 87.999 -94.5s53 -73.666 68 -111.999s22.5 -77.833 22.5 -118.5c0 -113.333 -35 -202.333 -105 -267s-161.667 -100 -275 -106v-142h-88v144z" />
    <glyph glyph-name="percent" unicode="%" horiz-adv-x="1257" 
d="M857 1721h124l-553 -1721h-123zM392 1418c0 150.667 -36.333 226 -109 226s-109 -75.333 -109 -226v-228c0 -157.333 36.333 -236 109 -236s109 78.667 109 236v228zM57 1421c0 216 75.333 324 226 324s226 -108 226 -324v-234c0 -222.667 -75.333 -334 -226 -334
s-226 111.333 -226 334v234zM1118 538c0 150.667 -36.333 226 -109 226s-109 -75.333 -109 -226v-228c0 -157.333 36.333 -236 109 -236s109 78.667 109 236v228zM783 541c0 216 75.333 324 226 324s226 -108 226 -324v-234c0 -222.667 -75.333 -334 -226 -334
s-226 111.333 -226 334v234z" />
    <glyph glyph-name="ampersand" unicode="&#x26;" horiz-adv-x="1116" 
d="M1094 -15c-2 0 -5.16797 0.167969 -9.50098 0.500977s-7.5 0.5 -9.5 0.5c-100.667 6 -191 55.333 -271 148c-113.333 -106.667 -236.666 -160 -369.999 -160c-122 0 -213.5 30 -274.5 90s-91.5 138 -91.5 234c0 91.333 24.833 187.833 74.5 289.5
s117.5 187.167 203.5 256.5c-137.333 227.333 -206 402.666 -206 525.999c0 111.333 32 201.666 96 270.999s149.667 104 257 104s191.333 -29.833 252 -89.5s91 -138.167 91 -235.5c0 -91.333 -28.167 -189.5 -84.5 -294.5s-140.833 -207.833 -253.5 -308.5l321 -493
c99.333 132 149 275 149 429h128c0 -74 -18.5 -159.667 -55.5 -257s-87.167 -186.666 -150.5 -267.999c64 -70.667 132 -106 204 -106v-137zM405.999 734.001c-56.667 -52 -103.834 -117.667 -141.501 -197s-56.5 -154 -56.5 -224c0 -66 19 -119 57 -159s97 -60 177 -60
c98.667 0 196.334 45 293.001 135zM441.999 927.001c76 72.667 136.667 153.168 182 241.501s68 170.833 68 247.5c0 63.333 -16 113.666 -48 150.999s-81 56 -147 56c-37.333 0 -70 -8.5 -98 -25.5s-49.333 -39.167 -64 -66.5s-25.5 -55 -32.5 -83s-10.5 -56 -10.5 -84
c0 -123.333 50 -269 150 -437z" />
    <glyph glyph-name="quotesingle" unicode="'" horiz-adv-x="373" 
d="M102 1715h169l-26.5 -160l-24.5 -147h-67z" />
    <glyph glyph-name="parenleft" unicode="(" horiz-adv-x="535" 
d="M541 -64c-21.333 0 -41.666 1.33789 -60.999 4.00488c-192 28 -307.667 194.667 -347 500c-12 92.667 -18 233 -18 421v4.5v5.5v4.5v5.5c0 66.667 0.333008 119.167 1 157.5s3.66699 93.666 9 165.999s13 130.833 23 175.5s25.5 95.667 46.5 153s46.167 102.333 75.5 135
s67.166 60.667 113.499 84s98.833 35 157.5 35v-132c-36.667 0 -69.334 -8 -98.001 -24s-52.5 -36.167 -71.5 -60.5s-35.333 -57.5 -49 -99.5s-24 -81.833 -31 -119.5s-12.5 -85.334 -16.5 -143.001s-6.33301 -107.334 -7 -149.001s-1 -93.834 -1 -156.501v-13v-11.5v-12.5
c0 -63.333 0.166992 -110.666 0.5 -141.999s1.5 -76.833 3.5 -136.5s5.5 -105.667 10.5 -138s11.5 -72 19.5 -119s18.833 -83.333 32.5 -109s29.834 -51.834 48.501 -78.501s41.5 -45.834 68.5 -57.501s57.167 -17.5 90.5 -17.5v-132z" />
    <glyph glyph-name="parenright" unicode=")" horiz-adv-x="545" 
d="M18 68c33.333 0 63.5 5.83398 90.5 17.501s49.833 30.667 68.5 57s34.834 52.666 48.501 78.999s24.5 62.666 32.5 108.999s14.5 86.166 19.5 119.499s8.5 79.166 10.5 137.499s3.16699 103.833 3.5 136.5s0.5 80 0.5 142v37c0 62.667 -0.333008 114.834 -1 156.501
s-3 91.334 -7 149.001s-9.5 105.334 -16.5 143.001s-17.333 77.5 -31 119.5s-30 75.167 -49 99.5s-42.833 44.5 -71.5 60.5s-61.334 24 -98.001 24v132c20.667 0 40.667 -1.33301 60 -4c192.667 -27.333 308.667 -194.333 348 -501c12 -92.667 18 -233 18 -421v-4.5v-5.5
v-4.5v-5.5c0 -51.333 -0.166992 -91.333 -0.5 -120s-1.66602 -71.167 -3.99902 -127.5s-6 -102 -11 -137s-12.333 -78 -22 -129s-21.334 -92.833 -35.001 -125.5s-31.5 -67.5 -53.5 -104.5s-46.833 -66 -74.5 -87s-60.667 -38.667 -99 -53s-80.5 -21.5 -126.5 -21.5v132z
" />
    <glyph glyph-name="asterisk" unicode="*" horiz-adv-x="760" 
d="M320 1210l-265 101l36 89l252 -119l-18 302h119l-20 -301l254 120l35 -90l-264 -102l174 -250l-89 -49l-150 252l-149 -252l-88 52z" />
    <glyph glyph-name="plus" unicode="+" horiz-adv-x="649" 
d="M274 576h-192v115h192v192h121v-192h192v-115h-192v-192h-121v192z" />
    <glyph glyph-name="comma" unicode="," horiz-adv-x="389" 
d="M133 -201c21.333 8 39.666 20.668 54.999 38.001s26.333 36.666 33 57.999s11.334 40.5 14.001 57.5s4 32.833 4 47.5h-128v179h185v-23c0 -36.667 -0.166992 -63.5 -0.5 -80.5s-0.833008 -41.167 -1.5 -72.5s-2.33398 -54.833 -5.00098 -70.5l-10 -58
c-4 -23 -9.33301 -40.5 -16 -52.5s-14.667 -24.5 -24 -37.5s-20.666 -22.5 -33.999 -28.5s-28.333 -10 -45 -12z" />
    <glyph glyph-name="hyphen" unicode="-" horiz-adv-x="532" 
d="M117 563h313v-115h-313v115z" />
    <glyph glyph-name="period" unicode="." horiz-adv-x="397" 
d="M115 179h184v-179h-184v179z" />
    <glyph glyph-name="slash" unicode="/" horiz-adv-x="651" 
d="M523 1721h145l-553 -1721h-144z" />
    <glyph glyph-name="zero" unicode="0" horiz-adv-x="1047" 
d="M783 1254c0 246 -85.667 369 -257 369s-257 -123 -257 -369v-789c0 -246.667 85.667 -370 257 -370s257 123.333 257 370v789zM117 1220c0 60.667 4.16699 116.334 12.5 167.001s22.5 98.5 42.5 143.5s45.333 83 76 114s69.5 55.5 116.5 73.5s100.833 27 161.5 27
s114.5 -9 161.5 -27s85.833 -42.5 116.5 -73.5s56 -69 76 -114s34.167 -92.833 42.5 -143.5s12.5 -106.334 12.5 -167.001v-721c0 -350.667 -136.333 -526 -409 -526s-409 175.333 -409 526v721z" />
    <glyph glyph-name="one" unicode="1" horiz-adv-x="532" 
d="M233 1478c-28.667 -19.333 -62 -37.668 -100 -55.001s-68.667 -28.666 -92 -33.999v144c40 14.667 83.333 38.167 130 70.5s83.667 71.5 111 117.5h103v-1721h-152v1478z" />
    <glyph glyph-name="two" unicode="2" horiz-adv-x="946" 
d="M72 128l462 697.002l65.5 102.5c17 27.667 36.667 63 59 106s39.166 84.5 50.499 124.5s17 78 17 114c0 108 -18.167 193.5 -54.5 256.5s-94.166 94.5 -173.499 94.5c-45.333 0 -84.833 -7.66699 -118.5 -23s-60 -35 -79 -59s-34.167 -54.667 -45.5 -92
s-18.833 -73.833 -22.5 -109.5s-5.5 -76.834 -5.5 -123.501h-152v23c6.66699 337.333 147 506 421 506c126.667 0 222 -41.833 286 -125.5s96 -199.167 96 -346.5c0 -70 -19.5 -148.833 -58.5 -236.5s-84.167 -168.834 -135.5 -243.501l-433 -671h606v-122h-785v128z" />
    <glyph glyph-name="three" unicode="3" horiz-adv-x="946" 
d="M67 421l142.002 -0.000976562c1.33301 -67.333 7.5 -122.666 18.5 -165.999s27.833 -76.666 50.5 -99.999s48.167 -39.166 76.5 -47.499s63.833 -12.5 106.5 -12.5c38.667 0 71.5 5.33301 98.5 16s51 29.167 72 55.5s36.5 63.666 46.5 111.999s15 108.5 15 180.5
c0 56.667 -4.16699 106.834 -12.5 150.501s-22 83.167 -41 118.5s-45.5 63.166 -79.5 83.499s-75 32.5 -123 36.5v129c96 4 162.667 31.167 200 81.5s56 136.5 56 258.5c0 111.333 -19 190.166 -57 236.499s-96 69.5 -174 69.5c-78.667 0 -139.167 -26 -181.5 -78
s-66.166 -136.333 -71.499 -253h-143v25c0 57.333 7 110.666 21 159.999s36 94.5 66 135.5s71.5 73.333 124.5 97s115.5 35.5 187.5 35.5c54 0 102.667 -7.83301 146 -23.5s79.333 -36.834 108 -63.501s52.667 -58.5 72 -95.5s33.166 -75.833 41.499 -116.5
s12.5 -84 12.5 -130c0 -110.667 -22 -201 -66 -271s-100.333 -115 -169 -135c156.667 -62.667 235 -212 235 -448c0 -326 -132.667 -489 -398 -489c-54.667 0 -103.834 7.83301 -147.501 23.5s-79.834 36.667 -108.501 63s-52.5 57.833 -71.5 94.5
s-32.5 74.834 -40.5 114.501s-12 81.834 -12 126.501v26z" />
    <glyph glyph-name="four" unicode="4" horiz-adv-x="842" 
d="M494 509h-478v105l397 1109h233v-1101h171v-113h-171v-509h-152v509zM494 622l-1 974l-318 -974h319z" />
    <glyph glyph-name="five" unicode="5" horiz-adv-x="918" 
d="M261 441c0 -70.667 4.49902 -128.833 13.499 -174.5s23.5 -81 43.5 -106s43.167 -42.167 69.5 -51.5s59.5 -14 99.5 -14c54.667 0 98.667 12.667 132 38s59 69.5 77 132.5s27 148.167 27 255.5c0 102 -9 183 -27 243s-43.667 102.167 -77 126.5s-77.333 36.5 -132 36.5
c-43.333 0 -87.5 -11.667 -132.5 -35s-82.833 -58.333 -113.5 -105h-122v934h668l-14 -122h-502v-655c66 70 148 105 246 105c62.667 0 117.5 -13.333 164.5 -40s84.333 -64.167 112 -112.5s48.167 -103.666 61.5 -165.999s20 -131.833 20 -208.5
c0 -80.667 -7.16699 -153.334 -21.5 -218.001s-36.666 -122.167 -66.999 -172.5s-70.833 -89.333 -121.5 -117s-110 -41.5 -178 -41.5c-132 0 -228 38.667 -288 116s-90 191 -90 341z" />
    <glyph glyph-name="six" unicode="6" horiz-adv-x="991" 
d="M121 1256c0 326 129.333 489.003 388 489.003c66 0 123.667 -11.667 173 -35s87.833 -55.5 115.5 -96.5s48.167 -85.667 61.5 -134s20 -100.5 20 -156.5v-26h-142c-1.33301 67.333 -7.33301 122.666 -18 165.999s-26.834 76.666 -48.501 99.999s-46 39.166 -73 47.499
s-61.167 12.5 -102.5 12.5c-37.333 0 -68.833 -5.33301 -94.5 -16s-48.5 -29.167 -68.5 -55.5s-34.833 -63.666 -44.5 -111.999s-14.5 -108.5 -14.5 -180.5v-325c63.333 30 145.333 45 246 45c70 0 131 -12.5 183 -37.5s93.333 -60.5 124 -106.5s53.5 -98.333 68.5 -157
s22.5 -124 22.5 -196c0 -74 -7.66699 -141.167 -23 -201.5s-38.833 -113.833 -70.5 -160.5s-74.167 -82.834 -127.5 -108.501s-115.666 -38.5 -186.999 -38.5c-135.333 0 -233.833 44 -295.5 132s-92.5 216.333 -92.5 385v766zM273 501.003
c0 -66 3.16602 -122.667 9.49902 -170s15.5 -86.333 27.5 -117s28 -54.667 48 -72s41.833 -29.5 65.5 -36.5s52.167 -10.5 85.5 -10.5c89.333 0 154.333 28.667 195 86s61 157.333 61 300c0 138.667 -19.667 236 -59 292s-101.666 84 -186.999 84
c-46.667 0 -94.167 -4.16699 -142.5 -12.5s-82.833 -19.5 -103.5 -33.5v-310z" />
    <glyph glyph-name="seven" unicode="7" horiz-adv-x="674" 
d="M467 1585h-483v136h646v-76l-168 -831.5l-165 -813.5h-158z" />
    <glyph glyph-name="eight" unicode="8" horiz-adv-x="1008" 
d="M344 910c-68.667 20 -125 65 -169 135s-66 160.333 -66 271c0 62 7.5 118.333 22.5 169s37.833 95.667 68.5 135s72 70 124 92s113 33 183 33s131 -11 183 -33s93.333 -52.667 124 -92s53.5 -84.333 68.5 -135s22.5 -107 22.5 -169c0 -110.667 -22 -201 -66 -271
s-100.333 -115 -169 -135c156.667 -62.667 235 -212 235 -448c0 -326 -132.667 -489 -398 -489s-398 163 -398 489c0 236 78.333 385.333 235 448zM507 847c-89.333 -10 -152.668 -48.333 -190.001 -115s-56 -157.667 -56 -273c0 -72.667 5.16699 -133 15.5 -181
s26.333 -85.167 48 -111.5s47 -44.833 76 -55.5s64.5 -16 106.5 -16s77.5 5.33301 106.5 16s54.333 29.167 76 55.5s37.667 63.5 48 111.5s15.5 108.333 15.5 181c0 115.333 -18.667 206.333 -56 273s-100.666 105 -189.999 115zM506.998 977
c92 5.33301 155.998 33.333 191.998 84s54 136 54 256c0 112 -19.667 191 -59 237s-101.666 69 -186.999 69s-147.666 -23 -186.999 -69s-59 -125 -59 -237c0 -120 18 -205.333 54 -256s100 -78.667 192 -84z" />
    <glyph glyph-name="nine" unicode="9" horiz-adv-x="981" 
d="M110 421l142 -0.00292969c1.33301 -67.333 7.33301 -122.666 18 -165.999s26.834 -76.666 48.501 -99.999s46 -39.166 73 -47.499s61.167 -12.5 102.5 -12.5c37.333 0 68.833 5.33301 94.5 16s48.5 29.167 68.5 55.5s34.833 63.666 44.5 111.999s14.5 108.5 14.5 180.5
v325c-63.333 -30 -145.333 -45 -246 -45c-70 0 -131 12.5 -183 37.5s-93.333 60.5 -124 106.5s-53.5 98.333 -68.5 157s-22.5 124 -22.5 196c0 74 7.66699 141.167 23 201.5s38.833 113.833 70.5 160.5s74.167 82.834 127.5 108.501s115.666 38.5 186.999 38.5
c135.333 0 233.833 -44 295.5 -132s92.5 -216.333 92.5 -385v-766c0 -326 -129.333 -489 -388 -489c-66 0 -123.667 11.667 -173 35s-87.833 55.5 -115.5 96.5s-48.167 85.667 -61.5 134s-20 100.5 -20 156.5v26zM716 1217c0 66 -3.16602 122.667 -9.49902 170
s-15.5 86.333 -27.5 117s-28 54.667 -48 72s-41.833 29.5 -65.5 36.5s-52.167 10.5 -85.5 10.5c-89.333 0 -154.333 -28.667 -195 -86s-61 -157.333 -61 -300c0 -138.667 19.667 -236 59 -292s101.666 -84 186.999 -84c46.667 0 94.167 4.16699 142.5 12.5
s82.833 19.5 103.5 33.5v310z" />
    <glyph glyph-name="colon" unicode=":" horiz-adv-x="426" 
d="M125 992h185v-179h-185v179zM125 454h185v-179h-185v179z" />
    <glyph glyph-name="semicolon" unicode=";" horiz-adv-x="422" 
d="M125 992h184v-179h-184v179zM147 55c39.333 14.667 66.8311 42.5 82.498 83.5s23.5 80.167 23.5 117.5h-128v179h184c0 -13.333 -0.333008 -33 -1 -59c-0.666992 -32 -1.16699 -57.5 -1.5 -76.5s-1.16602 -41.833 -2.49902 -68.5s-3.33301 -47.834 -6 -63.501
s-6.16699 -33.167 -10.5 -52.5s-9.66602 -34.666 -15.999 -45.999s-14 -22.5 -23 -33.5s-19.833 -19.167 -32.5 -24.5s-27 -9 -43 -11z" />
    <glyph glyph-name="less" unicode="&#x3c;" horiz-adv-x="727" 
d="M76 709l569 398v-165l-477 -339l234 -167.5l243 -174.5v-167l-569 400v215z" />
    <glyph glyph-name="equal" unicode="=" horiz-adv-x="750" 
d="M127 691h505v-115h-505v115zM127 370h505v-115h-505v115z" />
    <glyph glyph-name="greater" unicode="&#x3e;" horiz-adv-x="727" 
d="M102 261l477 342l-477 339v167l569 -400v-215l-569 -400v167z" />
    <glyph glyph-name="question" unicode="?" horiz-adv-x="868" 
d="M300 793c67.333 38.667 126.001 79.6699 176.001 123.003s88.333 83 115 119s48 73 64 111s26.167 69.667 30.5 95s6.5 50.666 6.5 75.999c0 54 -7 101.333 -21 142s-33.167 72.667 -57.5 96s-51.166 40.666 -80.499 51.999s-60.666 17 -93.999 17
c-78.667 0 -143.334 -26.5 -194.001 -79.5s-76.334 -127.5 -77.001 -223.5l-1 -142h-134v146c0 66 11.667 126.333 35 181s54.166 99.167 92.499 133.5s81.5 60.666 129.5 78.999s97.667 27.5 149 27.5c50 0 98 -8.83301 144 -26.5s87.5 -43.5 124.5 -77.5
s66.5 -78.833 88.5 -134.5s33 -118.5 33 -188.5c0 -120 -32.833 -226.667 -98.5 -320s-164.5 -181 -296.5 -263v-284h-134v341zM275.001 180.003h184v-179h-184v179z" />
    <glyph glyph-name="at" unicode="@" horiz-adv-x="1434" 
d="M1116 80c-124 -26.667 -234.333 -39.999 -331 -39.999c-86 0 -164.167 8.66699 -234.5 26s-135.666 46.333 -195.999 87s-111 92.334 -152 155.001s-73 141.167 -96 235.5s-34.5 202.5 -34.5 324.5c0 127.333 17.333 242.333 52 345s82.167 186.667 142.5 252
s129.666 115.333 207.999 150s162.166 52 251.499 52c204 0 362.5 -67.5 475.5 -202.5s169.5 -327.167 169.5 -576.5c0 -62.667 -5.33301 -119.334 -16 -170.001s-24.834 -92.667 -42.501 -126s-38.5 -61.166 -62.5 -83.499s-49 -38.333 -75 -48s-53 -14.5 -81 -14.5
c-50.667 0 -97.834 14.667 -141.501 44s-73.167 67 -88.5 113c-8 -37.333 -23.333 -68 -46 -92s-47.834 -40.667 -75.501 -50s-58.167 -14 -91.5 -14c-36.667 0 -69.334 10 -98.001 30s-51 44.5 -67 73.5s-29.167 62.5 -39.5 100.5s-17.166 72 -20.499 102s-5 58.667 -5 86
c0 144.667 22 254.334 66 329.001s99.333 112 166 112c62.667 0 123 -25.333 181 -76v70h152v-560c0 -102 34.667 -153 104 -153c86 0 129 106.667 129 320c0 104 -8 195.167 -24 273.5s-37.667 142.166 -65 191.499s-62.166 89.166 -104.499 119.499s-87 51.333 -134 63
s-100.833 17.5 -161.5 17.5c-23.333 0 -46.166 -1.16699 -68.499 -3.5s-51.166 -8.83301 -86.499 -19.5s-68 -24.834 -98 -42.501s-61.167 -43.667 -93.5 -78s-59.666 -74.666 -81.999 -120.999s-40.833 -105.333 -55.5 -177s-22 -151.834 -22 -240.501
c0 -114 11.167 -214 33.5 -300s51 -154.167 86 -204.5s77.667 -91 128 -122s99.833 -51.833 148.5 -62.5s102 -16 160 -16c19.333 0 39.5 0.666992 60.5 2s39.5 2.83301 55.5 4.5s34.833 4.16699 56.5 7.5s38.167 6 49.5 8l48.5 9c21 4 34.5 6.66699 40.5 8zM834 1121
c-50.667 35.333 -94.667 53 -132 53c-31.333 0 -57 -15.833 -77 -47.5s-33.833 -71.334 -41.5 -119.001s-11.5 -103.5 -11.5 -167.5c0 -97.333 9.5 -168.166 28.5 -212.499s47.833 -66.5 86.5 -66.5c34.667 0 62.5 7 83.5 21s42.167 34.667 63.5 62v477z" />
    <glyph glyph-name="A" unicode="A" horiz-adv-x="980" 
d="M51 0l170.5 863.5l169.5 857.5h198l340 -1721h-154l-86 448h-397l-88 -448h-153zM670 549l-181 1014l-179 -1014h360z" />
    <glyph glyph-name="B" unicode="B" horiz-adv-x="1030" 
d="M146 1721h370c59.333 0 112 -8.33301 158 -25s83.333 -38.667 112 -66s52.167 -60.333 70.5 -99s31 -78 38 -118s10.5 -83 10.5 -129c0 -71.333 -16.5 -141 -49.5 -209s-78.5 -115.333 -136.5 -142c40.667 -16.667 76 -41.167 106 -73.5s53 -68.5 69 -108.5
s27.667 -79.833 35 -119.5s11 -79.167 11 -118.5c0 -60 -2.83301 -113 -8.5 -159s-17 -92.167 -34 -138.5s-39.5 -84.5 -67.5 -114.5s-66 -54.333 -114 -73s-104.667 -28 -170 -28h-400v1721zM570 116c34.667 0 64.999 7.16895 90.999 21.502s47 33.166 63 56.499
s28.833 52.666 38.5 87.999s16.334 71.333 20.001 108s5.5 77.667 5.5 123c0 40.667 -1.66699 77 -5 109s-9.83301 63.667 -19.5 95s-22.334 57.5 -38.001 78.5s-36.667 37.833 -63 50.5s-57.166 19 -92.499 19h-272v-749h272zM541.999 982.002
c37.333 0 69.3311 8.16699 95.998 24.5s47.334 39 62.001 68s25.334 60.5 32.001 94.5s10 71.333 10 112c0 216 -82 324 -246 324h-198v-623h244z" />
    <glyph glyph-name="C" unicode="C" horiz-adv-x="1074" 
d="M119 1220c0 350 145.668 525.001 437.001 525.001c269.333 0 404 -175 404 -525v-70h-145v104c0 54.667 -4.33301 104.667 -13 150s-23.167 84.166 -43.5 116.499s-47 57.5 -80 75.5s-73.833 27 -122.5 27c-54.667 0 -100.167 -9 -136.5 -27s-65.5 -43.333 -87.5 -76
s-37.667 -71.5 -47 -116.5s-14 -94.833 -14 -149.5v-789c0 -54 4.5 -103.667 13.5 -149s24.5 -84.333 46.5 -117s51.167 -58.167 87.5 -76.5s82.166 -27.5 137.499 -27.5c48.667 0 89.5 9.16699 122.5 27.5s59.667 43.833 80 76.5s34.833 71.667 43.5 117s13 95 13 149v118
h145v-84c0 -71.333 -6 -138.833 -18 -202.5s-33.333 -119.5 -64 -167.5s-72 -86 -124 -114s-118 -42 -198 -42c-86 0 -157.167 14 -213.5 42s-101 66 -134 114s-56.167 103.833 -69.5 167.5s-20 131.167 -20 202.5v721z" />
    <glyph glyph-name="D" unicode="D" horiz-adv-x="1091" 
d="M533 122c191.333 0 287 117.333 287 352v768c0 238 -95.667 357 -287 357h-235v-1477h235zM146 1721l387 -0.000976562c84 0 154 -13.5 210 -40.5s101 -63.667 135 -110s58.167 -100.666 72.5 -162.999s21.5 -128.833 21.5 -199.5v-700
c0 -338.667 -146.333 -508 -439 -508h-387v1721z" />
    <glyph glyph-name="E" unicode="E" horiz-adv-x="807" 
d="M146 1721h600v-122h-448v-652h320v-115h-320v-710h448v-122h-600v1721z" />
    <glyph glyph-name="F" unicode="F" horiz-adv-x="712" 
d="M146 1721h600v-122h-448v-652h320v-115h-320v-832h-152v1721z" />
    <glyph glyph-name="G" unicode="G" horiz-adv-x="1117" 
d="M119 1211c0 356 151.999 534 455.999 534c58 0 108.333 -7 151 -21s79.334 -33.833 110.001 -59.5s55.834 -56.167 75.501 -91.5s35.167 -74.333 46.5 -117s19.333 -88 24 -136s7.33398 -97.667 8.00098 -149v-12h-152v13c0 35.333 -0.5 71 -1.5 107
s-4.16699 70.833 -9.5 104.5s-13.333 65 -24 94s-25.834 54.333 -45.501 76s-44.5 38.667 -74.5 51s-66.667 18.5 -110 18.5c-56.667 0 -104.167 -9.33301 -142.5 -28s-69.333 -44 -93 -76s-40.667 -69 -51 -111s-15.5 -86.333 -15.5 -133v-860c0 -213.333 99 -320 297 -320
c54 0 98.333 9.16699 133 27.5s62.167 42.5 82.5 72.5s34.5 64.167 42.5 102.5s12 77.5 12 117.5v291h-211v115h363v-821h-67l-45 168c-11.333 -29.333 -27.5 -56 -48.5 -80s-45.167 -44.5 -72.5 -61.5s-57.333 -30.167 -90 -39.5s-66.334 -14 -101.001 -14
c-298 0 -447 169.333 -447 508v730z" />
    <glyph glyph-name="H" unicode="H" horiz-adv-x="1126" 
d="M146 1721h152v-779h530v779h152v-1721h-152v836h-530v-836h-152v1721z" />
    <glyph glyph-name="I" unicode="I" horiz-adv-x="444" 
d="M145 1721h152v-1721h-152v1721z" />
    <glyph glyph-name="J" unicode="J" horiz-adv-x="559" 
d="M12 115c34 0 60.332 0.170898 78.999 0.503906s38.5 2.16602 59.5 5.49902s36.333 7.16602 46 11.499s20 12.166 31 23.499s18.333 23.166 22 35.499s7.33398 30 11.001 53s5.83398 46.667 6.50098 71s1 55.833 1 94.5v1311h152v-1311c0 -52 -1.16699 -95 -3.5 -129
s-7.33301 -68 -15 -102s-18.834 -60.833 -33.501 -80.5s-34.167 -37.667 -58.5 -54s-54.5 -27.833 -90.5 -34.5s-78.667 -10 -128 -10h-79v115z" />
    <glyph glyph-name="K" unicode="K" horiz-adv-x="1010" 
d="M146 1721h152v-905l459 905h157l-356 -710l437 -1011h-161l-368 909l-168 -302v-607h-152v1721z" />
    <glyph glyph-name="L" unicode="L" horiz-adv-x="783" 
d="M146 1721h152v-1599h481v-122h-633v1721z" />
    <glyph glyph-name="M" unicode="M" horiz-adv-x="1330" 
d="M146 1721l187 -0.00195312l332 -1486c40.667 194.667 94.667 432.834 162 714.501s124 538.834 170 771.501h187v-1721h-135v1377l-318 -1377h-132l-318 1376v-1376h-135v1721z" />
    <glyph glyph-name="N" unicode="N" horiz-adv-x="1083" 
d="M146 1721h117l545 -1363v1363h129v-1721h-114l-546 1334v-1334h-131v1721z" />
    <glyph glyph-name="O" unicode="O" horiz-adv-x="1116" 
d="M845 1254c0 246 -95.667 369 -287 369s-287 -123 -287 -369v-789c0 -246.667 95.667 -370 287 -370s287 123.333 287 370v789zM119 1220c0 72.667 7.16895 141 21.502 205s38.5 119.667 72.5 167s79.167 84.666 135.5 111.999s126.166 41 209.499 41
s153.166 -13.667 209.499 -41s101.5 -64.666 135.5 -111.999s58.167 -103 72.5 -167s21.5 -132.333 21.5 -205v-721c0 -350.667 -146.333 -526 -439 -526s-439 175.333 -439 526v721z" />
    <glyph glyph-name="P" unicode="P" horiz-adv-x="1020" 
d="M146 1721h421c60 0 113.333 -8.16699 160 -24.5s85.334 -38.5 116.001 -66.5s56 -62 76 -102s34.167 -82.167 42.5 -126.5s12.5 -92.166 12.5 -143.499c0 -52.667 -3.5 -101.334 -10.5 -146.001s-20 -89 -39 -133s-43.333 -81.167 -73 -111.5s-68.834 -55 -117.501 -74
s-104.667 -28.5 -168 -28.5h-268v-765h-152v1721zM584 886c85.333 -0.666992 146.333 28.833 183 88.5s55 153.167 55 280.5c0 118.667 -19.667 205.667 -59 261s-99 83 -179 83h-286v-712z" />
    <glyph glyph-name="Q" unicode="Q" horiz-adv-x="1123" 
d="M119 1220c0 72.667 7.16895 140.999 21.502 204.999s38.5 119.667 72.5 167s79.167 84.666 135.5 111.999s126.166 41 209.499 41s153.166 -13.667 209.499 -41s101.5 -64.666 135.5 -111.999s58.167 -103 72.5 -167s21.5 -132.333 21.5 -205v-721
c0 -240 -68.333 -398 -205 -474l43 -40c14.667 -13.333 30.5 -25.5 47.5 -36.5s35.5 -20.667 55.5 -29s42 -14.166 66 -17.499v-114c-55.333 8 -107.5 29 -156.5 63s-99.5 80 -151.5 138c-40.667 -10.667 -86.667 -16 -138 -16c-292.667 0 -439 175.333 -439 526v721z
M845.002 1254c0 246 -95.667 369 -287 369s-287 -123 -287 -369v-789c0 -246.667 95.667 -370 287 -370s287 123.333 287 370v789z" />
    <glyph glyph-name="R" unicode="R" horiz-adv-x="1069" 
d="M146 1721l459 0.000976562c58 0 109 -8 153 -24s79.5 -37.167 106.5 -63.5s48.833 -59 65.5 -98s28.167 -79.333 34.5 -121s9.5 -87.834 9.5 -138.501c0 -219.333 -80 -358.333 -240 -417l266 -859h-162l-251 840h-289v-840h-152v1721zM604 962.001
c43.333 0 80.001 8.66602 110.001 25.999s52.5 42 67.5 74s25.5 65.333 31.5 100s9 74.334 9 119.001c0 36.667 -1.83301 69.667 -5.5 99s-10.334 58 -20.001 86s-22.5 51.5 -38.5 70.5s-37 34.167 -63 45.5s-56.333 17 -91 17h-306v-637h306z" />
    <glyph glyph-name="S" unicode="S" horiz-adv-x="987" 
d="M215 454c5.33301 -46 14.8369 -90.665 28.5039 -133.998s32.834 -81.666 57.501 -114.999s55.167 -60 91.5 -80s79.5 -30 129.5 -30c78.667 0 139.167 21.333 181.5 64s63.5 104.334 63.5 185.001c0 32.667 -4.83301 64.667 -14.5 96s-24.334 63 -44.001 95
s-43.834 65.333 -72.501 100s-62 72 -100 112l-269 283c-58.667 61.333 -103.667 119.166 -135 173.499s-47 111.166 -47 170.499c0 56.667 9.83301 107.834 29.5 153.501s47.167 84.667 82.5 117s77.166 57.166 125.499 74.499s101.166 26 158.499 26
c228 0 364.333 -124.333 409 -373l3 -16l-128 -40l-2 14c-6 42 -16.833 80.833 -32.5 116.5s-35.5 66.5 -59.5 92.5s-52 46.5 -84 61.5s-67.333 22.5 -106 22.5c-76 0 -136.5 -19.333 -181.5 -58s-67.5 -95.667 -67.5 -171c0 -46 12 -90.667 36 -134s59 -90 105 -140
l355 -387c20.667 -20.667 40 -43 58 -67s34.167 -47.167 48.5 -69.5s26 -42.666 35 -60.999s14.833 -31.833 17.5 -40.5c5.33301 -19.333 10.833 -41.333 16.5 -66s8.5 -48.667 8.5 -72c0 -61.333 -10 -115.833 -30 -163.5s-48 -87.834 -84 -120.501s-79 -57.5 -129 -74.5
s-104.667 -25.5 -164 -25.5c-63.333 0 -119.333 12 -168 36s-90.5 56.167 -125.5 96.5s-63.333 87.166 -85 140.499s-36.834 109.666 -45.501 168.999z" />
    <glyph glyph-name="T" unicode="T" horiz-adv-x="755" 
d="M300 1599h-335v122h825v-122h-338v-1599h-152v1599z" />
    <glyph glyph-name="U" unicode="U" horiz-adv-x="1138" 
d="M132 1721h152v-1333c0 -49.333 5.33301 -92.333 16 -129s27.667 -67.167 51 -91.5s53.5 -42.5 90.5 -54.5s82.167 -18 135.5 -18c100 0 171.333 24.333 214 73s64 122 64 220v1333h151v-1298c0 -300 -143 -450 -429 -450c-88.667 0 -161.667 12.167 -219 36.5
s-102.833 57 -136.5 98s-57 88.833 -70 143.5s-19.5 112 -19.5 172v1298z" />
    <glyph glyph-name="V" unicode="V" horiz-adv-x="971" 
d="M23 1721h164l305 -1541l292 1541h164l-356 -1721h-199z" />
    <glyph glyph-name="W" unicode="W" horiz-adv-x="1436" 
d="M33 1721h142l235 -1472l222 1472h193l203 -1472l234 1472h141l-286 -1721h-175l-215 1520l-232 -1520h-174z" />
    <glyph glyph-name="X" unicode="X" horiz-adv-x="991" 
d="M418 866l-367 855h143l302 -723l293 723h156l-367 -871l367 -850h-146l-298 717l-293 -717h-157z" />
    <glyph glyph-name="Y" unicode="Y" horiz-adv-x="888" 
d="M374 534l-376 1187h169l282 -1032l95 348l91 335.5l96 348.5h159l-364 -1187v-534h-152v534z" />
    <glyph glyph-name="Z" unicode="Z" horiz-adv-x="897" 
d="M68 141l605 1458h-541v122h697v-141l-605 -1458h605v-122h-761v141z" />
    <glyph glyph-name="bracketleft" unicode="[" horiz-adv-x="494" 
d="M150 1779h331v-81h-179v-1681h179v-81h-331v1843z" />
    <glyph glyph-name="backslash" unicode="\" horiz-adv-x="639" 
d="M-12 1721h145l552 -1721h-144z" />
    <glyph glyph-name="bracketright" unicode="]" horiz-adv-x="504" 
d="M25 17h179v1681h-179v81h331v-1843h-331v81z" />
    <glyph glyph-name="asciicircum" unicode="^" horiz-adv-x="739" 
d="M43 896l227 563h207l226 -563h-175l-155 540l-153 -540h-177z" />
    <glyph glyph-name="underscore" unicode="_" horiz-adv-x="913" 
d="M115 115h696v-115h-696v115z" />
    <glyph glyph-name="grave" unicode="`" horiz-adv-x="451" 
d="M70 1722h162l123 -398h-56z" />
    <glyph glyph-name="a" unicode="a" 
d="M564 145c-32 -56 -71.4961 -98.668 -118.496 -128.001s-91.833 -44 -134.5 -44c-62 0 -117 24.5 -165 73.5s-72 113.167 -72 192.5c0 21.333 0.333008 38.5 1 51.5s2.5 29.833 5.5 50.5s7.33301 38 13 52s14 31.167 25 51.5s24.5 38.333 40.5 54s36 33.667 60 54
s51.667 39.666 83 57.999s68.166 38 110.499 59s89.166 42.167 140.499 63.5v10c0 68 -3 126.167 -9 174.5s-13.333 85.666 -22 111.999s-19.834 46.833 -33.501 61.5s-26.5 23.834 -38.5 27.501s-26.667 5.5 -44 5.5c-18 0 -34 -2.5 -48 -7.5s-29 -14.667 -45 -29
s-29.333 -37.666 -40 -69.999s-17.334 -72.833 -20.001 -121.5v-7h-156c8 104.667 38.833 186.834 92.5 246.501s124.167 89.5 211.5 89.5c48.667 0 91.667 -7.83301 129 -23.5s66.833 -35.667 88.5 -60s39.167 -53.5 52.5 -87.5s22.333 -67 27 -99s7 -66.333 7 -103v-576
c0 -94 6 -186 18 -276h-140zM553.004 665.999l-115 -81.998c-28 -20.667 -57.5 -44.834 -88.5 -72.501s-54.333 -52.834 -70 -75.501s-28.667 -48.5 -39 -77.5s-15.5 -59.5 -15.5 -91.5c0 -57.333 12 -99.833 36 -127.5s52.333 -41.5 85 -41.5c38 0 76.5 13.667 115.5 41
s69.5 62.333 91.5 105v422z" />
    <glyph glyph-name="b" unicode="b" horiz-adv-x="873" 
d="M120 1721l150.002 -0.000976562v-636c31.333 46 67.166 80.833 107.499 104.5s81.5 35.5 123.5 35.5c28.667 0 53.667 -2.83301 75 -8.5s44.666 -20 69.999 -43s46 -54.5 62 -94.5s29.5 -97.167 40.5 -171.5s16.5 -163.166 16.5 -266.499v-95
c0 -72 -2.83301 -137 -8.5 -195s-13 -106.5 -22 -145.5s-20.5 -73 -34.5 -102s-28 -51.667 -42 -68s-30 -29.333 -48 -39s-34.333 -16 -49 -19s-31 -4.5 -49 -4.5c-101.333 0 -182 46.667 -242 140v-113h-150v1721zM615.002 639.999
c0 73.333 -1.66406 137.331 -4.99707 191.998s-8.83301 98.834 -16.5 132.501s-15.334 61 -23.001 82s-17.667 36.167 -30 45.5s-23.333 15.333 -33 18s-21.834 4 -36.501 4c-62.667 0 -129.667 -39.667 -201 -119v-790c30 -36 62.667 -65.167 98 -87.5s68 -33.5 98 -33.5
c13.333 0 24.166 0.666992 32.499 2s18.333 5 30 11s21.167 15 28.5 27s15 29.167 23 51.5s14.333 49.5 19 81.5s8.5 72.333 11.5 121s4.5 104.334 4.5 167.001v95z" />
    <glyph glyph-name="c" unicode="c" horiz-adv-x="834" 
d="M108 640c0 40.667 0.332031 83.498 0.999023 128.498s3.83398 89.167 9.50098 132.5s14.834 84.5 27.501 123.5s31.167 73.333 55.5 103s55.333 53.334 93 71.001s84.5 26.5 140.5 26.5c62.667 0 113.167 -12.333 151.5 -37s68.5 -56.834 90.5 -96.501
s37.167 -84.5 45.5 -134.5s13.833 -100.333 16.5 -151h-150c0 16 -0.666992 35.333 -2 58s-3.66602 45.667 -6.99902 69s-7.5 45.833 -12.5 67.5s-11.167 39.5 -18.5 53.5c-14 27.333 -30.667 45.833 -50 55.5s-44 14.5 -74 14.5c-26 0 -48.167 -5.83301 -66.5 -17.5
s-33.666 -27.167 -45.999 -46.5s-22.333 -41.5 -30 -66.5s-13.334 -51.333 -17.001 -79s-6.16699 -55.5 -7.5 -83.5s-2 -54.333 -2 -79c0 -15.333 0.166992 -29.833 0.5 -43.5s0.5 -26.167 0.5 -37.5c0 -23.333 -0.833008 -52.333 -2.5 -87s-2.5 -72 -2.5 -112
c0 -46 2 -92.5 6 -139.5s12.5 -89.667 25.5 -128s31.5 -69.666 55.5 -93.999s56 -36.5 96 -36.5c27.333 0 49.833 6 67.5 18s32.5 30 44.5 54c7.33301 14.667 13.666 33.167 18.999 55.5s9.66602 45.5 12.999 69.5s5.83301 47.667 7.5 71s2.5 43.666 2.5 60.999h151v-7
c0 -41.333 -3.16699 -83.166 -9.5 -125.499s-16.833 -83.166 -31.5 -122.499c-22.667 -62 -56.167 -106.667 -100.5 -134s-98.833 -41 -163.5 -41c-71.333 0 -128.5 14.167 -171.5 42.5s-76 65.333 -99 111s-38.167 97.167 -45.5 154.5s-11 115 -11 173v186z" />
    <glyph glyph-name="d" unicode="d" horiz-adv-x="892" 
d="M596 113c-30 -45.333 -64.9961 -79.9971 -104.996 -103.997s-87.333 -36 -142 -36c-38.667 0 -71.667 9.16699 -99 27.5s-50.166 42.666 -68.499 72.999s-32.833 65.333 -43.5 105s-18.834 80.667 -24.501 123s-9.33398 84.5 -11.001 126.5s-2.5 80.667 -2.5 116
c0 19.333 0.166992 37 0.5 53s0.5 30.667 0.5 44c0 24 0.333008 52.333 1 85s2.5 67 5.5 103s7.66699 72.667 14 110s15 72.666 26 105.999s24.667 63.333 41 90s36.166 47.667 59.499 63c18 11.333 36.667 18.666 56 21.999s39.666 5 60.999 5
c24 0 47.167 -3.66699 69.5 -11s43.166 -17.333 62.499 -30s37.333 -27.5 54 -44.5s31.667 -35.167 45 -54.5v636h150v-1721h-150v113zM596.004 995.003c-12.667 14 -26.5029 28.002 -41.5029 42.002s-31 26.833 -48 38.5s-34.833 21 -53.5 28s-38 10.5 -58 10.5
c-13.333 0 -26.333 -1.83301 -39 -5.5s-23.667 -10.167 -33 -19.5c-12.667 -12 -23.167 -28.667 -31.5 -50s-15.166 -45.166 -20.499 -71.499s-9.5 -53.833 -12.5 -82.5s-5 -56.667 -6 -84s-1.66699 -52.833 -2 -76.5s-0.5 -43.167 -0.5 -58.5
c0 -22.667 0.166992 -45.334 0.5 -68.001s0.5 -45 0.5 -67c0 -17.333 0.166992 -38.5 0.5 -63.5s1.33301 -51.667 3 -80s4 -57.333 7 -87s7.33301 -57.5 13 -83.5s12.834 -49.333 21.501 -70s19.334 -36 32.001 -46c9.33301 -7.33301 19.5 -12 30.5 -14s22.167 -3 33.5 -3
c20.667 0 40.5 3.5 59.5 10.5s37.167 16.167 54.5 27.5s33.5 24.166 48.5 38.499s28.833 29.166 41.5 44.499v790z" />
    <glyph glyph-name="e" unicode="e" horiz-adv-x="839" 
d="M440 1225c45.333 0 84.333 -6.66504 117 -19.998s60.167 -31.5 82.5 -54.5s40.333 -50 54 -81s24 -64 31 -99s11.667 -71.333 14 -109s3.5 -74.5 3.5 -110.5c0 -20.667 -0.166992 -41.167 -0.5 -61.5s-0.833008 -40.833 -1.5 -61.5h-480v-183
c0 -23.333 0.333008 -52.166 1 -86.499s3.83398 -68.833 9.50098 -103.5s14.667 -66.834 27 -96.501s30.166 -51.5 53.499 -65.5c13.333 -8 27.5 -13.167 42.5 -15.5s30.167 -3.5 45.5 -3.5c35.333 0 63.5 10.333 84.5 31s37 46 48 76s18.167 62 21.5 96s5 64 5 90h140v-6
c0 -17.333 -1.5 -35.333 -4.5 -54s-6.16699 -36.667 -9.5 -54c-7.33301 -40.667 -17.833 -78 -31.5 -112s-31.5 -63.5 -53.5 -88.5s-49.167 -44.5 -81.5 -58.5s-71.166 -21 -116.499 -21c-72.667 0 -130.834 12.667 -174.501 38s-77.167 62.5 -100.5 111.5
s-38.666 109.5 -45.999 181.5s-11 154.667 -11 248c0 28 0.166992 55.833 0.5 83.5s0.5 55.5 0.5 83.5c0 37.333 1.5 79.166 4.5 125.499s10 91.833 21 136.5s27.5 86 49.5 124s52 67 90 87c25.333 13.333 52.166 22.166 80.499 26.499s56.5 6.5 84.5 6.5zM593 702.002
l-0.000976562 1.99609v74.5c0 24.333 -0.333008 49.166 -1 74.499c-0.666992 24.667 -2.16699 52.834 -4.5 84.501s-8.16602 61.167 -17.499 88.5s-23.5 50.5 -42.5 69.5s-45.833 28.5 -80.5 28.5c-46 0 -81.667 -9.33301 -107 -28s-43.833 -42.667 -55.5 -72
s-18.667 -62.166 -21 -98.499s-3.5 -72.166 -3.5 -107.499c0 -19.333 0.166992 -38.666 0.5 -57.999s0.5 -38.666 0.5 -57.999h332z" />
    <glyph glyph-name="f" unicode="f" horiz-adv-x="577" 
d="M187 1114l-166.997 0.000976562v84h167v171c0 38 2.83301 74 8.5 108s16.5 64 32.5 90s38 46.667 66 62s64.667 23 110 23c20.667 0 41.167 -0.833008 61.5 -2.5s40.5 -5.16699 60.5 -10.5v-109c-12 3.33301 -24.333 5.16602 -37 5.49902s-25 0.5 -37 0.5
c-22.667 0 -41.334 -2.83301 -56.001 -8.5s-26.334 -14 -35.001 -25s-14.834 -24.667 -18.501 -41s-5.5 -34.833 -5.5 -55.5v-208h192v-84h-192v-1114h-150v1114z" />
    <glyph glyph-name="g" unicode="g" horiz-adv-x="929" 
d="M921 1224l-20.0049 -147.992c-30 -5.33301 -57.167 -17 -81.5 -35s-46.166 -38 -65.499 -60c9.33301 -28 18 -57.667 26 -89s12 -62 12 -92c0 -56 -6 -110.667 -18 -164s-31.667 -100.5 -59 -141.5s-63.166 -74 -107.499 -99s-98.833 -37.5 -163.5 -37.5
c-24.667 0 -49.167 1.66699 -73.5 5s-47.833 9.66602 -70.5 18.999c-6 -14 -12.833 -27.833 -20.5 -41.5l-22.5 -41.5c-7.33301 -14 -13.5 -28.333 -18.5 -43s-7.5 -30 -7.5 -46c0 -14 8.66699 -24.833 26 -32.5s40.333 -14.167 69 -19.5s61.334 -10.166 98.001 -14.499
s74 -10 112 -17s75.333 -16.333 112 -28s69.334 -27.334 98.001 -47.001s51.667 -44.167 69 -73.5s26 -65.333 26 -108c0 -38 -6.33301 -70.667 -19 -98s-29.667 -50.833 -51 -70.5s-46.166 -35.667 -74.499 -48s-58 -21.833 -89 -28.5s-62.5 -11.334 -94.5 -14.001
s-62.667 -4 -92 -4c-17.333 0 -39 0.333008 -65 1s-53.5 2.33398 -82.5 5.00098s-58 7.16699 -87 13.5s-55.167 15.166 -78.5 26.499s-42.333 25.666 -57 42.999s-22 38.666 -22 63.999c0 34.667 6.83301 67.334 20.5 98.001s31.667 59 54 85s47.666 49.333 75.999 70
s56.833 38 85.5 52c-8 0.666992 -21.5 3.83398 -40.5 9.50098s-38.167 12.667 -57.5 21s-36.5 17.166 -51.5 26.499s-22.5 18.666 -22.5 27.999c0 20.667 5.16699 43.167 15.5 67.5s23 48.666 38 72.999s30.667 47.5 47 69.5l42.5 58
c-25.333 23.333 -46.833 49.666 -64.5 78.999s-32.167 60.5 -43.5 93.5s-19.5 66.667 -24.5 101s-7.5 68.166 -7.5 101.499c0 52 6.83301 103.833 20.5 155.5s34.5 97.834 62.5 138.501s63.667 73.667 107 99s94.666 38 153.999 38c34.667 0 65.5 -4.5 92.5 -13.5
s51.667 -21.833 74 -38.5s42.833 -36.334 61.5 -59.001s37 -47.667 55 -75c10 18 21.833 37.167 35.5 57.5s28.834 39.666 45.501 57.999s34.834 34 54.501 47s40.5 20.833 62.5 23.5zM326.995 52.0078c-14.667 -11.333 -30.1689 -27.1689 -46.502 -47.502
s-31.5 -42.333 -45.5 -66s-25.5 -47.5 -34.5 -71.5s-13.5 -45.333 -13.5 -64c0 -16 4.5 -29.333 13.5 -40s20.667 -19.334 35 -26.001s30.833 -11.667 49.5 -15s37.834 -5.66602 57.501 -6.99902s38.667 -2 57 -2h49.5c22.667 0 48.334 1.16699 77.001 3.5s55.667 8 81 17
s46.666 22.5 63.999 40.5s26 43 26 75c0 26.667 -3.5 49.334 -10.5 68.001s-17.167 34.167 -30.5 46.5s-29.666 22.333 -48.999 30s-41.333 13.834 -66 18.501zM248.993 776.005c0 -32 2.50098 -66.167 7.50098 -102.5s14.5 -69.666 28.5 -99.999s33.833 -55.5 59.5 -75.5
s59.167 -30 100.5 -30c40.667 0 73.667 10.167 99 30.5s45.166 45.666 59.499 75.999s24 63.5 29 99.5s7.5 70 7.5 102c0 31.333 -2.5 66 -7.5 104s-14.667 73.5 -29 106.5s-34.166 60.667 -59.499 83s-58.333 33.5 -99 33.5s-73.834 -11.167 -99.501 -33.5
s-45.667 -50 -60 -83s-24 -68.5 -29 -106.5s-7.5 -72.667 -7.5 -104z" />
    <glyph glyph-name="h" unicode="h" horiz-adv-x="878" 
d="M120 1721l150.001 0.000976562v-636c30.667 48 67.5 83.333 110.5 106s87.5 34 133.5 34c30 0 59.167 -6.33301 87.5 -19s53.333 -31 75 -55s39 -53.667 52 -89s19.5 -75.333 19.5 -120v-942h-152v934c0 26 -3.33301 48.667 -10 68s-15.5 35.333 -26.5 48
s-23.833 22.167 -38.5 28.5s-30 9.5 -46 9.5c-32 0 -66.333 -8.83301 -103 -26.5s-70.334 -40.834 -101.001 -69.501v-992h-151v1721z" />
    <glyph glyph-name="i" unicode="i" horiz-adv-x="405" 
d="M132 1198h150v-1198h-150v1198zM132 1651h150v-179h-150v179z" />
    <glyph glyph-name="j" unicode="j" horiz-adv-x="420" 
d="M-68 -204c15.333 -0.666992 27.668 -1.16699 37.001 -1.5s15.666 -0.5 18.999 -0.5c36 0 63.333 7.5 82 22.5s32 32.667 40 53s12.333 41 13 62s1 37.833 1 50.5v1216h150v-1244c0 -182.667 -87 -274 -261 -274c-25.333 0 -52.333 2.66699 -81 8v108zM124.002 1652h150
v-179h-150v179z" />
    <glyph glyph-name="k" unicode="k" horiz-adv-x="870" 
d="M120 1721h150v-1091l374 568h169l-287 -454l285 -744h-157l-235 653l-149 -183v-470h-150v1721z" />
    <glyph glyph-name="l" unicode="l" horiz-adv-x="442" 
d="M150 1721h150v-1721h-150v1721z" />
    <glyph glyph-name="m" unicode="m" horiz-adv-x="1381" 
d="M120 1198l150.996 -0.000976562v-111c78 92 169 138 273 138c20 0 40.5 -3.5 61.5 -10.5s40.833 -16.5 59.5 -28.5s35.5 -26.333 50.5 -43s26.833 -34.667 35.5 -54c18.667 22 39.334 41.5 62.001 58.5s45.834 31.167 69.501 42.5s46.834 20 69.501 26s43.667 9 63 9
c30.667 0 60.167 -5.83301 88.5 -17.5s53.5 -27.5 75.5 -47.5s39.5 -43.667 52.5 -71s19.5 -56.666 19.5 -87.999v-1001h-150v970c0 50 -12.167 86.5 -36.5 109.5s-55.5 34.5 -93.5 34.5c-30 0 -62.833 -8.66699 -98.5 -26s-68.5 -41 -98.5 -71v-1017h-150v971
c0 50 -12.333 86.333 -37 109s-57 34 -97 34c-17.333 0 -35.5 -2.83301 -54.5 -8.5s-38.167 -13.667 -57.5 -24s-38.166 -22.833 -56.499 -37.5s-35.5 -31 -51.5 -49v-995h-150v1198z" />
    <glyph glyph-name="n" unicode="n" horiz-adv-x="878" 
d="M120 1198l149.999 -0.000976562v-113c32 46.667 70.333 81.667 115 105s91 35 139 35c28.667 0 56.334 -6.33301 83.001 -19s50.5 -31 71.5 -55s37.833 -53.667 50.5 -89s19 -75.666 19 -120.999v-941h-152v944c0 60 -11.667 103.333 -35 130s-54 40 -92 40
c-32 0 -65.667 -10.667 -101 -32s-68 -51 -98 -89v-993h-150v1198z" />
    <glyph glyph-name="o" unicode="o" horiz-adv-x="850" 
d="M258 568c0 -33.333 0.332031 -66.333 0.999023 -99s2 -65.667 4 -99c0.666992 -18.667 1.83398 -38.834 3.50098 -60.501s4.33398 -43.5 8.00098 -65.5s8.83398 -43.167 15.501 -63.5s15.834 -38.5 27.501 -54.5s26.167 -28.667 43.5 -38s38.666 -14 63.999 -14
s46.666 4.66699 63.999 14s31.833 22 43.5 38s20.834 34.167 27.501 54.5s11.834 41.5 15.501 63.5s6.16699 43.833 7.5 65.5s2.66602 41.834 3.99902 60.501c2 33.333 3.33301 66.333 4 99s1 65.667 1 99v62c0 36.667 -0.333008 73.167 -1 109.5s-2 72.833 -4 109.5
c-2 27.333 -4.66699 57 -8 89s-10.333 61.833 -21 89.5s-26.334 50.667 -47.001 69s-49.334 27.5 -86.001 27.5c-36 0 -64.5 -8.83301 -85.5 -26.5s-36.833 -40 -47.5 -67s-17.667 -56.333 -21 -88s-6 -61.167 -8 -88.5c-2.66699 -38 -4.16699 -75.333 -4.5 -112
s-0.5 -74 -0.5 -112v-62zM106.999 709c0 66.667 3.33496 130.999 10.002 192.999s21 117 43 165s54 86.333 96 115s98.333 43 169 43c51.333 0 94.666 -7.83301 129.999 -23.5s64.833 -37.5 88.5 -65.5s42 -60.833 55 -98.5s22.833 -78.667 29.5 -123
s10.667 -90.666 12 -138.999s2 -96.833 2 -145.5v-145c0 -38.667 -0.833008 -78.167 -2.5 -118.5s-5.83398 -79.333 -12.501 -117s-16.5 -73.334 -29.5 -107.001s-31.333 -63 -55 -88s-53.167 -44.833 -88.5 -59.5s-78.333 -22 -129 -22c-50 0 -92.5 6.83301 -127.5 20.5
s-64.167 32.334 -87.5 56.001s-41.5 51.5 -54.5 83.5s-23 66.333 -30 103s-11.5 74.667 -13.5 114s-3.33301 78.333 -4 117c-0.666992 40 -1 80.167 -1 120.5v121.5z" />
    <glyph glyph-name="p" unicode="p" horiz-adv-x="873" 
d="M120 1198l149.998 -0.000976562v-113c60 93.333 140.667 140 242 140c18 0 34.333 -1.5 49 -4.5s31 -9.33301 49 -19s34 -22.667 48 -39s28 -39 42 -68s25.5 -63 34.5 -102s16.333 -87.5 22 -145.5s8.5 -123 8.5 -195v-95c0 -103.333 -5.5 -192.166 -16.5 -266.499
s-24.5 -131.5 -40.5 -171.5s-36.667 -71.5 -62 -94.5s-48.666 -37.333 -69.999 -43s-46.333 -8.5 -75 -8.5c-42 0 -83.167 11.833 -123.5 35.5s-76.166 58.5 -107.499 104.5v-498h-150v1583zM614.998 652.999c0 62.667 -1.50293 118.332 -4.50293 166.999
s-6.83301 89 -11.5 121s-11 59.167 -19 81.5s-15.667 39.5 -23 51.5s-16.833 21 -28.5 27s-21.667 9.66699 -30 11s-19.166 2 -32.499 2c-30 0 -62.667 -11.167 -98 -33.5s-68 -51.5 -98 -87.5v-790c71.333 -79.333 138.333 -119 201 -119c14.667 0 26.834 1.33301 36.501 4
s20.667 8.66699 33 18s22.333 24.5 30 45.5s15.334 48.333 23.001 82s13.167 77.834 16.5 132.501s5 118.667 5 192v95z" />
    <glyph glyph-name="q" unicode="q" horiz-adv-x="893" 
d="M603 113c-31.333 -46 -67.168 -80.832 -107.501 -104.499s-81.5 -35.5 -123.5 -35.5c-28.667 0 -53.667 2.83301 -75 8.5s-44.666 20 -69.999 43s-46 54.5 -62 94.5s-29.5 97.167 -40.5 171.5s-16.5 163.166 -16.5 266.499v95c0 72 2.83301 137 8.5 195
s13 106.5 22 145.5s20.5 73 34.5 102s28 51.667 42 68s30 29.333 48 39s34.333 16 49 19s31 4.5 49 4.5c101.333 0 182 -46.667 242 -140v113h150v-1583h-150v498zM602.998 993.001c-30 36 -62.6699 65.1689 -98.0029 87.502s-68 33.5 -98 33.5
c-13.333 0 -24.166 -0.666992 -32.499 -2s-18.333 -5 -30 -11s-21.167 -15 -28.5 -27s-15 -29.167 -23 -51.5s-14.333 -49.5 -19 -81.5s-8.5 -72.333 -11.5 -121s-4.5 -104.334 -4.5 -167.001v-95c0 -73.333 1.66699 -137.333 5 -192s8.83301 -98.834 16.5 -132.501
s15.334 -61 23.001 -82s17.667 -36.167 30 -45.5s23.333 -15.333 33 -18s21.834 -4 36.501 -4c62.667 0 129.667 39.667 201 119v790z" />
    <glyph glyph-name="r" unicode="r" horiz-adv-x="569" 
d="M120 1198h149.999v-169c18.667 62 52.334 108.5 101.001 139.5s99 47.167 151 48.5h3v-151l-26 4c-152.667 0 -229 -58.667 -229 -176v-894h-150v1198z" />
    <glyph glyph-name="s" unicode="s" horiz-adv-x="760" 
d="M169 339c9.33301 -29.333 20.834 -57.6699 34.501 -85.0029s30.167 -54.666 49.5 -81.999s42.166 -49.333 68.499 -66s53.833 -25 82.5 -25c52.667 0 92.167 16 118.5 48s39.5 75.333 39.5 130c0 76.667 -68.333 175 -205 295l-87 76
c-66 58 -115.833 109.833 -149.5 155.5s-50.5 96.834 -50.5 153.501c0 90 27.333 159.833 82 209.5s127.667 74.5 219 74.5c43.333 0 82.666 -8.33301 117.999 -25s65 -39.834 89 -69.501s44.167 -61.667 60.5 -96s29.5 -72.166 39.5 -113.499l-133 -41
c-6 37.333 -15.5 72.666 -28.5 105.999s-33 63.5 -60 90.5s-57.833 40.5 -92.5 40.5c-44.667 0 -80.167 -15.167 -106.5 -45.5s-39.5 -69.5 -39.5 -117.5c0 -40 12.833 -78 38.5 -114s62.834 -74.667 111.501 -116l95 -82l70.5 -62.5c16.333 -15 37 -36.333 62 -64
s43.833 -52.667 56.5 -75s24.167 -49.166 34.5 -80.499s15.833 -63.333 16.5 -96c0 -89.333 -28.167 -159.833 -84.5 -211.5s-129.833 -77.5 -220.5 -77.5c-88 0 -161.5 30.833 -220.5 92.5s-100.167 139.834 -123.5 234.501z" />
    <glyph glyph-name="t" unicode="t" horiz-adv-x="594" 
d="M179 1114l-163.002 -0.000976562v84h163v425h150v-425h192v-84h-192v-824c0 -28.667 0.333008 -51.167 1 -67.5s2.83398 -34 6.50098 -53s9 -33.167 16 -42.5s17 -17.166 30 -23.499s29.167 -9.5 48.5 -9.5c32.667 0 62 2.66699 88 8v-103
c-44.667 -11.333 -88 -17 -130 -17c-37.333 0 -69.333 5.83301 -96 17.5s-47.167 26.167 -61.5 43.5s-25.666 40.333 -33.999 69s-13.5 55.5 -15.5 80.5s-3 55.167 -3 90.5v831z" />
    <glyph glyph-name="u" unicode="u" horiz-adv-x="878" 
d="M130 1198h152v-944c0 -59.333 11.667 -102.5 35 -129.5s54 -40.5 92 -40.5c31.333 0 64.833 10.833 100.5 32.5s68.5 51.167 98.5 88.5v993h150v-1198h-150v113c-32 -46.667 -70.333 -81.667 -115 -105s-91 -35 -139 -35c-59.333 0 -111.5 24.833 -156.5 74.5
s-67.5 119.5 -67.5 209.5v941z" />
    <glyph glyph-name="v" unicode="v" horiz-adv-x="793" 
d="M45 1198h146l202 -1106l194 1106h143l-241 -1198h-194z" />
    <glyph glyph-name="w" unicode="w" horiz-adv-x="1204" 
d="M57 1198h131l154 -1042l175 1042h160l188 -1042l140 1042h129l-196 -1198h-155l-183 1028l-176 -1028h-169z" />
    <glyph glyph-name="x" unicode="x" horiz-adv-x="848" 
d="M330 626l-256 572h155l196 -499l196 499h155l-257 -572l258 -626h-146l-206 534l-206 -534h-147z" />
    <glyph glyph-name="y" unicode="y" horiz-adv-x="809" 
d="M100 -176c80 5.33301 138.5 18.667 175.5 40s55.5 51.333 55.5 90c0 48.667 -3.66699 96 -11 142l-260 1101h162l198 -1030l194 1031h162l-300 -1281c-20 -77.333 -59.833 -131.833 -119.5 -163.5s-144.167 -49.167 -253.5 -52.5h-3v123z" />
    <glyph glyph-name="z" unicode="z" horiz-adv-x="731" 
d="M68 144l472 940h-408v114h549v-143l-461 -940h455v-115h-607v144z" />
    <glyph glyph-name="braceleft" unicode="{" horiz-adv-x="520" 
d="M511 -57c-37.333 0 -71.333 3.99805 -102 11.998s-57.334 17.833 -80.001 29.5s-42.667 29.167 -60 52.5s-31.666 45 -42.999 65s-21 47.833 -29 83.5s-14 66 -18 91s-7 60.167 -9 105.5s-3.16699 81.666 -3.5 108.999s-0.5 66.666 -0.5 117.999
c0 52 -8.66699 91.5 -26 118.5s-52.333 40.5 -105 40.5v188c52.667 0 87.667 13.5 105 40.5s26 66.5 26 118.5c0 51.333 0.166992 90.666 0.5 117.999s1.5 63.666 3.5 108.999s5 80.5 9 105.5s10 55.333 18 91s17.667 63.5 29 83.5s25.666 41.667 42.999 65
s37.333 40.833 60 52.5s49.334 21.5 80.001 29.5s64.667 12 102 12v-113c-34.667 0 -64 -4 -88 -12s-43.667 -23.667 -59 -47s-27.333 -45.166 -36 -65.499s-14.834 -54.166 -18.501 -101.499s-5.83398 -86.666 -6.50098 -117.999s-1 -81.333 -1 -150
c0 -38 -1.83301 -71.5 -5.5 -100.5s-10.834 -58.5 -21.501 -88.5s-27.5 -55.5 -50.5 -76.5s-51.5 -36.5 -85.5 -46.5c34 -10 62.5 -25.5 85.5 -46.5s39.833 -46.5 50.5 -76.5s17.834 -59.5 21.501 -88.5s5.5 -62.5 5.5 -100.5c0 -68.667 0.333008 -118.667 1 -150
s2.83398 -70.666 6.50098 -117.999s9.83398 -81.166 18.501 -101.499s20.667 -42.166 36 -65.499s35 -39 59 -47s53.333 -12 88 -12v-113z" />
    <glyph glyph-name="bar" unicode="|" horiz-adv-x="416" 
d="M150 1746h118v-1874h-118v1874z" />
    <glyph glyph-name="braceright" unicode="}" horiz-adv-x="530" 
d="M25 56c34.667 0 64 4.00195 88 12.002s43.667 23.667 59 47s27.333 45.166 36 65.499s14.834 54.166 18.501 101.499s5.83398 86.666 6.50098 117.999s1 81.333 1 150c0 38 1.83301 71.5 5.5 100.5s10.834 58.5 21.501 88.5s27.5 55.5 50.5 76.5s51.5 36.5 85.5 46.5
c-34 10 -62.5 25.5 -85.5 46.5s-39.833 46.5 -50.5 76.5s-17.834 59.5 -21.501 88.5s-5.5 62.5 -5.5 100.5c0 68.667 -0.333008 118.667 -1 150s-2.83398 70.666 -6.50098 117.999s-9.83398 81.166 -18.501 101.499s-20.667 42.166 -36 65.499s-35 39 -59 47
s-53.333 12 -88 12v113c37.333 0 71.333 -4 102 -12s57.334 -17.833 80.001 -29.5s42.667 -29.167 60 -52.5s31.666 -45 42.999 -65s21 -47.833 29 -83.5s14 -66 18 -91s7 -60.167 9 -105.5s3.16699 -81.666 3.5 -108.999s0.5 -66.666 0.5 -117.999
c0 -52 8.66699 -91.5 26 -118.5s52.333 -40.5 105 -40.5v-188c-52.667 0 -87.667 -13.5 -105 -40.5s-26 -66.5 -26 -118.5c0 -51.333 -0.166992 -90.666 -0.5 -117.999s-1.5 -63.666 -3.5 -108.999s-5 -80.5 -9 -105.5s-10 -55.333 -18 -91s-17.667 -63.5 -29 -83.5
s-25.666 -41.667 -42.999 -65s-37.333 -40.833 -60 -52.5s-49.334 -21.5 -80.001 -29.5s-64.667 -12 -102 -12v113z" />
    <glyph glyph-name="asciitilde" unicode="~" horiz-adv-x="815" 
d="M98 959c0.666992 12.667 1.83203 24.9971 3.49902 36.9971s6.16699 27.833 13.5 47.5s16.833 36.334 28.5 50.001s28.834 25.834 51.501 36.501s49.334 16 80.001 16c28 0 74.5 -12.667 139.5 -38s110.167 -38 135.5 -38c19.333 0 34.333 4.83301 45 14.5
s17.667 27.167 21 52.5h116c0 -0.666992 -0.333008 -5.16699 -1 -13.5s-2.16699 -17.833 -4.5 -28.5s-5.5 -23 -9.5 -37s-10.167 -27.167 -18.5 -39.5s-18.333 -24 -30 -35s-27 -19.833 -46 -26.5s-40.5 -10 -64.5 -10c-38 0 -88.5 13 -151.5 39s-106.833 39 -131.5 39
c-18.667 0 -32.834 -4.66699 -42.501 -14s-16.167 -26.666 -19.5 -51.999h-115z" />
    <glyph glyph-name="exclamdown" unicode="&#xa1;" horiz-adv-x="424" 
d="M164 1075h121v-1075h-121v1075zM100 1459h185v-179h-185v179z" />
    <glyph glyph-name="cent" unicode="&#xa2;" horiz-adv-x="760" 
d="M370 240c-40.667 2.66699 -76.835 10.6582 -108.502 23.9912s-57.834 28.333 -78.501 45s-38 41 -52 73s-24.667 60.167 -32 84.5s-12.666 59 -15.999 104s-5.33301 80.667 -6 107s-1 65.166 -1 116.499v62c0 48 0.166992 84.5 0.5 109.5s2.33301 59.667 6 104
s9 79 16 104s17.667 54 32 87s31.666 58.333 51.999 76s46.333 33.667 78 48s67.834 22.833 108.501 25.5v133h65v-134c50.667 -4 93.667 -17.167 129 -39.5s62.666 -53.166 81.999 -92.499s33.5 -80.166 42.5 -122.499s15.167 -91.833 18.5 -148.5
c0 -1.33301 0.166992 -3.66602 0.5 -6.99902s0.5 -5.66602 0.5 -6.99902h-150v14c-0.666992 21.333 -1.33398 36.333 -2.00098 45l-3.5 47.5c-1.66699 23 -4 40.5 -7 52.5l-11.5 47c-4.66699 19.333 -10.834 34.333 -18.501 45s-16.667 21.834 -27 33.501
s-22.833 20 -37.5 25s-31 7.5 -49 7.5c-23.333 0 -43.666 -3.16699 -60.999 -9.5s-32.166 -14.333 -44.499 -24s-22.666 -25.167 -30.999 -46.5s-14.833 -41.666 -19.5 -60.999s-8.33398 -47.666 -11.001 -84.999s-4.5 -71 -5.5 -101s-1.83301 -72 -2.5 -126v-62
c0 -57.333 0.833008 -105.666 2.5 -144.999s4.66699 -77.333 9 -114s10.5 -66.167 18.5 -88.5s18.5 -42.166 31.5 -59.499s28.667 -29.666 47 -36.999s40.166 -11 65.499 -11c14 0 27 1.66699 39 5s22.667 8.83301 32 16.5s17.666 15 24.999 22s13.833 17.5 19.5 31.5
s10.5 25.333 14.5 34s7.33301 22.167 10 40.5s4.83398 31.833 6.50098 40.5s3.16699 23.167 4.5 43.5s2.33301 33.666 3 39.999s1.33398 19.5 2.00098 39.5c0 2 0.166992 5 0.5 9s0.5 6.66699 0.5 8h151c0 -1.33301 -0.166992 -3.33301 -0.5 -6s-0.5 -4.66699 -0.5 -6
c-2 -48 -5.66699 -90.333 -11 -127s-14.166 -73.167 -26.499 -109.5s-28.166 -66.5 -47.499 -90.5s-44.666 -44.167 -75.999 -60.5s-68.333 -26.166 -111 -29.499v-153h-65v153z" />
    <glyph glyph-name="sterling" unicode="&#xa3;" horiz-adv-x="836" 
d="M55 65l128.002 50v653h-128v109h128v327c0 28.667 0.5 55.334 1.5 80.001s3.83301 56.334 8.5 95.001s11.167 73.334 19.5 104.001s20.666 63.167 36.999 97.5s35.666 62.833 57.999 85.5s50.666 41.5 84.999 56.5s72.833 22.5 115.5 22.5
c38 0 72.167 -5.83301 102.5 -17.5s54.833 -25.834 73.5 -42.501s34.834 -38.334 48.501 -65.001s23.667 -50.667 30 -72s11.333 -47 15 -77s5.66699 -52.167 6 -66.5s0.5 -32.5 0.5 -54.5v-7h-120c0 26.667 -0.166992 46.667 -0.5 60s-1.5 31.833 -3.5 55.5
s-5 41.667 -9 54s-9.83301 26.666 -17.5 42.999s-17.167 28.333 -28.5 36s-25.666 14.167 -42.999 19.5s-37.333 7.33301 -60 6c-16.667 -0.666992 -31.667 -3.16699 -45 -7.5s-25.333 -10.833 -36 -19.5s-20.167 -17.5 -28.5 -26.5s-15.333 -21.667 -21 -38l-15 -43.5
c-4.33301 -12.667 -7.83301 -30.334 -10.5 -53.001l-6.5 -57c-1.66699 -15.333 -2.83398 -37.166 -3.50098 -65.499s-1 -51 -1 -68v-74.5v-281h289v-115h-289v-653h448v-115h-728v65z" />
    <glyph glyph-name="currency" unicode="&#xa4;" horiz-adv-x="1028" 
d="M246 313c-45.333 39.333 -80 87.332 -104 143.999s-36 116 -36 178c0 60.667 11.5 119.167 34.5 175.5s56.5 103.833 100.5 142.5l-73 117l54 38l72 -116c64 39.333 138 59 222 59c91.333 0 170 -23 236 -69l79 126l54 -38l-82 -129c40 -39.333 70.5 -85.833 91.5 -139.5
s31.5 -109.167 31.5 -166.5c0 -58.667 -10.833 -115.167 -32.5 -169.5s-53.167 -101.166 -94.5 -140.499l86 -136l-54 -38l-84 133c-66 -43.333 -143 -65 -231 -65c-82 0 -154.333 18.667 -217 56l-77 -124l-54 38zM516 310.999
c64.667 1.33301 120.668 17.9961 168.001 49.9961s82 71.833 104 119.5s33 99.167 33 154.5c0 86 -26.833 160.833 -80.5 224.5s-128.5 96.834 -224.5 99.501c-96.667 -2.66699 -171.667 -35.667 -225 -99s-80 -138.333 -80 -225c0 -55.333 10.833 -106.666 32.5 -153.999
s56.167 -87.166 103.5 -119.499s103.666 -49.166 168.999 -50.499z" />
    <glyph glyph-name="yen" unicode="&#xa5;" horiz-adv-x="909" 
d="M386 226h-212v91h212v206h-212v89h187l-351 1109h169l282 -1032l95 348l91 335.5l96 348.5h159l-340 -1109h181v-89h-205v-206h205v-91h-205v-226h-152v226z" />
    <glyph glyph-name="brokenbar" unicode="&#xa6;" horiz-adv-x="403" 
d="M137 537h132v-551h-132v551zM137 1441h132v-552h-132v552z" />
    <glyph glyph-name="section" unicode="&#xa7;" horiz-adv-x="834" 
d="M193 339c9.33301 -29.333 20.8359 -57.668 34.5029 -85.001s30.167 -54.666 49.5 -81.999s42.166 -49.333 68.499 -66s53.833 -25 82.5 -25c52.667 0 92.167 16 118.5 48s39.5 75.333 39.5 130c0 76.667 -68.333 175 -205 295l-87 76l-54.5 48.5l-47 44.5
c-22.333 21.333 -38 38.333 -47 51s-19.833 28.834 -32.5 48.501s-21.334 39 -26.001 58s-7 38.5 -7 58.5c0 65.333 14.833 120.333 44.5 165s71.167 77 124.5 97c-42.667 40 -75.5 78.833 -98.5 116.5s-34.5 77.834 -34.5 120.501c0 90 27.333 159.833 82 209.5
s127.667 74.5 219 74.5c43.333 0 82.666 -8.33301 117.999 -25s65 -39.834 89 -69.501s44.167 -61.667 60.5 -96s29.5 -72.166 39.5 -113.499l-133 -41c-6 37.333 -15.5 72.666 -28.5 105.999s-33 63.5 -60 90.5s-57.833 40.5 -92.5 40.5
c-44.667 0 -80.167 -15.167 -106.5 -45.5s-39.5 -69.5 -39.5 -117.5c0 -27.333 8.83301 -55.5 26.5 -84.5s36 -52.833 55 -71.5s46.5 -43.334 82.5 -74.001l95 -82c35.333 -30.667 64.5 -57.667 87.5 -81s47.333 -51.333 73 -84s45.167 -66.834 58.5 -102.501
s20.333 -72.5 21 -110.5c0 -58 -12.333 -108.5 -37 -151.5s-59 -76.167 -103 -99.5c67.333 -78 102 -160.667 104 -248c0 -89.333 -28.167 -159.833 -84.5 -211.5s-129.833 -77.5 -220.5 -77.5c-88 0 -161.5 30.833 -220.5 92.5s-100.167 139.834 -123.5 234.501z
M538.003 594.998c56 25.333 83.999 79.667 83.999 163c0 78 -68.333 176.333 -205 295l-69 60c-37.333 -6 -66.666 -23.667 -87.999 -53s-32 -65.333 -32 -108c0 -20.667 4 -41 12 -61s21.5 -40.5 40.5 -61.5s35.333 -38 49 -51s34.5 -31.833 62.5 -56.5z" />
    <glyph glyph-name="dieresis" unicode="&#xa8;" horiz-adv-x="795" 
d="M113 1565h184v-179h-184v179zM497 1565h184v-179h-184v179z" />
    <glyph glyph-name="copyright" unicode="&#xa9;" horiz-adv-x="1378" 
d="M917 505c0 -4 -0.166016 -9.49902 -0.499023 -16.499s-1.83301 -20.333 -4.5 -40s-6.5 -38.334 -11.5 -56.001s-12.833 -37.334 -23.5 -59.001s-23.334 -40.334 -38.001 -56.001s-33.834 -28.834 -57.501 -39.501s-50.167 -16 -79.5 -16c-26 0 -49.667 3 -71 9
s-39.666 13.5 -54.999 22.5s-29.166 21.5 -41.499 37.5s-22.5 31.5 -30.5 46.5s-14.667 34.333 -20 58s-9.5 44.334 -12.5 62.001s-5.16699 40.667 -6.5 69s-2.16602 51.333 -2.49902 69s-0.5 41.5 -0.5 71.5s0.166992 53.833 0.5 71.5s1.16602 40.667 2.49902 69
s3.5 51.333 6.5 69s7.16699 38.334 12.5 62.001s12 43 20 58s18.167 30.5 30.5 46.5s26.166 28.5 41.499 37.5s33.666 16.5 54.999 22.5s45 9 71 9c30 0 57.167 -5.16699 81.5 -15.5s43.666 -23.166 57.999 -38.499s26.833 -33.666 37.5 -54.999
s18.334 -40.666 23.001 -57.999s8.33398 -36 11.001 -56s4 -33.667 4 -41v-19h-87c-0.666992 31.333 -2.83398 58.166 -6.50098 80.499s-9.83398 44.166 -18.501 65.499s-21.667 37.5 -39 48.5s-39 16.5 -65 16.5c-22.667 0 -41.834 -2.66699 -57.501 -8s-29 -15 -40 -29
s-19.667 -29.5 -26 -46.5s-11.166 -41.167 -14.499 -72.5s-5.5 -62.666 -6.5 -93.999s-1.5 -72.333 -1.5 -123s0.5 -91.667 1.5 -123s3.16699 -62.666 6.5 -93.999s8.16602 -55.5 14.499 -72.5s15 -32.5 26 -46.5s24.333 -23.667 40 -29s34.834 -8 57.501 -8
c26 0 47.667 5.5 65 16.5s30.333 27.167 39 48.5s14.834 43.166 18.501 65.499s5.83398 49.166 6.50098 80.499h87zM470.001 35.001c-68.667 24.667 -127.501 58 -176.501 100s-90.833 91.167 -125.5 147.5s-60.334 116.166 -77.001 179.499s-25 128.333 -25 195
s8.33301 131.667 25 195s42.334 123.166 77.001 179.499s76.5 105.5 125.5 147.5s108 75.333 177 100s144.167 37 225.5 37s156.5 -12.333 225.5 -37s128 -58 177 -100s90.833 -91.167 125.5 -147.5s60.334 -116.166 77.001 -179.499s25 -128.333 25 -195
s-8.33301 -131.667 -25 -195s-42.334 -123.166 -77.001 -179.499s-76.5 -105.5 -125.5 -147.5s-108 -75.333 -177 -100s-144.167 -37 -225.5 -37s-156.666 12.333 -225.999 37zM890 100.001c59.333 22 109.833 51.833 151.5 89.5s77.334 81.667 107.001 132
s51.667 103.833 66 160.5s21.5 115 21.5 175s-7.16699 118.333 -21.5 175s-36.333 110.167 -66 160.5s-65.334 94.333 -107.001 132s-92.167 67.5 -151.5 89.5s-124 33 -194 33s-134.667 -11 -194 -33s-109.833 -51.833 -151.5 -89.5s-77.334 -81.667 -107.001 -132
s-51.667 -103.833 -66 -160.5s-21.5 -115 -21.5 -175s7.16699 -118.333 21.5 -175s36.333 -110.167 66 -160.5s65.334 -94.333 107.001 -132s92.167 -67.5 151.5 -89.5s124 -33 194 -33s134.667 11 194 33z" />
    <glyph glyph-name="ordfeminine" unicode="&#xaa;" horiz-adv-x="745" 
d="M502 916c-26.667 -46.667 -59.668 -82.1709 -99.001 -106.504s-76.666 -36.5 -111.999 -36.5c-51.333 0 -97 19.5 -137 58.5s-60 90.167 -60 153.5c0 22 0.5 39.5 1.5 52.5s4 30.167 9 51.5s12.5 39.333 22.5 54s24.667 32.334 44 53.001s43 39.834 71 57.501
s63.167 37.167 105.5 58.5s90.833 42.666 145.5 63.999c0 63.333 -3.16699 115.333 -9.5 156s-16 69.834 -29 87.501s-25.667 29.167 -38 34.5s-27.5 8 -45.5 8c-15.333 0 -28.833 -2.16699 -40.5 -6.5s-24.334 -12.666 -38.001 -24.999s-24.834 -32.5 -33.501 -60.5
s-14 -62.667 -16 -104h-130c6.66699 87.333 32.334 155.833 77.001 205.5s103.334 74.5 176.001 74.5c40.667 0 76.5 -6.5 107.5 -19.5s55.5 -29.667 73.5 -50s32.667 -44.666 44 -72.999s19 -55.833 23 -82.5s6 -55.334 6 -86.001v-419c0 -75.333 5 -148.666 15 -219.999
h-117zM492.999 1320c-50.667 -32.667 -89.667 -59 -117 -79s-54.666 -43 -81.999 -69s-46.5 -52 -57.5 -78s-16.5 -54.667 -16.5 -86c0 -44.667 10 -77.667 30 -99s43.667 -32 71 -32c31.333 0 63.166 10.5 95.499 31.5s57.833 47.833 76.5 80.5v331z" />
    <glyph glyph-name="guillemotleft" unicode="&#xab;" horiz-adv-x="874" 
d="M78 576v128l388 452v-200l-276 -315l276 -317v-200zM390 576v128l388 452v-200l-276 -315l276 -317v-200z" />
    <glyph glyph-name="logicalnot" unicode="&#xac;" horiz-adv-x="657" 
d="M100 563h440v-307h-56v192h-384v115z" />
    <glyph glyph-name="uni00AD" unicode="&#xad;" horiz-adv-x="659" 
d="M117 563h441v-115h-441v115z" />
    <glyph glyph-name="registered" unicode="&#xae;" horiz-adv-x="1378" 
d="M504 1083h191c157.333 0 236 -80 236 -240c0 -46.667 -15.667 -87.5 -47 -122.5s-65 -56.167 -101 -63.5l154 -413h-86l-133 402h-142v-405h-72v842zM643 695l47.001 0.000976562c8 0 21.833 0.833008 41.5 2.5s33.167 4.16699 40.5 7.5s17.5 8.66602 30.5 15.999
s22.167 16.166 27.5 26.499s10.166 23.5 14.499 39.5s6.5 34.667 6.5 56c0 64.667 -13.667 112.334 -41 143.001s-70 46 -128 46h-106v-337h67zM470.001 35.001c-68.667 24.667 -127.501 58 -176.501 100s-90.833 91.167 -125.5 147.5s-60.334 116.166 -77.001 179.499
s-25 128.333 -25 195s8.33301 131.667 25 195s42.334 123.166 77.001 179.499s76.5 105.5 125.5 147.5s108 75.333 177 100s144.167 37 225.5 37s156.5 -12.333 225.5 -37s128 -58 177 -100s90.833 -91.167 125.5 -147.5s60.334 -116.166 77.001 -179.499
s25 -128.333 25 -195s-8.33301 -131.667 -25 -195s-42.334 -123.166 -77.001 -179.499s-76.5 -105.5 -125.5 -147.5s-108 -75.333 -177 -100s-144.167 -37 -225.5 -37s-156.666 12.333 -225.999 37zM890 100.001c59.333 22 109.833 51.833 151.5 89.5
s77.334 81.667 107.001 132s51.667 103.833 66 160.5s21.5 115 21.5 175s-7.16699 118.333 -21.5 175s-36.333 110.167 -66 160.5s-65.334 94.333 -107.001 132s-92.167 67.5 -151.5 89.5s-124 33 -194 33s-134.667 -11 -194 -33s-109.833 -51.833 -151.5 -89.5
s-77.334 -81.667 -107.001 -132s-51.667 -103.833 -66 -160.5s-21.5 -115 -21.5 -175s7.16699 -118.333 21.5 -175s36.333 -110.167 66 -160.5s65.334 -94.333 107.001 -132s92.167 -67.5 151.5 -89.5s124 -33 194 -33s134.667 11 194 33z" />
    <glyph glyph-name="macron" unicode="&#xaf;" horiz-adv-x="702" 
d="M131 1498h441v-115h-441v115z" />
    <glyph glyph-name="degree" unicode="&#xb0;" horiz-adv-x="637" 
d="M210 1401c22.667 -29.333 58.334 -44 107.001 -44s84.334 14.667 107.001 44s34 63.666 34 102.999s-11.333 73.666 -34 102.999s-58.334 44 -107.001 44s-84.334 -14.667 -107.001 -44s-34 -63.666 -34 -102.999s11.333 -73.666 34 -102.999zM480 1657
c37.333 -43.333 56 -94.333 56 -153s-18.667 -109.667 -56 -153s-91.666 -65 -162.999 -65s-125.666 21.667 -162.999 65s-56 94.333 -56 153s18.667 109.667 56 153s91.666 65 162.999 65s125.666 -21.667 162.999 -65z" />
    <glyph glyph-name="plusminus" unicode="&#xb1;" horiz-adv-x="702" 
d="M106 115h504v-115h-504v115zM298 576h-192v115h192v192h120v-192h192v-115h-192v-192h-120v192z" />
    <glyph glyph-name="twosuperior" unicode="&#xb2;" horiz-adv-x="764" 
d="M100 686l304.999 458.999c78 125.333 117 218 117 278c0 141.333 -41.333 212 -124 212c-32 0 -58.833 -7 -80.5 -21s-37.5 -34.333 -47.5 -61s-16.833 -54 -20.5 -82s-5.5 -61.333 -5.5 -100h-142c0 118.667 24 210.334 72 275.001s122.333 97 223 97
c88.667 0 155.334 -28.333 200.001 -85s67 -134.667 67 -234c0 -77.333 -43.333 -183.333 -130 -318l-265 -409h381v-111h-550v100z" />
    <glyph glyph-name="threesuperior" unicode="&#xb3;" horiz-adv-x="770" 
d="M234 955c0 -38 1.83398 -71.001 5.50098 -99.001s10.5 -55.333 20.5 -82s25.333 -46.834 46 -60.501s46.334 -20.5 77.001 -20.5c50.667 0 87 18.5 109 55.5s33 92.167 33 165.5c0 44 -15.5 91.333 -46.5 142s-69.167 80.667 -114.5 90v84
c52 14.667 91.833 40.5 119.5 77.5s41.5 76.167 41.5 117.5c0 142 -44 213 -132 213c-26.667 0 -49.834 -5 -69.501 -15s-35.167 -22.833 -46.5 -38.5s-20.333 -35.5 -27 -59.5s-11 -47.667 -13 -71s-3 -50 -3 -80h-130c0 118 23.667 209.167 71 273.5
s119.666 96.5 216.999 96.5c85.333 0 150.5 -29.333 195.5 -88s67.5 -132 67.5 -220c0 -49.333 -15 -97.666 -45 -144.999s-67.667 -81.666 -113 -102.999c44 -26 81.333 -66.667 112 -122s46 -106.333 46 -153c0 -99.333 -23 -178.5 -69 -237.5s-114 -88.5 -204 -88.5
c-94 0 -163.833 32.167 -209.5 96.5s-68.5 154.833 -68.5 271.5h130z" />
    <glyph glyph-name="acute" unicode="&#xb4;" horiz-adv-x="444" 
d="M219 1722h162l-229 -398h-56z" />
    <glyph glyph-name="mu" unicode="&#xb5;" horiz-adv-x="901" 
d="M145 1198h151.999v-944c0 -59.333 11.667 -102.5 35 -129.5s54 -40.5 92 -40.5c31.333 0 64.833 10.833 100.5 32.5s68.5 51.167 98.5 88.5v993h150v-1198h-150v113c-27.333 -46.667 -61 -81.667 -101 -105s-81 -35 -123 -35c-41.333 0 -79.666 16.667 -114.999 50
l-7 -255h-132v1430z" />
    <glyph glyph-name="paragraph" unicode="&#xb6;" horiz-adv-x="969" 
d="M389 876c-113.333 0 -202.667 25.166 -268 75.499s-98 121.5 -98 213.5c0 92.667 31 164.834 93 216.501s154.667 77.5 278 77.5h437v-1459h-106v876h-211v-876h-125v876z" />
    <glyph glyph-name="periodcentered" unicode="&#xb7;" horiz-adv-x="446" 
d="M131 883h185v-179h-185v179z" />
    <glyph glyph-name="cedilla" unicode="&#xb8;" horiz-adv-x="449" 
d="M111 -335c98 0 147 22.334 147 67.001c0 20.667 -9.66699 43.167 -29 67.5s-44 46.5 -74 66.5v134h64v-115c94.667 -55.333 142 -109.333 142 -162c0 -34.667 -22.167 -62.834 -66.5 -84.501s-105.5 -32.5 -183.5 -32.5v59z" />
    <glyph glyph-name="onesuperior" unicode="&#xb9;" horiz-adv-x="522" 
d="M243 1497c-28 -19.333 -61 -37.668 -99 -55.001s-69 -28.666 -93 -33.999v125c40 14.667 83.333 38.167 130 70.5s83.667 71.5 111 117.5h87v-1133h-136v909z" />
    <glyph glyph-name="ordmasculine" unicode="&#xba;" horiz-adv-x="715" 
d="M228 1234c0 -146.667 8.50195 -247.5 25.502 -302.5s51.833 -82.5 104.5 -82.5c53.333 0 88.5 27.5 105.5 82.5s25.5 155.833 25.5 302.5v49c0 59.333 -0.833008 108.166 -2.5 146.499s-5.16699 74 -10.5 107s-12.833 58.333 -22.5 76s-22.334 31.334 -38.001 41.001
s-34.834 14.5 -57.501 14.5c-54.667 0 -90 -27.333 -106 -82s-24 -155.667 -24 -303v-49zM111.002 1283c0 32.667 0.169922 57.3379 0.50293 74.0049s1.16602 40.5 2.49902 71.5s3.33301 55 6 72s6.83398 38.5 12.501 64.5s12.5 46.333 20.5 61s18.333 30.667 31 48
s27 30.666 43 39.999s35.167 17.166 57.5 23.499s46.833 9.5 73.5 9.5s51.167 -3.16699 73.5 -9.5s41.666 -14.166 57.999 -23.499s30.666 -22.666 42.999 -39.999s22.666 -33.333 30.999 -48s15.333 -35 21 -61s9.83398 -47.5 12.501 -64.5s4.66699 -41 6 -72
s2.16602 -54.833 2.49902 -71.5s0.5 -41.334 0.5 -74.001v-49c0 -44.667 -0.166992 -78.334 -0.5 -101.001s-2 -53.5 -5 -92.5s-7.5 -68.833 -13.5 -89.5s-15 -44.334 -27 -71.001s-26.667 -46.834 -44 -60.501s-39.333 -25.334 -66 -35.001s-57.334 -14.5 -92.001 -14.5
c-40 0 -74.667 5.33301 -104 16s-52.666 28.667 -69.999 54s-31.333 49.333 -42 72s-18 55.667 -22 99s-6.5 78.333 -7.5 105s-1.5 66 -1.5 118v49z" />
    <glyph glyph-name="guillemotright" unicode="&#xbb;" horiz-adv-x="872" 
d="M111 324l276 317l-276 315v200l388 -452v-128l-388 -452v200zM423 324l276 317l-276 315v200l388 -452v-128l-388 -452v200z" />
    <glyph glyph-name="onequarter" unicode="&#xbc;" horiz-adv-x="1499" 
d="M883 371l301 761h210v-754h134v-102h-134v-277h-136v277h-375v95zM1258 378l-1 638l-229 -638h230zM900 1721h145l-553 -1721h-144zM192 1497c-28 -19.333 -61 -37.668 -99 -55.001s-69 -28.666 -93 -33.999v125c40 14.667 83.333 38.167 130 70.5s83.667 71.5 111 117.5
h87v-1133h-136v909z" />
    <glyph glyph-name="onehalf" unicode="&#xbd;" horiz-adv-x="1716" 
d="M192 1497c-28 -19.333 -61 -37.668 -99 -55.001s-69 -28.666 -93 -33.999v125c40 14.667 83.333 38.167 130 70.5s83.667 71.5 111 117.5h87v-1133h-136v909zM1020 1721h145l-553 -1721h-144zM1126 98.998l304.999 458.999c78 125.333 117 218 117 278
c0 141.333 -41.333 212 -124 212c-32 0 -58.833 -7 -80.5 -21s-37.5 -34.333 -47.5 -61s-16.833 -54 -20.5 -82s-5.5 -61.333 -5.5 -100h-142c0 118.667 24 210.334 72 275.001s122.333 97 223 97c88.667 0 155.334 -28.333 200.001 -85s67 -134.667 67 -234
c0 -77.333 -43.333 -183.333 -130 -318l-265 -409h381v-111h-550v100z" />
    <glyph glyph-name="threequarters" unicode="&#xbe;" horiz-adv-x="1890" 
d="M189 955c0 -38 1.83398 -71.001 5.50098 -99.001s10.5 -55.333 20.5 -82s25.333 -46.834 46 -60.501s46.334 -20.5 77.001 -20.5c50.667 0 87 18.5 109 55.5s33 92.167 33 165.5c0 44 -15.5 91.333 -46.5 142s-69.167 80.667 -114.5 90v84
c52 14.667 91.833 40.5 119.5 77.5s41.5 76.167 41.5 117.5c0 142 -44 213 -132 213c-26.667 0 -49.834 -5 -69.501 -15s-35.167 -22.833 -46.5 -38.5s-20.333 -35.5 -27 -59.5s-11 -47.667 -13 -71s-3 -50 -3 -80h-130c0 118 23.667 209.167 71 273.5
s119.666 96.5 216.999 96.5c85.333 0 150.5 -29.333 195.5 -88s67.5 -132 67.5 -220c0 -49.333 -15 -97.666 -45 -144.999s-67.667 -81.666 -113 -102.999c44 -26 81.333 -66.667 112 -122s46 -106.333 46 -153c0 -99.333 -23 -178.5 -69 -237.5s-114 -88.5 -204 -88.5
c-94 0 -163.833 32.167 -209.5 96.5s-68.5 154.833 -68.5 271.5h130zM1197 1721h145l-553 -1721h-144zM1273 370.999l301 761h210v-754h134v-102h-134v-277h-136v277h-375v95zM1648 377.999l-1 638l-229 -638h230z" />
    <glyph glyph-name="questiondown" unicode="&#xbf;" horiz-adv-x="811" 
d="M541.019 927.049c-67.3291 -38.665 -125.99 -79.6602 -175.987 -122.991s-88.3281 -82.9951 -114.993 -118.992c-26.665 -35.998 -47.9971 -72.9961 -63.9961 -110.993c-15.999 -37.998 -26.165 -69.6631 -30.498 -94.9941c-4.33301 -25.332 -6.5 -50.6641 -6.5 -75.9961
c0 -53.9971 7 -101.327 20.999 -141.991s33.1641 -72.6621 57.4951 -95.9941c24.332 -23.332 51.1641 -40.6641 80.4951 -51.9971c29.332 -11.332 60.6631 -16.998 93.9941 -16.998c78.6621 0 143.325 26.498 193.988 79.4941
c50.6641 52.9971 76.3291 127.492 76.9951 223.485l1 141.992h133.992v-145.991c0 -65.9961 -11.666 -126.326 -34.998 -180.989s-54.1631 -99.1602 -92.4941 -133.491s-81.4951 -60.6631 -129.492 -78.9961c-47.9971 -18.332 -97.6611 -27.498 -148.992 -27.498
c-49.9971 0 -97.9941 8.83301 -143.991 26.499c-45.9971 17.665 -87.4941 43.4971 -124.492 77.4951c-36.9971 33.998 -66.4951 78.8281 -88.4941 134.491s-32.998 118.492 -32.998 188.487c0 119.993 32.8311 226.653 98.4941 319.98
c65.6631 93.3281 164.49 180.989 296.481 262.984v283.982h133.992v-340.979zM566.019 1540.01h-183.988v178.989h183.988v-178.989z" />
    <glyph glyph-name="Agrave" unicode="&#xc0;" horiz-adv-x="981" 
d="M229 2246h162l123 -398h-56zM50 0l170.5 863.5l169.5 857.5h198l340 -1721h-154l-86 448h-397l-88 -448h-153zM669 549l-181 1014l-179 -1014h360z" />
    <glyph glyph-name="Aacute" unicode="&#xc1;" horiz-adv-x="981" 
d="M555 2246h162l-229 -398h-56zM50 0l170.5 863.5l169.5 857.5h198l340 -1721h-154l-86 448h-397l-88 -448h-153zM669 549l-181 1014l-179 -1014h360z" />
    <glyph glyph-name="Acircumflex" unicode="&#xc2;" horiz-adv-x="981" 
d="M382 2237h213l153 -307h-110l-150 299l-149 -299h-113zM50 0l170.5 863.5l169.5 857.5h198l340 -1721h-154l-86 448h-397l-88 -448h-153zM669 549l-181 1014l-179 -1014h360z" />
    <glyph glyph-name="Atilde" unicode="&#xc3;" horiz-adv-x="981" 
d="M204 1899c0.666992 12.667 1.83301 24.9971 3.5 36.9971s6.5 27.833 14.5 47.5s18.167 36.334 30.5 50.001s30.5 25.834 54.5 36.501s52 16 84 16c18.667 0 50.167 -12.667 94.5 -38s74.5 -38 90.5 -38c19.333 0 34.333 4.83301 45 14.5s17.667 27.167 21 52.5h116
l-1 -14c-0.666992 -8.66699 -2.16699 -18.167 -4.5 -28.5s-5.66602 -22.5 -9.99902 -36.5s-11 -27.167 -20 -39.5s-19.667 -24 -32 -35s-28.5 -19.833 -48.5 -26.5s-42.667 -10 -68 -10s-59.833 13 -103.5 39s-73.5 39 -89.5 39c-18.667 0 -32.834 -4.66699 -42.501 -14
s-16.167 -26.666 -19.5 -51.999h-115zM49.999 -0.00292969l170.5 863.5l169.5 857.5h198l340 -1721h-154l-86 448h-397l-88 -448h-153zM668.999 548.997l-181 1014l-179 -1014h360z" />
    <glyph glyph-name="Adieresis" unicode="&#xc4;" horiz-adv-x="981" 
d="M202 2087h184v-179h-184v179zM586 2087h184v-179h-184v179zM50 0l170.5 863.5l169.5 857.5h198l340 -1721h-154l-86 448h-397l-88 -448h-153zM669 549l-181 1014l-179 -1014h360z" />
    <glyph glyph-name="Aring" unicode="&#xc5;" horiz-adv-x="981" 
d="M381 1924c22.667 -29.333 58.334 -44.001 107.001 -44.001s84.334 14.667 107.001 44s34 63.666 34 102.999s-11.333 73.666 -34 103c-22.667 29.333 -58.334 44 -107.001 44s-84.334 -14.667 -107.001 -44s-34 -63.666 -34 -102.999s11.333 -73.666 34 -102.999z
M651 2180c37.333 -43.333 56 -94.333 56 -153s-18.667 -109.667 -56 -153s-91.666 -65 -162.999 -65s-125.666 21.667 -162.999 65s-56 94.333 -56 153s18.667 109.667 56 153s91.666 65 162.999 65s125.666 -21.667 162.999 -65zM50 -0.000976562l170.5 863.5l169.5 857.5
h198l340 -1721h-154l-86 448h-397l-88 -448h-153zM669 548.999l-181 1014l-179 -1014h360z" />
    <glyph glyph-name="AE" unicode="&#xc6;" horiz-adv-x="1380" 
d="M648 1721h672v-122h-448v-652h320v-115h-320v-710h448v-122h-600v448h-391l-165 -448h-152zM719 549v1014l-354 -1014h354z" />
    <glyph glyph-name="Ccedilla" unicode="&#xc7;" horiz-adv-x="1073" 
d="M476 -335c98 0 147 22.334 147 67.001c0 20.667 -9.66699 43.167 -29 67.5s-44 46.5 -74 66.5v134h64v-115c94.667 -55.333 142 -109.333 142 -162c0 -34.667 -22.167 -62.834 -66.5 -84.501s-105.5 -32.5 -183.5 -32.5v59zM119 1220
c0 350 145.668 525.001 437.001 525.001c269.333 0 404 -175 404 -525v-70h-145v104c0 54.667 -4.33301 104.667 -13 150s-23.167 84.166 -43.5 116.499s-47 57.5 -80 75.5s-73.833 27 -122.5 27c-54.667 0 -100.167 -9 -136.5 -27s-65.5 -43.333 -87.5 -76
s-37.667 -71.5 -47 -116.5s-14 -94.833 -14 -149.5v-789c0 -54 4.5 -103.667 13.5 -149s24.5 -84.333 46.5 -117s51.167 -58.167 87.5 -76.5s82.166 -27.5 137.499 -27.5c48.667 0 89.5 9.16699 122.5 27.5s59.667 43.833 80 76.5s34.833 71.667 43.5 117s13 95 13 149v118
h145v-84c0 -71.333 -6 -138.833 -18 -202.5s-33.333 -119.5 -64 -167.5s-72 -86 -124 -114s-118 -42 -198 -42c-86 0 -157.167 14 -213.5 42s-101 66 -134 114s-56.167 103.833 -69.5 167.5s-20 131.167 -20 202.5v721z" />
    <glyph glyph-name="Egrave" unicode="&#xc8;" horiz-adv-x="808" 
d="M182 2246h162l123 -398h-56zM146 1721h600v-122h-448v-652h320v-115h-320v-710h448v-122h-600v1721z" />
    <glyph glyph-name="Eacute" unicode="&#xc9;" horiz-adv-x="808" 
d="M508 2246h162l-229 -398h-56zM146 1721h600v-122h-448v-652h320v-115h-320v-710h448v-122h-600v1721z" />
    <glyph glyph-name="Ecircumflex" unicode="&#xca;" horiz-adv-x="808" 
d="M335 2237h213l153 -307h-110l-150 299l-149 -299h-113zM146 1721h600v-122h-448v-652h320v-115h-320v-710h448v-122h-600v1721z" />
    <glyph glyph-name="Edieresis" unicode="&#xcb;" horiz-adv-x="808" 
d="M155 2087h184v-179h-184v179zM539 2087h184v-179h-184v179zM146 1721h600v-122h-448v-652h320v-115h-320v-710h448v-122h-600v1721z" />
    <glyph glyph-name="Igrave" unicode="&#xcc;" horiz-adv-x="444" 
d="M-36 2246h162l123 -398h-56zM145 1721h152v-1721h-152v1721z" />
    <glyph glyph-name="Iacute" unicode="&#xcd;" horiz-adv-x="444" 
d="M289 2246h162l-229 -398h-56zM145 1721h152v-1721h-152v1721z" />
    <glyph glyph-name="Icircumflex" unicode="&#xce;" horiz-adv-x="444" 
d="M117 2237h213l153 -307h-110l-150 299l-149 -299h-113zM145 1721h152v-1721h-152v1721z" />
    <glyph glyph-name="Idieresis" unicode="&#xcf;" horiz-adv-x="444" 
d="M-63 2087h184v-179h-184v179zM321 2087h184v-179h-184v179zM145 1721h152v-1721h-152v1721z" />
    <glyph glyph-name="Eth" unicode="&#xd0;" horiz-adv-x="1128" 
d="M183 809l-140 -0.000976562v115h140v797h387c65.333 0 123.333 -8.83301 174 -26.5s92.5 -41.667 125.5 -72s60 -67.5 81 -111.5s36 -90.667 45 -140s13.5 -103.666 13.5 -162.999v-700c0 -338.667 -146.333 -508 -439 -508h-387v809zM570 121.999
c191.333 0 287 117.333 287 352v768c0 238 -95.667 357 -287 357h-235v-675h200v-115h-200v-687h235z" />
    <glyph glyph-name="Ntilde" unicode="&#xd1;" horiz-adv-x="1083" 
d="M274 1899c0.666992 12.667 1.83301 24.9971 3.5 36.9971s6.5 27.833 14.5 47.5s18.167 36.334 30.5 50.001s30.5 25.834 54.5 36.501s52 16 84 16c18.667 0 50.167 -12.667 94.5 -38s74.5 -38 90.5 -38c19.333 0 34.333 4.83301 45 14.5s17.667 27.167 21 52.5h116
l-1 -14c-0.666992 -8.66699 -2.16699 -18.167 -4.5 -28.5s-5.66602 -22.5 -9.99902 -36.5s-11 -27.167 -20 -39.5s-19.667 -24 -32 -35s-28.5 -19.833 -48.5 -26.5s-42.667 -10 -68 -10s-59.833 13 -103.5 39s-73.5 39 -89.5 39c-18.667 0 -32.834 -4.66699 -42.501 -14
s-16.167 -26.666 -19.5 -51.999h-115zM145.999 1721h117l545 -1363v1363h129v-1721h-114l-546 1334v-1334h-131v1721z" />
    <glyph glyph-name="Ograve" unicode="&#xd2;" horiz-adv-x="1116" 
d="M300 2246h162l123 -398h-56zM845 1254c0 246 -95.667 369 -287 369s-287 -123 -287 -369v-789c0 -246.667 95.667 -370 287 -370s287 123.333 287 370v789zM119 1220c0 72.667 7.16895 141 21.502 205s38.5 119.667 72.5 167s79.167 84.666 135.5 111.999
s126.166 41 209.499 41s153.166 -13.667 209.499 -41s101.5 -64.666 135.5 -111.999s58.167 -103 72.5 -167s21.5 -132.333 21.5 -205v-721c0 -350.667 -146.333 -526 -439 -526s-439 175.333 -439 526v721z" />
    <glyph glyph-name="Oacute" unicode="&#xd3;" horiz-adv-x="1116" 
d="M626 2246h162l-229 -398h-56zM845 1254c0 246 -95.667 369 -287 369s-287 -123 -287 -369v-789c0 -246.667 95.667 -370 287 -370s287 123.333 287 370v789zM119 1220c0 72.667 7.16895 141 21.502 205s38.5 119.667 72.5 167s79.167 84.666 135.5 111.999
s126.166 41 209.499 41s153.166 -13.667 209.499 -41s101.5 -64.666 135.5 -111.999s58.167 -103 72.5 -167s21.5 -132.333 21.5 -205v-721c0 -350.667 -146.333 -526 -439 -526s-439 175.333 -439 526v721z" />
    <glyph glyph-name="Ocircumflex" unicode="&#xd4;" horiz-adv-x="1116" 
d="M453 2237h213l153 -307h-110l-150 299l-149 -299h-113zM845 1254c0 246 -95.667 369 -287 369s-287 -123 -287 -369v-789c0 -246.667 95.667 -370 287 -370s287 123.333 287 370v789zM119 1220c0 72.667 7.16895 141 21.502 205s38.5 119.667 72.5 167
s79.167 84.666 135.5 111.999s126.166 41 209.499 41s153.166 -13.667 209.499 -41s101.5 -64.666 135.5 -111.999s58.167 -103 72.5 -167s21.5 -132.333 21.5 -205v-721c0 -350.667 -146.333 -526 -439 -526s-439 175.333 -439 526v721z" />
    <glyph glyph-name="Otilde" unicode="&#xd5;" horiz-adv-x="1116" 
d="M275 1899c0.666992 12.667 1.83301 24.9971 3.5 36.9971s6.5 27.833 14.5 47.5s18.167 36.334 30.5 50.001s30.5 25.834 54.5 36.501s52 16 84 16c18.667 0 50.167 -12.667 94.5 -38s74.5 -38 90.5 -38c19.333 0 34.333 4.83301 45 14.5s17.667 27.167 21 52.5h116
l-1 -14c-0.666992 -8.66699 -2.16699 -18.167 -4.5 -28.5s-5.66602 -22.5 -9.99902 -36.5s-11 -27.167 -20 -39.5s-19.667 -24 -32 -35s-28.5 -19.833 -48.5 -26.5s-42.667 -10 -68 -10s-59.833 13 -103.5 39s-73.5 39 -89.5 39c-18.667 0 -32.834 -4.66699 -42.501 -14
s-16.167 -26.666 -19.5 -51.999h-115zM844.999 1254c0 246 -95.667 369 -287 369s-287 -123 -287 -369v-789c0 -246.667 95.667 -370 287 -370s287 123.333 287 370v789zM118.999 1220c0 72.667 7.16895 141 21.502 205s38.5 119.667 72.5 167s79.167 84.666 135.5 111.999
s126.166 41 209.499 41s153.166 -13.667 209.499 -41s101.5 -64.666 135.5 -111.999s58.167 -103 72.5 -167s21.5 -132.333 21.5 -205v-721c0 -350.667 -146.333 -526 -439 -526s-439 175.333 -439 526v721z" />
    <glyph glyph-name="Odieresis" unicode="&#xd6;" horiz-adv-x="1116" 
d="M273 2087h184v-179h-184v179zM657 2087h184v-179h-184v179zM845 1254c0 246 -95.667 369 -287 369s-287 -123 -287 -369v-789c0 -246.667 95.667 -370 287 -370s287 123.333 287 370v789zM119 1220c0 72.667 7.16895 141 21.502 205s38.5 119.667 72.5 167
s79.167 84.666 135.5 111.999s126.166 41 209.499 41s153.166 -13.667 209.499 -41s101.5 -64.666 135.5 -111.999s58.167 -103 72.5 -167s21.5 -132.333 21.5 -205v-721c0 -350.667 -146.333 -526 -439 -526s-439 175.333 -439 526v721z" />
    <glyph glyph-name="multiply" unicode="&#xd7;" horiz-adv-x="674" 
d="M243 602l-192 192l76 75l192 -192l192 192l76 -75l-192 -192l192 -192l-76 -76l-192 192l-192 -192l-76 76z" />
    <glyph glyph-name="Oslash" unicode="&#xd8;" horiz-adv-x="1116" 
d="M265 66c-97.333 84.667 -146 228.999 -146 432.999v721c0 60.667 4.5 116.334 13.5 167.001s24.167 98.5 45.5 143.5s48.333 83 81 114s74.334 55.5 125.001 73.5s108.667 27 174 27c89.333 0 165.666 -17.333 228.999 -52l57 177l65 -20l-63 -197
c100.667 -86 151 -230.333 151 -433v-721c0 -350.667 -146.333 -526 -439 -526c-92 0 -170.667 17.667 -236 53l-57 -178l-64 20zM845 1254c0 246 -95.667 369 -287 369s-287 -123 -287 -369v-789c0 -246.667 95.667 -370 287 -370s287 123.333 287 370v789z" />
    <glyph glyph-name="Ugrave" unicode="&#xd9;" horiz-adv-x="1145" 
d="M320 2246h162l123 -398h-56zM135 1721h152v-1333c0 -49.333 5.33301 -92.333 16 -129s27.667 -67.167 51 -91.5s53.5 -42.5 90.5 -54.5s82.167 -18 135.5 -18c100 0 171.333 24.333 214 73s64 122 64 220v1333h151v-1298c0 -300 -143 -450 -429 -450
c-88.667 0 -161.667 12.167 -219 36.5s-102.833 57 -136.5 98s-57 88.833 -70 143.5s-19.5 112 -19.5 172v1298z" />
    <glyph glyph-name="Uacute" unicode="&#xda;" horiz-adv-x="1145" 
d="M646 2246h162l-229 -398h-56zM135 1721h152v-1333c0 -49.333 5.33301 -92.333 16 -129s27.667 -67.167 51 -91.5s53.5 -42.5 90.5 -54.5s82.167 -18 135.5 -18c100 0 171.333 24.333 214 73s64 122 64 220v1333h151v-1298c0 -300 -143 -450 -429 -450
c-88.667 0 -161.667 12.167 -219 36.5s-102.833 57 -136.5 98s-57 88.833 -70 143.5s-19.5 112 -19.5 172v1298z" />
    <glyph glyph-name="Ucircumflex" unicode="&#xdb;" horiz-adv-x="1145" 
d="M473 2237h213l153 -307h-110l-150 299l-149 -299h-113zM135 1721h152v-1333c0 -49.333 5.33301 -92.333 16 -129s27.667 -67.167 51 -91.5s53.5 -42.5 90.5 -54.5s82.167 -18 135.5 -18c100 0 171.333 24.333 214 73s64 122 64 220v1333h151v-1298
c0 -300 -143 -450 -429 -450c-88.667 0 -161.667 12.167 -219 36.5s-102.833 57 -136.5 98s-57 88.833 -70 143.5s-19.5 112 -19.5 172v1298z" />
    <glyph glyph-name="Udieresis" unicode="&#xdc;" horiz-adv-x="1145" 
d="M293 2087h184v-179h-184v179zM677 2087h184v-179h-184v179zM135 1721h152v-1333c0 -49.333 5.33301 -92.333 16 -129s27.667 -67.167 51 -91.5s53.5 -42.5 90.5 -54.5s82.167 -18 135.5 -18c100 0 171.333 24.333 214 73s64 122 64 220v1333h151v-1298
c0 -300 -143 -450 -429 -450c-88.667 0 -161.667 12.167 -219 36.5s-102.833 57 -136.5 98s-57 88.833 -70 143.5s-19.5 112 -19.5 172v1298z" />
    <glyph glyph-name="Yacute" unicode="&#xdd;" horiz-adv-x="888" 
d="M520 2246h162l-229 -398h-56zM374 534l-376 1187h169l282 -1032l95 348l91 335.5l96 348.5h159l-364 -1187v-534h-152v534z" />
    <glyph glyph-name="Thorn" unicode="&#xde;" horiz-adv-x="1058" 
d="M146 1721h152v-259h269c60 0 113.333 -8.16699 160 -24.5s85.334 -38.5 116.001 -66.5s56 -62 76 -102s34.167 -82.167 42.5 -126.5s12.5 -92.166 12.5 -143.499c0 -52.667 -3.5 -101.334 -10.5 -146.001s-20 -89 -39 -133s-43.333 -81.167 -73 -111.5
s-68.834 -55 -117.501 -74s-104.667 -28.5 -168 -28.5h-268v-506h-152v1721zM584 627c85.333 -0.666992 146.333 28.667 183 88s55 153 55 281c0 118.667 -19.667 205.667 -59 261s-99 83 -179 83h-286v-712z" />
    <glyph glyph-name="germandbls" unicode="&#xdf;" horiz-adv-x="1053" 
d="M137 1338c0 65.333 10.5029 124.497 31.5029 177.497s49 96 84 129s74.333 58.167 118 75.5s88.834 26 135.501 26c46 0 90.167 -9 132.5 -27s80.666 -43.833 114.999 -77.5s61.666 -77.5 81.999 -131.5s30.5 -114.667 30.5 -182c0 -46.667 -7.66699 -93.5 -23 -140.5
s-39.833 -90.833 -73.5 -131.5s-73.5 -70.334 -119.5 -89.001c49.333 -11.333 93.166 -31.166 131.499 -59.499s68.5 -60.166 90.5 -95.499s40 -75.166 54 -119.499s23.333 -85.5 28 -123.5s7 -76.667 7 -116c0 -320 -192.333 -480 -577 -480v116
c71.333 0 133.166 7 185.499 21s93.5 32 123.5 54s54 49.667 72 83s29.833 65.833 35.5 97.5s8.5 67.834 8.5 108.501c0 50 -2.66699 95 -8 135s-15.333 79.333 -30 118s-33.834 71 -57.501 97s-55.167 46.833 -94.5 62.5s-85.333 23.5 -138 23.5h-105v117h107
c40.667 0 75.834 8.66699 105.501 26s52.5 41.5 68.5 72.5s27.667 64.667 35 101s11 76.166 11 119.499c0 98.667 -20.167 175.5 -60.5 230.5s-88.166 82.5 -143.499 82.5c-56.667 0 -105.834 -26.667 -147.501 -80s-62.5 -127.666 -62.5 -222.999v-1335h-152v1338z" />
    <glyph glyph-name="agrave" unicode="&#xe0;" 
d="M145 1722h162l123 -398h-56zM564 145c-32 -56 -71.4961 -98.668 -118.496 -128.001s-91.833 -44 -134.5 -44c-62 0 -117 24.5 -165 73.5s-72 113.167 -72 192.5c0 21.333 0.333008 38.5 1 51.5s2.5 29.833 5.5 50.5s7.33301 38 13 52s14 31.167 25 51.5
s24.5 38.333 40.5 54s36 33.667 60 54s51.667 39.666 83 57.999s68.166 38 110.499 59s89.166 42.167 140.499 63.5v10c0 68 -3 126.167 -9 174.5s-13.333 85.666 -22 111.999s-19.834 46.833 -33.501 61.5s-26.5 23.834 -38.5 27.501s-26.667 5.5 -44 5.5
c-18 0 -34 -2.5 -48 -7.5s-29 -14.667 -45 -29s-29.333 -37.666 -40 -69.999s-17.334 -72.833 -20.001 -121.5v-7h-156c8 104.667 38.833 186.834 92.5 246.501s124.167 89.5 211.5 89.5c48.667 0 91.667 -7.83301 129 -23.5s66.833 -35.667 88.5 -60
s39.167 -53.5 52.5 -87.5s22.333 -67 27 -99s7 -66.333 7 -103v-576c0 -94 6 -186 18 -276h-140zM553.004 665.999l-115 -81.998c-28 -20.667 -57.5 -44.834 -88.5 -72.501s-54.333 -52.834 -70 -75.501s-28.667 -48.5 -39 -77.5s-15.5 -59.5 -15.5 -91.5
c0 -57.333 12 -99.833 36 -127.5s52.333 -41.5 85 -41.5c38 0 76.5 13.667 115.5 41s69.5 62.333 91.5 105v422z" />
    <glyph glyph-name="aacute" unicode="&#xe1;" 
d="M471 1722h162l-229 -398h-56zM564 145c-32 -56 -71.4961 -98.668 -118.496 -128.001s-91.833 -44 -134.5 -44c-62 0 -117 24.5 -165 73.5s-72 113.167 -72 192.5c0 21.333 0.333008 38.5 1 51.5s2.5 29.833 5.5 50.5s7.33301 38 13 52s14 31.167 25 51.5
s24.5 38.333 40.5 54s36 33.667 60 54s51.667 39.666 83 57.999s68.166 38 110.499 59s89.166 42.167 140.499 63.5v10c0 68 -3 126.167 -9 174.5s-13.333 85.666 -22 111.999s-19.834 46.833 -33.501 61.5s-26.5 23.834 -38.5 27.501s-26.667 5.5 -44 5.5
c-18 0 -34 -2.5 -48 -7.5s-29 -14.667 -45 -29s-29.333 -37.666 -40 -69.999s-17.334 -72.833 -20.001 -121.5v-7h-156c8 104.667 38.833 186.834 92.5 246.501s124.167 89.5 211.5 89.5c48.667 0 91.667 -7.83301 129 -23.5s66.833 -35.667 88.5 -60
s39.167 -53.5 52.5 -87.5s22.333 -67 27 -99s7 -66.333 7 -103v-576c0 -94 6 -186 18 -276h-140zM553.004 665.999l-115 -81.998c-28 -20.667 -57.5 -44.834 -88.5 -72.501s-54.333 -52.834 -70 -75.501s-28.667 -48.5 -39 -77.5s-15.5 -59.5 -15.5 -91.5
c0 -57.333 12 -99.833 36 -127.5s52.333 -41.5 85 -41.5c38 0 76.5 13.667 115.5 41s69.5 62.333 91.5 105v422z" />
    <glyph glyph-name="acircumflex" unicode="&#xe2;" 
d="M298 1714h213l153 -307h-110l-150 299l-149 -299h-113zM564 145c-32 -56 -71.4961 -98.668 -118.496 -128.001s-91.833 -44 -134.5 -44c-62 0 -117 24.5 -165 73.5s-72 113.167 -72 192.5c0 21.333 0.333008 38.5 1 51.5s2.5 29.833 5.5 50.5s7.33301 38 13 52
s14 31.167 25 51.5s24.5 38.333 40.5 54s36 33.667 60 54s51.667 39.666 83 57.999s68.166 38 110.499 59s89.166 42.167 140.499 63.5v10c0 68 -3 126.167 -9 174.5s-13.333 85.666 -22 111.999s-19.834 46.833 -33.501 61.5s-26.5 23.834 -38.5 27.501
s-26.667 5.5 -44 5.5c-18 0 -34 -2.5 -48 -7.5s-29 -14.667 -45 -29s-29.333 -37.666 -40 -69.999s-17.334 -72.833 -20.001 -121.5v-7h-156c8 104.667 38.833 186.834 92.5 246.501s124.167 89.5 211.5 89.5c48.667 0 91.667 -7.83301 129 -23.5s66.833 -35.667 88.5 -60
s39.167 -53.5 52.5 -87.5s22.333 -67 27 -99s7 -66.333 7 -103v-576c0 -94 6 -186 18 -276h-140zM553.004 665.999l-115 -81.998c-28 -20.667 -57.5 -44.834 -88.5 -72.501s-54.333 -52.834 -70 -75.501s-28.667 -48.5 -39 -77.5s-15.5 -59.5 -15.5 -91.5
c0 -57.333 12 -99.833 36 -127.5s52.333 -41.5 85 -41.5c38 0 76.5 13.667 115.5 41s69.5 62.333 91.5 105v422z" />
    <glyph glyph-name="atilde" unicode="&#xe3;" 
d="M120 1376c0.666992 12.667 1.83301 24.9971 3.5 36.9971s6.5 27.833 14.5 47.5s18.167 36.334 30.5 50.001s30.5 25.834 54.5 36.501s52 16 84 16c18.667 0 50.167 -12.667 94.5 -38s74.5 -38 90.5 -38c19.333 0 34.333 4.83301 45 14.5s17.667 27.167 21 52.5h116
l-1 -14c-0.666992 -8.66699 -2.16699 -18.167 -4.5 -28.5s-5.66602 -22.5 -9.99902 -36.5s-11 -27.167 -20 -39.5s-19.667 -24 -32 -35s-28.5 -19.833 -48.5 -26.5s-42.667 -10 -68 -10s-59.833 13 -103.5 39s-73.5 39 -89.5 39c-18.667 0 -32.834 -4.66699 -42.501 -14
s-16.167 -26.666 -19.5 -51.999h-115zM563.999 144.997c-32 -56 -71.4961 -98.668 -118.496 -128.001s-91.833 -44 -134.5 -44c-62 0 -117 24.5 -165 73.5s-72 113.167 -72 192.5c0 21.333 0.333008 38.5 1 51.5s2.5 29.833 5.5 50.5s7.33301 38 13 52s14 31.167 25 51.5
s24.5 38.333 40.5 54s36 33.667 60 54s51.667 39.666 83 57.999s68.166 38 110.499 59s89.166 42.167 140.499 63.5v10c0 68 -3 126.167 -9 174.5s-13.333 85.666 -22 111.999s-19.834 46.833 -33.501 61.5s-26.5 23.834 -38.5 27.501s-26.667 5.5 -44 5.5
c-18 0 -34 -2.5 -48 -7.5s-29 -14.667 -45 -29s-29.333 -37.666 -40 -69.999s-17.334 -72.833 -20.001 -121.5v-7h-156c8 104.667 38.833 186.834 92.5 246.501s124.167 89.5 211.5 89.5c48.667 0 91.667 -7.83301 129 -23.5s66.833 -35.667 88.5 -60
s39.167 -53.5 52.5 -87.5s22.333 -67 27 -99s7 -66.333 7 -103v-576c0 -94 6 -186 18 -276h-140zM553.003 665.996l-115 -81.998c-28 -20.667 -57.5 -44.834 -88.5 -72.501s-54.333 -52.834 -70 -75.501s-28.667 -48.5 -39 -77.5s-15.5 -59.5 -15.5 -91.5
c0 -57.333 12 -99.833 36 -127.5s52.333 -41.5 85 -41.5c38 0 76.5 13.667 115.5 41s69.5 62.333 91.5 105v422z" />
    <glyph glyph-name="adieresis" unicode="&#xe4;" 
d="M118 1564h184v-179h-184v179zM502 1564h184v-179h-184v179zM564 145c-32 -56 -71.4961 -98.668 -118.496 -128.001s-91.833 -44 -134.5 -44c-62 0 -117 24.5 -165 73.5s-72 113.167 -72 192.5c0 21.333 0.333008 38.5 1 51.5s2.5 29.833 5.5 50.5s7.33301 38 13 52
s14 31.167 25 51.5s24.5 38.333 40.5 54s36 33.667 60 54s51.667 39.666 83 57.999s68.166 38 110.499 59s89.166 42.167 140.499 63.5v10c0 68 -3 126.167 -9 174.5s-13.333 85.666 -22 111.999s-19.834 46.833 -33.501 61.5s-26.5 23.834 -38.5 27.501
s-26.667 5.5 -44 5.5c-18 0 -34 -2.5 -48 -7.5s-29 -14.667 -45 -29s-29.333 -37.666 -40 -69.999s-17.334 -72.833 -20.001 -121.5v-7h-156c8 104.667 38.833 186.834 92.5 246.501s124.167 89.5 211.5 89.5c48.667 0 91.667 -7.83301 129 -23.5s66.833 -35.667 88.5 -60
s39.167 -53.5 52.5 -87.5s22.333 -67 27 -99s7 -66.333 7 -103v-576c0 -94 6 -186 18 -276h-140zM553.004 665.999l-115 -81.998c-28 -20.667 -57.5 -44.834 -88.5 -72.501s-54.333 -52.834 -70 -75.501s-28.667 -48.5 -39 -77.5s-15.5 -59.5 -15.5 -91.5
c0 -57.333 12 -99.833 36 -127.5s52.333 -41.5 85 -41.5c38 0 76.5 13.667 115.5 41s69.5 62.333 91.5 105v422z" />
    <glyph glyph-name="aring" unicode="&#xe5;" 
d="M297 1401c22.667 -29.333 58.334 -44 107.001 -44s84.334 14.667 107.001 44s34 63.666 34 102.999s-11.333 73.666 -34 102.999s-58.334 44 -107.001 44s-84.334 -14.667 -107.001 -44s-34 -63.666 -34 -102.999s11.333 -73.666 34 -102.999zM567 1657
c37.333 -43.333 56 -94.333 56 -153s-18.667 -109.667 -56 -153s-91.666 -65 -162.999 -65s-125.666 21.667 -162.999 65s-56 94.333 -56 153s18.667 109.667 56 153s91.666 65 162.999 65s125.666 -21.667 162.999 -65zM564 145
c-32 -56 -71.4961 -98.668 -118.496 -128.001s-91.833 -44 -134.5 -44c-62 0 -117 24.5 -165 73.5s-72 113.167 -72 192.5c0 21.333 0.333008 38.5 1 51.5s2.5 29.833 5.5 50.5s7.33301 38 13 52s14 31.167 25 51.5s24.5 38.333 40.5 54s36 33.667 60 54
s51.667 39.666 83 57.999s68.166 38 110.499 59s89.166 42.167 140.499 63.5v10c0 68 -3 126.167 -9 174.5s-13.333 85.666 -22 111.999s-19.834 46.833 -33.501 61.5s-26.5 23.834 -38.5 27.501s-26.667 5.5 -44 5.5c-18 0 -34 -2.5 -48 -7.5s-29 -14.667 -45 -29
s-29.333 -37.666 -40 -69.999s-17.334 -72.833 -20.001 -121.5v-7h-156c8 104.667 38.833 186.834 92.5 246.501s124.167 89.5 211.5 89.5c48.667 0 91.667 -7.83301 129 -23.5s66.833 -35.667 88.5 -60s39.167 -53.5 52.5 -87.5s22.333 -67 27 -99s7 -66.333 7 -103v-576
c0 -94 6 -186 18 -276h-140zM553.004 665.999l-115 -81.998c-28 -20.667 -57.5 -44.834 -88.5 -72.501s-54.333 -52.834 -70 -75.501s-28.667 -48.5 -39 -77.5s-15.5 -59.5 -15.5 -91.5c0 -57.333 12 -99.833 36 -127.5s52.333 -41.5 85 -41.5c38 0 76.5 13.667 115.5 41
s69.5 62.333 91.5 105v422z" />
    <glyph glyph-name="ae" unicode="&#xe6;" horiz-adv-x="1255" 
d="M97 889c8 104.667 38.8398 186.834 92.5068 246.501s124.167 89.5 211.5 89.5c110 0 187.333 -51 232 -153c54.667 102 139 153 253 153c73.333 0 134.666 -24.333 183.999 -73s74 -113.334 74 -194.001c0 -38.667 -8.33301 -74.5 -25 -107.5s-37.167 -60.667 -61.5 -83
s-53.333 -42.666 -87 -60.999s-64.167 -32.5 -91.5 -42.5s-56.166 -18.833 -86.499 -26.5s-50.833 -12.334 -61.5 -14.001s-19 -2.83398 -25 -3.50098v-175c0 -95.333 7.33301 -171.166 22 -227.499s33.167 -94.333 55.5 -114s50.5 -29.5 84.5 -29.5
c21.333 0 40.166 3.66699 56.499 11s31.666 20.5 45.999 39.5s25.5 47 33.5 84s12.667 82.833 14 137.5v21h140l-2 -22c-4 -44.667 -9.33301 -83.834 -16 -117.501s-17 -67.167 -31 -100.5s-31 -60.666 -51 -81.999s-46.333 -38.666 -79 -51.999s-70.667 -20 -114 -20
c-70.667 0 -129 20.667 -175 62s-76.667 99.333 -92 174c-12.667 -44.667 -31.167 -83.5 -55.5 -116.5s-50.833 -57.5 -79.5 -73.5s-55.667 -27.667 -81 -35s-49 -11 -71 -11c-62 0 -117 24.5 -165 73.5s-72 113.167 -72 192.5c0 21.333 0.333008 38.333 1 51
s2.5 29.167 5.5 49.5s7.33301 37 13 50s14 28.833 25 47.5s24.5 34.834 40.5 48.501s36 29.167 60 46.5s51.667 33.333 83 48s68.166 30.167 110.499 46.5s89.166 32.5 140.499 48.5v76c-0.666992 66.667 -3.83398 123.667 -9.50098 171s-12.834 83.833 -21.501 109.5
s-20 45.667 -34 60s-26.833 23.333 -38.5 27s-26.167 5.5 -43.5 5.5s-33 -2.33301 -47 -7s-28.833 -13.834 -44.5 -27.501s-28.834 -35.834 -39.501 -66.501s-17.667 -69 -21 -115c0 -2 -0.166992 -5.16699 -0.5 -9.5s-0.5 -7.5 -0.5 -9.5h-156zM553.007 586
c-130 -46.667 -217.169 -91.167 -261.502 -133.5s-66.5 -104.166 -66.5 -185.499c0 -55.333 10 -97.5 30 -126.5s44.333 -43.5 73 -43.5c38.667 0 73.334 15.167 104.001 45.5s54.334 67.666 71.001 111.999s29.167 87 37.5 128s12.5 76.5 12.5 106.5v97zM707.005 704
c53.333 10.667 99.166 24 137.499 40s68 32.5 89 49.5s37.5 36.5 49.5 58.5s19.5 41.667 22.5 59s4.5 37 4.5 59c0 43.333 -10.333 79.833 -31 109.5s-49.334 44.5 -86.001 44.5c-20 0 -38.333 -2.33301 -55 -7s-31 -10.334 -43 -17.001s-22.667 -17 -32 -31
s-17.166 -26.833 -23.499 -38.5s-11.666 -28.667 -15.999 -51s-7.5 -41.166 -9.5 -56.499s-3.5 -37.5 -4.5 -66.5s-1.66699 -52.5 -2 -70.5s-0.5 -44 -0.5 -78v-4z" />
    <glyph glyph-name="ccedilla" unicode="&#xe7;" horiz-adv-x="844" 
d="M338 -335c98 0 147 22.334 147 67.001c0 20.667 -9.66699 43.167 -29 67.5s-44 46.5 -74 66.5v134h64v-115c94.667 -55.333 142 -109.333 142 -162c0 -34.667 -22.167 -62.834 -66.5 -84.501s-105.5 -32.5 -183.5 -32.5v59zM108 640.001
c0 40.667 0.332031 83.498 0.999023 128.498s3.83398 89.167 9.50098 132.5s14.834 84.5 27.501 123.5s31.167 73.333 55.5 103s55.333 53.334 93 71.001s84.5 26.5 140.5 26.5c62.667 0 113.167 -12.333 151.5 -37s68.5 -56.834 90.5 -96.501s37.167 -84.5 45.5 -134.5
s13.833 -100.333 16.5 -151h-150c0 16 -0.666992 35.333 -2 58s-3.66602 45.667 -6.99902 69s-7.5 45.833 -12.5 67.5s-11.167 39.5 -18.5 53.5c-14 27.333 -30.667 45.833 -50 55.5s-44 14.5 -74 14.5c-26 0 -48.167 -5.83301 -66.5 -17.5s-33.666 -27.167 -45.999 -46.5
s-22.333 -41.5 -30 -66.5s-13.334 -51.333 -17.001 -79s-6.16699 -55.5 -7.5 -83.5s-2 -54.333 -2 -79c0 -15.333 0.166992 -29.833 0.5 -43.5s0.5 -26.167 0.5 -37.5c0 -23.333 -0.833008 -52.333 -2.5 -87s-2.5 -72 -2.5 -112c0 -46 2 -92.5 6 -139.5
s12.5 -89.667 25.5 -128s31.5 -69.666 55.5 -93.999s56 -36.5 96 -36.5c27.333 0 49.833 6 67.5 18s32.5 30 44.5 54c7.33301 14.667 13.666 33.167 18.999 55.5s9.66602 45.5 12.999 69.5s5.83301 47.667 7.5 71s2.5 43.666 2.5 60.999h151v-7
c0 -41.333 -3.16699 -83.166 -9.5 -125.499s-16.833 -83.166 -31.5 -122.499c-22.667 -62 -56.167 -106.667 -100.5 -134s-98.833 -41 -163.5 -41c-71.333 0 -128.5 14.167 -171.5 42.5s-76 65.333 -99 111s-38.167 97.167 -45.5 154.5s-11 115 -11 173v186z" />
    <glyph glyph-name="egrave" unicode="&#xe8;" horiz-adv-x="839" 
d="M183 1722h162l123 -398h-56zM440 1225c45.333 0 84.333 -6.66504 117 -19.998s60.167 -31.5 82.5 -54.5s40.333 -50 54 -81s24 -64 31 -99s11.667 -71.333 14 -109s3.5 -74.5 3.5 -110.5c0 -20.667 -0.166992 -41.167 -0.5 -61.5s-0.833008 -40.833 -1.5 -61.5h-480v-183
c0 -23.333 0.333008 -52.166 1 -86.499s3.83398 -68.833 9.50098 -103.5s14.667 -66.834 27 -96.501s30.166 -51.5 53.499 -65.5c13.333 -8 27.5 -13.167 42.5 -15.5s30.167 -3.5 45.5 -3.5c35.333 0 63.5 10.333 84.5 31s37 46 48 76s18.167 62 21.5 96s5 64 5 90h140v-6
c0 -17.333 -1.5 -35.333 -4.5 -54s-6.16699 -36.667 -9.5 -54c-7.33301 -40.667 -17.833 -78 -31.5 -112s-31.5 -63.5 -53.5 -88.5s-49.167 -44.5 -81.5 -58.5s-71.166 -21 -116.499 -21c-72.667 0 -130.834 12.667 -174.501 38s-77.167 62.5 -100.5 111.5
s-38.666 109.5 -45.999 181.5s-11 154.667 -11 248c0 28 0.166992 55.833 0.5 83.5s0.5 55.5 0.5 83.5c0 37.333 1.5 79.166 4.5 125.499s10 91.833 21 136.5s27.5 86 49.5 124s52 67 90 87c25.333 13.333 52.166 22.166 80.499 26.499s56.5 6.5 84.5 6.5zM593 702.002
l-0.000976562 1.99609v74.5c0 24.333 -0.333008 49.166 -1 74.499c-0.666992 24.667 -2.16699 52.834 -4.5 84.501s-8.16602 61.167 -17.499 88.5s-23.5 50.5 -42.5 69.5s-45.833 28.5 -80.5 28.5c-46 0 -81.667 -9.33301 -107 -28s-43.833 -42.667 -55.5 -72
s-18.667 -62.166 -21 -98.499s-3.5 -72.166 -3.5 -107.499c0 -19.333 0.166992 -38.666 0.5 -57.999s0.5 -38.666 0.5 -57.999h332z" />
    <glyph glyph-name="eacute" unicode="&#xe9;" horiz-adv-x="839" 
d="M509 1722h162l-229 -398h-56zM440 1225c45.333 0 84.333 -6.66504 117 -19.998s60.167 -31.5 82.5 -54.5s40.333 -50 54 -81s24 -64 31 -99s11.667 -71.333 14 -109s3.5 -74.5 3.5 -110.5c0 -20.667 -0.166992 -41.167 -0.5 -61.5s-0.833008 -40.833 -1.5 -61.5h-480
v-183c0 -23.333 0.333008 -52.166 1 -86.499s3.83398 -68.833 9.50098 -103.5s14.667 -66.834 27 -96.501s30.166 -51.5 53.499 -65.5c13.333 -8 27.5 -13.167 42.5 -15.5s30.167 -3.5 45.5 -3.5c35.333 0 63.5 10.333 84.5 31s37 46 48 76s18.167 62 21.5 96s5 64 5 90h140
v-6c0 -17.333 -1.5 -35.333 -4.5 -54s-6.16699 -36.667 -9.5 -54c-7.33301 -40.667 -17.833 -78 -31.5 -112s-31.5 -63.5 -53.5 -88.5s-49.167 -44.5 -81.5 -58.5s-71.166 -21 -116.499 -21c-72.667 0 -130.834 12.667 -174.501 38s-77.167 62.5 -100.5 111.5
s-38.666 109.5 -45.999 181.5s-11 154.667 -11 248c0 28 0.166992 55.833 0.5 83.5s0.5 55.5 0.5 83.5c0 37.333 1.5 79.166 4.5 125.499s10 91.833 21 136.5s27.5 86 49.5 124s52 67 90 87c25.333 13.333 52.166 22.166 80.499 26.499s56.5 6.5 84.5 6.5zM593 702.002
l-0.000976562 1.99609v74.5c0 24.333 -0.333008 49.166 -1 74.499c-0.666992 24.667 -2.16699 52.834 -4.5 84.501s-8.16602 61.167 -17.499 88.5s-23.5 50.5 -42.5 69.5s-45.833 28.5 -80.5 28.5c-46 0 -81.667 -9.33301 -107 -28s-43.833 -42.667 -55.5 -72
s-18.667 -62.166 -21 -98.499s-3.5 -72.166 -3.5 -107.499c0 -19.333 0.166992 -38.666 0.5 -57.999s0.5 -38.666 0.5 -57.999h332z" />
    <glyph glyph-name="ecircumflex" unicode="&#xea;" horiz-adv-x="839" 
d="M336 1714h213l153 -307h-110l-150 299l-149 -299h-113zM440 1225c45.333 0 84.333 -6.66504 117 -19.998s60.167 -31.5 82.5 -54.5s40.333 -50 54 -81s24 -64 31 -99s11.667 -71.333 14 -109s3.5 -74.5 3.5 -110.5c0 -20.667 -0.166992 -41.167 -0.5 -61.5
s-0.833008 -40.833 -1.5 -61.5h-480v-183c0 -23.333 0.333008 -52.166 1 -86.499s3.83398 -68.833 9.50098 -103.5s14.667 -66.834 27 -96.501s30.166 -51.5 53.499 -65.5c13.333 -8 27.5 -13.167 42.5 -15.5s30.167 -3.5 45.5 -3.5c35.333 0 63.5 10.333 84.5 31
s37 46 48 76s18.167 62 21.5 96s5 64 5 90h140v-6c0 -17.333 -1.5 -35.333 -4.5 -54s-6.16699 -36.667 -9.5 -54c-7.33301 -40.667 -17.833 -78 -31.5 -112s-31.5 -63.5 -53.5 -88.5s-49.167 -44.5 -81.5 -58.5s-71.166 -21 -116.499 -21
c-72.667 0 -130.834 12.667 -174.501 38s-77.167 62.5 -100.5 111.5s-38.666 109.5 -45.999 181.5s-11 154.667 -11 248c0 28 0.166992 55.833 0.5 83.5s0.5 55.5 0.5 83.5c0 37.333 1.5 79.166 4.5 125.499s10 91.833 21 136.5s27.5 86 49.5 124s52 67 90 87
c25.333 13.333 52.166 22.166 80.499 26.499s56.5 6.5 84.5 6.5zM593 702.002l-0.000976562 1.99609v74.5c0 24.333 -0.333008 49.166 -1 74.499c-0.666992 24.667 -2.16699 52.834 -4.5 84.501s-8.16602 61.167 -17.499 88.5s-23.5 50.5 -42.5 69.5
s-45.833 28.5 -80.5 28.5c-46 0 -81.667 -9.33301 -107 -28s-43.833 -42.667 -55.5 -72s-18.667 -62.166 -21 -98.499s-3.5 -72.166 -3.5 -107.499c0 -19.333 0.166992 -38.666 0.5 -57.999s0.5 -38.666 0.5 -57.999h332z" />
    <glyph glyph-name="edieresis" unicode="&#xeb;" horiz-adv-x="839" 
d="M156 1564h184v-179h-184v179zM540 1564h184v-179h-184v179zM440 1225c45.333 0 84.333 -6.66504 117 -19.998s60.167 -31.5 82.5 -54.5s40.333 -50 54 -81s24 -64 31 -99s11.667 -71.333 14 -109s3.5 -74.5 3.5 -110.5c0 -20.667 -0.166992 -41.167 -0.5 -61.5
s-0.833008 -40.833 -1.5 -61.5h-480v-183c0 -23.333 0.333008 -52.166 1 -86.499s3.83398 -68.833 9.50098 -103.5s14.667 -66.834 27 -96.501s30.166 -51.5 53.499 -65.5c13.333 -8 27.5 -13.167 42.5 -15.5s30.167 -3.5 45.5 -3.5c35.333 0 63.5 10.333 84.5 31
s37 46 48 76s18.167 62 21.5 96s5 64 5 90h140v-6c0 -17.333 -1.5 -35.333 -4.5 -54s-6.16699 -36.667 -9.5 -54c-7.33301 -40.667 -17.833 -78 -31.5 -112s-31.5 -63.5 -53.5 -88.5s-49.167 -44.5 -81.5 -58.5s-71.166 -21 -116.499 -21
c-72.667 0 -130.834 12.667 -174.501 38s-77.167 62.5 -100.5 111.5s-38.666 109.5 -45.999 181.5s-11 154.667 -11 248c0 28 0.166992 55.833 0.5 83.5s0.5 55.5 0.5 83.5c0 37.333 1.5 79.166 4.5 125.499s10 91.833 21 136.5s27.5 86 49.5 124s52 67 90 87
c25.333 13.333 52.166 22.166 80.499 26.499s56.5 6.5 84.5 6.5zM593 702.002l-0.000976562 1.99609v74.5c0 24.333 -0.333008 49.166 -1 74.499c-0.666992 24.667 -2.16699 52.834 -4.5 84.501s-8.16602 61.167 -17.499 88.5s-23.5 50.5 -42.5 69.5
s-45.833 28.5 -80.5 28.5c-46 0 -81.667 -9.33301 -107 -28s-43.833 -42.667 -55.5 -72s-18.667 -62.166 -21 -98.499s-3.5 -72.166 -3.5 -107.499c0 -19.333 0.166992 -38.666 0.5 -57.999s0.5 -38.666 0.5 -57.999h332z" />
    <glyph glyph-name="igrave" unicode="&#xec;" horiz-adv-x="405" 
d="M-46 1723h162l123 -398h-56zM132 1198h150v-1198h-150v1198z" />
    <glyph glyph-name="iacute" unicode="&#xed;" horiz-adv-x="405" 
d="M279 1723h162l-229 -398h-56zM132 1198h150v-1198h-150v1198z" />
    <glyph glyph-name="icircumflex" unicode="&#xee;" horiz-adv-x="405" 
d="M107 1715h213l153 -307h-110l-150 299l-149 -299h-113zM132 1198h150v-1198h-150v1198z" />
    <glyph glyph-name="idieresis" unicode="&#xef;" horiz-adv-x="405" 
d="M-73 1565h184v-179h-184v179zM311 1565h184v-179h-184v179zM132 1198h150v-1198h-150v1198z" />
    <glyph glyph-name="eth" unicode="&#xf0;" horiz-adv-x="877" 
d="M84 537c0 82.667 6 157.17 18 223.503s30.333 125.166 55 176.499s57.667 91.166 99 119.499s90 42.5 146 42.5c76.667 0 137.667 -15 183 -45c-17.333 122.667 -40 224 -68 304l-165 -37v95l128 29c-33.333 62 -74.5 105.5 -123.5 130.5s-112.5 40.833 -190.5 47.5
l-14 122c111.333 -8 204.5 -33 279.5 -75s135.833 -107 182.5 -195l179 41v-95l-140 -32c69.333 -180.667 104.333 -465.334 105 -854.001v-25c0 -176 -27.333 -309.5 -82 -400.5s-142.667 -136.5 -264 -136.5c-58 0 -108.5 14 -151.5 42s-77.167 67.667 -102.5 119
s-44 110 -56 176s-18 140 -18 222v5zM234 531.003c0 -109.333 7.00195 -196.502 21.002 -261.502s33.667 -110.333 59 -136s58 -38.5 98 -38.5c27.333 0 50.166 2.83301 68.499 8.5s36.166 17.667 53.499 36s31.166 43.833 41.499 76.5s18.5 76.834 24.5 132.501
s9 123.167 9 202.5c0 100.667 -5 227.334 -15 380.001c-15.333 14 -42.166 25.167 -80.499 33.5s-75.5 12.5 -111.5 12.5c-37.333 0 -67.833 -12.667 -91.5 -38s-42.167 -70.333 -55.5 -135s-20.333 -151 -21 -259v-14z" />
    <glyph glyph-name="ntilde" unicode="&#xf1;" horiz-adv-x="893" 
d="M209 1376c0.666992 12.667 1.83301 24.9971 3.5 36.9971s6.5 27.833 14.5 47.5s18.167 36.334 30.5 50.001s30.5 25.834 54.5 36.501s52 16 84 16c18.667 0 50.167 -12.667 94.5 -38s74.5 -38 90.5 -38c19.333 0 34.333 4.83301 45 14.5s17.667 27.167 21 52.5h116
l-1 -14c-0.666992 -8.66699 -2.16699 -18.167 -4.5 -28.5s-5.66602 -22.5 -9.99902 -36.5s-11 -27.167 -20 -39.5s-19.667 -24 -32 -35s-28.5 -19.833 -48.5 -26.5s-42.667 -10 -68 -10s-59.833 13 -103.5 39s-73.5 39 -89.5 39c-18.667 0 -32.834 -4.66699 -42.501 -14
s-16.167 -26.666 -19.5 -51.999h-115zM119.999 1198l149.999 -0.000976562v-113c32 46.667 70.333 81.667 115 105s91 35 139 35c28.667 0 56.334 -6.33301 83.001 -19s50.5 -31 71.5 -55s37.833 -53.667 50.5 -89s19 -75.666 19 -120.999v-941h-152v944
c0 60 -11.667 103.333 -35 130s-54 40 -92 40c-32 0 -65.667 -10.667 -101 -32s-68 -51 -98 -89v-993h-150v1198z" />
    <glyph glyph-name="ograve" unicode="&#xf2;" horiz-adv-x="850" 
d="M167 1723h162l123 -398h-56zM258 568c0 -33.333 0.332031 -66.333 0.999023 -99s2 -65.667 4 -99c0.666992 -18.667 1.83398 -38.834 3.50098 -60.501s4.33398 -43.5 8.00098 -65.5s8.83398 -43.167 15.501 -63.5s15.834 -38.5 27.501 -54.5s26.167 -28.667 43.5 -38
s38.666 -14 63.999 -14s46.666 4.66699 63.999 14s31.833 22 43.5 38s20.834 34.167 27.501 54.5s11.834 41.5 15.501 63.5s6.16699 43.833 7.5 65.5s2.66602 41.834 3.99902 60.501c2 33.333 3.33301 66.333 4 99s1 65.667 1 99v62c0 36.667 -0.333008 73.167 -1 109.5
s-2 72.833 -4 109.5c-2 27.333 -4.66699 57 -8 89s-10.333 61.833 -21 89.5s-26.334 50.667 -47.001 69s-49.334 27.5 -86.001 27.5c-36 0 -64.5 -8.83301 -85.5 -26.5s-36.833 -40 -47.5 -67s-17.667 -56.333 -21 -88s-6 -61.167 -8 -88.5
c-2.66699 -38 -4.16699 -75.333 -4.5 -112s-0.5 -74 -0.5 -112v-62zM106.999 709c0 66.667 3.33496 130.999 10.002 192.999s21 117 43 165s54 86.333 96 115s98.333 43 169 43c51.333 0 94.666 -7.83301 129.999 -23.5s64.833 -37.5 88.5 -65.5s42 -60.833 55 -98.5
s22.833 -78.667 29.5 -123s10.667 -90.666 12 -138.999s2 -96.833 2 -145.5v-145c0 -38.667 -0.833008 -78.167 -2.5 -118.5s-5.83398 -79.333 -12.501 -117s-16.5 -73.334 -29.5 -107.001s-31.333 -63 -55 -88s-53.167 -44.833 -88.5 -59.5s-78.333 -22 -129 -22
c-50 0 -92.5 6.83301 -127.5 20.5s-64.167 32.334 -87.5 56.001s-41.5 51.5 -54.5 83.5s-23 66.333 -30 103s-11.5 74.667 -13.5 114s-3.33301 78.333 -4 117c-0.666992 40 -1 80.167 -1 120.5v121.5z" />
    <glyph glyph-name="oacute" unicode="&#xf3;" horiz-adv-x="850" 
d="M493 1723h162l-229 -398h-56zM258 568c0 -33.333 0.332031 -66.333 0.999023 -99s2 -65.667 4 -99c0.666992 -18.667 1.83398 -38.834 3.50098 -60.501s4.33398 -43.5 8.00098 -65.5s8.83398 -43.167 15.501 -63.5s15.834 -38.5 27.501 -54.5s26.167 -28.667 43.5 -38
s38.666 -14 63.999 -14s46.666 4.66699 63.999 14s31.833 22 43.5 38s20.834 34.167 27.501 54.5s11.834 41.5 15.501 63.5s6.16699 43.833 7.5 65.5s2.66602 41.834 3.99902 60.501c2 33.333 3.33301 66.333 4 99s1 65.667 1 99v62c0 36.667 -0.333008 73.167 -1 109.5
s-2 72.833 -4 109.5c-2 27.333 -4.66699 57 -8 89s-10.333 61.833 -21 89.5s-26.334 50.667 -47.001 69s-49.334 27.5 -86.001 27.5c-36 0 -64.5 -8.83301 -85.5 -26.5s-36.833 -40 -47.5 -67s-17.667 -56.333 -21 -88s-6 -61.167 -8 -88.5
c-2.66699 -38 -4.16699 -75.333 -4.5 -112s-0.5 -74 -0.5 -112v-62zM106.999 709c0 66.667 3.33496 130.999 10.002 192.999s21 117 43 165s54 86.333 96 115s98.333 43 169 43c51.333 0 94.666 -7.83301 129.999 -23.5s64.833 -37.5 88.5 -65.5s42 -60.833 55 -98.5
s22.833 -78.667 29.5 -123s10.667 -90.666 12 -138.999s2 -96.833 2 -145.5v-145c0 -38.667 -0.833008 -78.167 -2.5 -118.5s-5.83398 -79.333 -12.501 -117s-16.5 -73.334 -29.5 -107.001s-31.333 -63 -55 -88s-53.167 -44.833 -88.5 -59.5s-78.333 -22 -129 -22
c-50 0 -92.5 6.83301 -127.5 20.5s-64.167 32.334 -87.5 56.001s-41.5 51.5 -54.5 83.5s-23 66.333 -30 103s-11.5 74.667 -13.5 114s-3.33301 78.333 -4 117c-0.666992 40 -1 80.167 -1 120.5v121.5z" />
    <glyph glyph-name="ocircumflex" unicode="&#xf4;" horiz-adv-x="850" 
d="M320 1715h213l153 -307h-110l-150 299l-149 -299h-113zM258 568c0 -33.333 0.332031 -66.333 0.999023 -99s2 -65.667 4 -99c0.666992 -18.667 1.83398 -38.834 3.50098 -60.501s4.33398 -43.5 8.00098 -65.5s8.83398 -43.167 15.501 -63.5s15.834 -38.5 27.501 -54.5
s26.167 -28.667 43.5 -38s38.666 -14 63.999 -14s46.666 4.66699 63.999 14s31.833 22 43.5 38s20.834 34.167 27.501 54.5s11.834 41.5 15.501 63.5s6.16699 43.833 7.5 65.5s2.66602 41.834 3.99902 60.501c2 33.333 3.33301 66.333 4 99s1 65.667 1 99v62
c0 36.667 -0.333008 73.167 -1 109.5s-2 72.833 -4 109.5c-2 27.333 -4.66699 57 -8 89s-10.333 61.833 -21 89.5s-26.334 50.667 -47.001 69s-49.334 27.5 -86.001 27.5c-36 0 -64.5 -8.83301 -85.5 -26.5s-36.833 -40 -47.5 -67s-17.667 -56.333 -21 -88
s-6 -61.167 -8 -88.5c-2.66699 -38 -4.16699 -75.333 -4.5 -112s-0.5 -74 -0.5 -112v-62zM106.999 709c0 66.667 3.33496 130.999 10.002 192.999s21 117 43 165s54 86.333 96 115s98.333 43 169 43c51.333 0 94.666 -7.83301 129.999 -23.5s64.833 -37.5 88.5 -65.5
s42 -60.833 55 -98.5s22.833 -78.667 29.5 -123s10.667 -90.666 12 -138.999s2 -96.833 2 -145.5v-145c0 -38.667 -0.833008 -78.167 -2.5 -118.5s-5.83398 -79.333 -12.501 -117s-16.5 -73.334 -29.5 -107.001s-31.333 -63 -55 -88s-53.167 -44.833 -88.5 -59.5
s-78.333 -22 -129 -22c-50 0 -92.5 6.83301 -127.5 20.5s-64.167 32.334 -87.5 56.001s-41.5 51.5 -54.5 83.5s-23 66.333 -30 103s-11.5 74.667 -13.5 114s-3.33301 78.333 -4 117c-0.666992 40 -1 80.167 -1 120.5v121.5z" />
    <glyph glyph-name="otilde" unicode="&#xf5;" horiz-adv-x="850" 
d="M142 1376c0.666992 12.667 1.83301 24.9971 3.5 36.9971s6.5 27.833 14.5 47.5s18.167 36.334 30.5 50.001s30.5 25.834 54.5 36.501s52 16 84 16c18.667 0 50.167 -12.667 94.5 -38s74.5 -38 90.5 -38c19.333 0 34.333 4.83301 45 14.5s17.667 27.167 21 52.5h116
l-1 -14c-0.666992 -8.66699 -2.16699 -18.167 -4.5 -28.5s-5.66602 -22.5 -9.99902 -36.5s-11 -27.167 -20 -39.5s-19.667 -24 -32 -35s-28.5 -19.833 -48.5 -26.5s-42.667 -10 -68 -10s-59.833 13 -103.5 39s-73.5 39 -89.5 39c-18.667 0 -32.834 -4.66699 -42.501 -14
s-16.167 -26.666 -19.5 -51.999h-115zM257.999 567.997c0 -33.333 0.332031 -66.333 0.999023 -99s2 -65.667 4 -99c0.666992 -18.667 1.83398 -38.834 3.50098 -60.501s4.33398 -43.5 8.00098 -65.5s8.83398 -43.167 15.501 -63.5s15.834 -38.5 27.501 -54.5
s26.167 -28.667 43.5 -38s38.666 -14 63.999 -14s46.666 4.66699 63.999 14s31.833 22 43.5 38s20.834 34.167 27.501 54.5s11.834 41.5 15.501 63.5s6.16699 43.833 7.5 65.5s2.66602 41.834 3.99902 60.501c2 33.333 3.33301 66.333 4 99s1 65.667 1 99v62
c0 36.667 -0.333008 73.167 -1 109.5s-2 72.833 -4 109.5c-2 27.333 -4.66699 57 -8 89s-10.333 61.833 -21 89.5s-26.334 50.667 -47.001 69s-49.334 27.5 -86.001 27.5c-36 0 -64.5 -8.83301 -85.5 -26.5s-36.833 -40 -47.5 -67s-17.667 -56.333 -21 -88
s-6 -61.167 -8 -88.5c-2.66699 -38 -4.16699 -75.333 -4.5 -112s-0.5 -74 -0.5 -112v-62zM106.998 708.997c0 66.667 3.33496 130.999 10.002 192.999s21 117 43 165s54 86.333 96 115s98.333 43 169 43c51.333 0 94.666 -7.83301 129.999 -23.5s64.833 -37.5 88.5 -65.5
s42 -60.833 55 -98.5s22.833 -78.667 29.5 -123s10.667 -90.666 12 -138.999s2 -96.833 2 -145.5v-145c0 -38.667 -0.833008 -78.167 -2.5 -118.5s-5.83398 -79.333 -12.501 -117s-16.5 -73.334 -29.5 -107.001s-31.333 -63 -55 -88s-53.167 -44.833 -88.5 -59.5
s-78.333 -22 -129 -22c-50 0 -92.5 6.83301 -127.5 20.5s-64.167 32.334 -87.5 56.001s-41.5 51.5 -54.5 83.5s-23 66.333 -30 103s-11.5 74.667 -13.5 114s-3.33301 78.333 -4 117c-0.666992 40 -1 80.167 -1 120.5v121.5z" />
    <glyph glyph-name="odieresis" unicode="&#xf6;" horiz-adv-x="850" 
d="M140 1565h184v-179h-184v179zM524 1565h184v-179h-184v179zM258 568c0 -33.333 0.332031 -66.333 0.999023 -99s2 -65.667 4 -99c0.666992 -18.667 1.83398 -38.834 3.50098 -60.501s4.33398 -43.5 8.00098 -65.5s8.83398 -43.167 15.501 -63.5
s15.834 -38.5 27.501 -54.5s26.167 -28.667 43.5 -38s38.666 -14 63.999 -14s46.666 4.66699 63.999 14s31.833 22 43.5 38s20.834 34.167 27.501 54.5s11.834 41.5 15.501 63.5s6.16699 43.833 7.5 65.5s2.66602 41.834 3.99902 60.501c2 33.333 3.33301 66.333 4 99
s1 65.667 1 99v62c0 36.667 -0.333008 73.167 -1 109.5s-2 72.833 -4 109.5c-2 27.333 -4.66699 57 -8 89s-10.333 61.833 -21 89.5s-26.334 50.667 -47.001 69s-49.334 27.5 -86.001 27.5c-36 0 -64.5 -8.83301 -85.5 -26.5s-36.833 -40 -47.5 -67s-17.667 -56.333 -21 -88
s-6 -61.167 -8 -88.5c-2.66699 -38 -4.16699 -75.333 -4.5 -112s-0.5 -74 -0.5 -112v-62zM106.999 709c0 66.667 3.33496 130.999 10.002 192.999s21 117 43 165s54 86.333 96 115s98.333 43 169 43c51.333 0 94.666 -7.83301 129.999 -23.5s64.833 -37.5 88.5 -65.5
s42 -60.833 55 -98.5s22.833 -78.667 29.5 -123s10.667 -90.666 12 -138.999s2 -96.833 2 -145.5v-145c0 -38.667 -0.833008 -78.167 -2.5 -118.5s-5.83398 -79.333 -12.501 -117s-16.5 -73.334 -29.5 -107.001s-31.333 -63 -55 -88s-53.167 -44.833 -88.5 -59.5
s-78.333 -22 -129 -22c-50 0 -92.5 6.83301 -127.5 20.5s-64.167 32.334 -87.5 56.001s-41.5 51.5 -54.5 83.5s-23 66.333 -30 103s-11.5 74.667 -13.5 114s-3.33301 78.333 -4 117c-0.666992 40 -1 80.167 -1 120.5v121.5z" />
    <glyph glyph-name="divide" unicode="&#xf7;" horiz-adv-x="674" 
d="M35 691h568v-115h-568v115zM227 1058h184v-179h-184v179zM227 412h184v-179h-184v179z" />
    <glyph glyph-name="oslash" unicode="&#xf8;" horiz-adv-x="852" 
d="M230 32c-23.333 19.333 -43.1709 44.6719 -59.5039 76.0049s-28.5 61.666 -36.5 90.999s-14 68.5 -18 117.5s-6.33301 88.667 -7 119s-1 74.5 -1 132.5v62c0 53.333 0.333008 94.166 1 122.499s2.83398 67 6.50098 116s9.33398 87.167 17.001 114.5
s19.167 58.666 34.5 93.999s34.166 62.166 56.499 80.499s50.5 34.166 84.5 47.499s73 20 117 20c69.333 0 127 -15.667 173 -47l97 303l49 -16l-104 -323c19.333 -22 35.833 -49 49.5 -81s23.834 -62.333 30.501 -91s11.834 -66 15.501 -112s5.66699 -82.667 6 -110
s0.5 -66.666 0.5 -117.999v-62c0 -44.667 -0.166992 -78.334 -0.5 -101.001s-1.33301 -54.167 -3 -94.5s-4.33398 -71.5 -8.00098 -93.5s-9.16699 -49.333 -16.5 -82s-16.166 -58 -26.499 -76s-23.5 -37.833 -39.5 -59.5s-34.333 -38 -55 -49s-45.167 -20.333 -73.5 -28
s-59.833 -11.5 -94.5 -11.5c-59.333 0 -109.666 10.333 -150.999 31l-83 -260l-48 16zM257.995 568.006c0 -188 11 -317.333 33 -388s66.667 -106 134 -106s112 35.333 134 106s33 200 33 388v62c0 64 -0.666992 117.333 -2 160s-4.16602 84.167 -8.49902 124.5
s-10.166 72.333 -17.499 96s-17.333 44.667 -30 63s-27.834 31.333 -45.501 39s-38.834 11.5 -63.501 11.5s-45.834 -3.83301 -63.501 -11.5s-32.834 -20.667 -45.501 -39s-22.667 -39.333 -30 -63s-13.166 -55.667 -17.499 -96s-7.16602 -81.833 -8.49902 -124.5
s-2 -96 -2 -160v-62z" />
    <glyph glyph-name="ugrave" unicode="&#xf9;" horiz-adv-x="889" 
d="M182 1723h162l123 -398h-56zM126 1198h152v-944c0 -59.333 11.667 -102.5 35 -129.5s54 -40.5 92 -40.5c31.333 0 64.833 10.833 100.5 32.5s68.5 51.167 98.5 88.5v993h150v-1198h-150v113c-32 -46.667 -70.333 -81.667 -115 -105s-91 -35 -139 -35
c-59.333 0 -111.5 24.833 -156.5 74.5s-67.5 119.5 -67.5 209.5v941z" />
    <glyph glyph-name="uacute" unicode="&#xfa;" horiz-adv-x="889" 
d="M508 1723h162l-229 -398h-56zM126 1198h152v-944c0 -59.333 11.667 -102.5 35 -129.5s54 -40.5 92 -40.5c31.333 0 64.833 10.833 100.5 32.5s68.5 51.167 98.5 88.5v993h150v-1198h-150v113c-32 -46.667 -70.333 -81.667 -115 -105s-91 -35 -139 -35
c-59.333 0 -111.5 24.833 -156.5 74.5s-67.5 119.5 -67.5 209.5v941z" />
    <glyph glyph-name="ucircumflex" unicode="&#xfb;" horiz-adv-x="889" 
d="M335 1715h213l153 -307h-110l-150 299l-149 -299h-113zM126 1198h152v-944c0 -59.333 11.667 -102.5 35 -129.5s54 -40.5 92 -40.5c31.333 0 64.833 10.833 100.5 32.5s68.5 51.167 98.5 88.5v993h150v-1198h-150v113c-32 -46.667 -70.333 -81.667 -115 -105
s-91 -35 -139 -35c-59.333 0 -111.5 24.833 -156.5 74.5s-67.5 119.5 -67.5 209.5v941z" />
    <glyph glyph-name="udieresis" unicode="&#xfc;" horiz-adv-x="889" 
d="M155 1565h184v-179h-184v179zM539 1565h184v-179h-184v179zM126 1198h152v-944c0 -59.333 11.667 -102.5 35 -129.5s54 -40.5 92 -40.5c31.333 0 64.833 10.833 100.5 32.5s68.5 51.167 98.5 88.5v993h150v-1198h-150v113c-32 -46.667 -70.333 -81.667 -115 -105
s-91 -35 -139 -35c-59.333 0 -111.5 24.833 -156.5 74.5s-67.5 119.5 -67.5 209.5v941z" />
    <glyph glyph-name="yacute" unicode="&#xfd;" horiz-adv-x="809" 
d="M471 1723h162l-229 -398h-56zM82 -176c80 5.33301 138.5 18.667 175.5 40s55.5 51.333 55.5 90c0 48.667 -3.66699 96 -11 142l-260 1101h162l198 -1030l194 1031h162l-300 -1281c-20 -77.333 -59.833 -131.833 -119.5 -163.5s-144.167 -49.167 -253.5 -52.5h-3v123z" />
    <glyph glyph-name="thorn" unicode="&#xfe;" horiz-adv-x="874" 
d="M120 1721l150.002 -0.000976562v-636c31.333 46 67.166 80.833 107.499 104.5s81.5 35.5 123.5 35.5c28.667 0 53.667 -2.83301 75 -8.5s44.666 -20 69.999 -43s46 -54.5 62 -94.5s29.5 -97.167 40.5 -171.5s16.5 -163.166 16.5 -266.499v-95
c0 -72 -2.83301 -137 -8.5 -195s-13 -106.5 -22 -145.5s-20.5 -73 -34.5 -102s-28 -51.667 -42 -68s-30 -29.333 -48 -39s-34.333 -16 -49 -19s-31 -4.5 -49 -4.5c-101.333 0 -182 46.667 -242 140v-498h-150v2106zM615.002 639.999
c0 73.333 -1.66406 137.331 -4.99707 191.998s-8.83301 98.834 -16.5 132.501s-15.334 61 -23.001 82s-17.667 36.167 -30 45.5s-23.333 15.333 -33 18s-21.834 4 -36.501 4c-62.667 0 -129.667 -39.667 -201 -119v-790c30 -36 62.667 -65.167 98 -87.5s68 -33.5 98 -33.5
c13.333 0 24.166 0.666992 32.499 2s18.333 5 30 11s21.167 15 28.5 27s15 29.167 23 51.5s14.333 49.5 19 81.5s8.5 72.333 11.5 121s4.5 104.334 4.5 167.001v95z" />
    <glyph glyph-name="ydieresis" unicode="&#xff;" horiz-adv-x="809" 
d="M118 1565h184v-179h-184v179zM502 1565h184v-179h-184v179zM82 -176c80 5.33301 138.5 18.667 175.5 40s55.5 51.333 55.5 90c0 48.667 -3.66699 96 -11 142l-260 1101h162l198 -1030l194 1031h162l-300 -1281c-20 -77.333 -59.833 -131.833 -119.5 -163.5
s-144.167 -49.167 -253.5 -52.5h-3v123z" />
    <glyph glyph-name="Amacron" unicode="&#x100;" horiz-adv-x="980" 
d="M270 1994h441v-115h-441v115zM51 0l170.5 863.5l169.5 857.5h198l340 -1721h-154l-86 448h-397l-88 -448h-153zM670 549l-181 1014l-179 -1014h360z" />
    <glyph glyph-name="amacron" unicode="&#x101;" 
d="M184 1471h441v-115h-441v115zM564 145c-32 -56 -71.4961 -98.668 -118.496 -128.001s-91.833 -44 -134.5 -44c-62 0 -117 24.5 -165 73.5s-72 113.167 -72 192.5c0 21.333 0.333008 38.5 1 51.5s2.5 29.833 5.5 50.5s7.33301 38 13 52s14 31.167 25 51.5
s24.5 38.333 40.5 54s36 33.667 60 54s51.667 39.666 83 57.999s68.166 38 110.499 59s89.166 42.167 140.499 63.5v10c0 68 -3 126.167 -9 174.5s-13.333 85.666 -22 111.999s-19.834 46.833 -33.501 61.5s-26.5 23.834 -38.5 27.501s-26.667 5.5 -44 5.5
c-18 0 -34 -2.5 -48 -7.5s-29 -14.667 -45 -29s-29.333 -37.666 -40 -69.999s-17.334 -72.833 -20.001 -121.5v-7h-156c8 104.667 38.833 186.834 92.5 246.501s124.167 89.5 211.5 89.5c48.667 0 91.667 -7.83301 129 -23.5s66.833 -35.667 88.5 -60
s39.167 -53.5 52.5 -87.5s22.333 -67 27 -99s7 -66.333 7 -103v-576c0 -94 6 -186 18 -276h-140zM553.004 665.999l-115 -81.998c-28 -20.667 -57.5 -44.834 -88.5 -72.501s-54.333 -52.834 -70 -75.501s-28.667 -48.5 -39 -77.5s-15.5 -59.5 -15.5 -91.5
c0 -57.333 12 -99.833 36 -127.5s52.333 -41.5 85 -41.5c38 0 76.5 13.667 115.5 41s69.5 62.333 91.5 105v422z" />
    <glyph glyph-name="Abreve" unicode="&#x102;" horiz-adv-x="980" 
d="M323 2103c9.33301 -62.667 28.1719 -104.834 56.5049 -126.501s64.5 -32.5 108.5 -32.5s80.167 10.833 108.5 32.5s47.166 63.834 56.499 126.501h111c-2 -51.333 -12.167 -95.5 -30.5 -132.5s-41.833 -64.833 -70.5 -83.5s-57.334 -32 -86.001 -40
s-58.334 -12 -89.001 -12s-60.334 4 -89.001 12s-57.334 21.333 -86.001 40s-52.167 46.5 -70.5 83.5s-28.5 81.167 -30.5 132.5h111zM51.0059 0l170.5 863.5l169.5 857.5h198l340 -1721h-154l-86 448h-397l-88 -448h-153zM670.006 549l-181 1014l-179 -1014h360z" />
    <glyph glyph-name="abreve" unicode="&#x103;" 
d="M237 1580c9.33301 -62.667 28.1719 -104.834 56.5049 -126.501s64.5 -32.5 108.5 -32.5s80.167 10.833 108.5 32.5s47.166 63.834 56.499 126.501h111c-2 -51.333 -12.167 -95.5 -30.5 -132.5s-41.833 -64.833 -70.5 -83.5s-57.334 -32 -86.001 -40
s-58.334 -12 -89.001 -12s-60.334 4 -89.001 12s-57.334 21.333 -86.001 40s-52.167 46.5 -70.5 83.5s-28.5 81.167 -30.5 132.5h111zM564.006 145c-32 -56 -71.4961 -98.668 -118.496 -128.001s-91.833 -44 -134.5 -44c-62 0 -117 24.5 -165 73.5s-72 113.167 -72 192.5
c0 21.333 0.333008 38.5 1 51.5s2.5 29.833 5.5 50.5s7.33301 38 13 52s14 31.167 25 51.5s24.5 38.333 40.5 54s36 33.667 60 54s51.667 39.666 83 57.999s68.166 38 110.499 59s89.166 42.167 140.499 63.5v10c0 68 -3 126.167 -9 174.5s-13.333 85.666 -22 111.999
s-19.834 46.833 -33.501 61.5s-26.5 23.834 -38.5 27.501s-26.667 5.5 -44 5.5c-18 0 -34 -2.5 -48 -7.5s-29 -14.667 -45 -29s-29.333 -37.666 -40 -69.999s-17.334 -72.833 -20.001 -121.5v-7h-156c8 104.667 38.833 186.834 92.5 246.501s124.167 89.5 211.5 89.5
c48.667 0 91.667 -7.83301 129 -23.5s66.833 -35.667 88.5 -60s39.167 -53.5 52.5 -87.5s22.333 -67 27 -99s7 -66.333 7 -103v-576c0 -94 6 -186 18 -276h-140zM553.01 665.999l-115 -81.998c-28 -20.667 -57.5 -44.834 -88.5 -72.501s-54.333 -52.834 -70 -75.501
s-28.667 -48.5 -39 -77.5s-15.5 -59.5 -15.5 -91.5c0 -57.333 12 -99.833 36 -127.5s52.333 -41.5 85 -41.5c38 0 76.5 13.667 115.5 41s69.5 62.333 91.5 105v422z" />
    <glyph glyph-name="Aogonek" unicode="&#x104;" horiz-adv-x="980" 
d="M929 -358c-40.667 0 -73.999 0.835938 -99.999 2.50293s-51.5 5.16699 -76.5 10.5s-44.333 13 -58 23s-24.667 23.5 -33 40.5s-12.5 37.833 -12.5 62.5c0 46 18.167 90.167 54.5 132.5s69.833 71.166 100.5 86.499h69c-40.667 -36.667 -72.667 -71.834 -96 -105.501
s-35 -68.5 -35 -104.5c0 -8 0.5 -15.167 1.5 -21.5s3.16699 -12 6.5 -17l9 -13c2.66699 -3.66699 7.16699 -6.83398 13.5 -9.50098s11.666 -5 15.999 -7s11.5 -3.66699 21.5 -5s18 -2.33301 24 -3s15.5 -1.16699 28.5 -1.5s23.333 -0.5 31 -0.5h35.5v-70zM51.001 0.00292969
l170.5 863.5l169.5 857.5h198l340 -1721h-154l-86 448h-397l-88 -448h-153zM670.001 549.003l-181 1014l-179 -1014h360z" />
    <glyph glyph-name="aogonek" unicode="&#x105;" 
d="M754 -358c-40.667 0 -73.999 0.835938 -99.999 2.50293s-51.5 5.16699 -76.5 10.5s-44.333 13 -58 23s-24.667 23.5 -33 40.5s-12.5 37.833 -12.5 62.5c0 46 18.167 90.167 54.5 132.5s69.833 71.166 100.5 86.499h69c-40.667 -36.667 -72.667 -71.834 -96 -105.501
s-35 -68.5 -35 -104.5c0 -8 0.5 -15.167 1.5 -21.5s3.16699 -12 6.5 -17l9 -13c2.66699 -3.66699 7.16699 -6.83398 13.5 -9.50098s11.666 -5 15.999 -7s11.5 -3.66699 21.5 -5s18 -2.33301 24 -3s15.5 -1.16699 28.5 -1.5s23.333 -0.5 31 -0.5h35.5v-70zM564.001 145.003
c-32 -56 -71.4961 -98.668 -118.496 -128.001s-91.833 -44 -134.5 -44c-62 0 -117 24.5 -165 73.5s-72 113.167 -72 192.5c0 21.333 0.333008 38.5 1 51.5s2.5 29.833 5.5 50.5s7.33301 38 13 52s14 31.167 25 51.5s24.5 38.333 40.5 54s36 33.667 60 54
s51.667 39.666 83 57.999s68.166 38 110.499 59s89.166 42.167 140.499 63.5v10c0 68 -3 126.167 -9 174.5s-13.333 85.666 -22 111.999s-19.834 46.833 -33.501 61.5s-26.5 23.834 -38.5 27.501s-26.667 5.5 -44 5.5c-18 0 -34 -2.5 -48 -7.5s-29 -14.667 -45 -29
s-29.333 -37.666 -40 -69.999s-17.334 -72.833 -20.001 -121.5v-7h-156c8 104.667 38.833 186.834 92.5 246.501s124.167 89.5 211.5 89.5c48.667 0 91.667 -7.83301 129 -23.5s66.833 -35.667 88.5 -60s39.167 -53.5 52.5 -87.5s22.333 -67 27 -99s7 -66.333 7 -103v-576
c0 -94 6 -186 18 -276h-140zM553.005 666.002l-115 -81.998c-28 -20.667 -57.5 -44.834 -88.5 -72.501s-54.333 -52.834 -70 -75.501s-28.667 -48.5 -39 -77.5s-15.5 -59.5 -15.5 -91.5c0 -57.333 12 -99.833 36 -127.5s52.333 -41.5 85 -41.5c38 0 76.5 13.667 115.5 41
s69.5 62.333 91.5 105v422z" />
    <glyph glyph-name="Cacute" unicode="&#x106;" horiz-adv-x="1074" 
d="M625 2246h162l-229 -398h-56zM119 1220c0 350 145.668 525.001 437.001 525.001c269.333 0 404 -175 404 -525v-70h-145v104c0 54.667 -4.33301 104.667 -13 150s-23.167 84.166 -43.5 116.499s-47 57.5 -80 75.5s-73.833 27 -122.5 27c-54.667 0 -100.167 -9 -136.5 -27
s-65.5 -43.333 -87.5 -76s-37.667 -71.5 -47 -116.5s-14 -94.833 -14 -149.5v-789c0 -54 4.5 -103.667 13.5 -149s24.5 -84.333 46.5 -117s51.167 -58.167 87.5 -76.5s82.166 -27.5 137.499 -27.5c48.667 0 89.5 9.16699 122.5 27.5s59.667 43.833 80 76.5
s34.833 71.667 43.5 117s13 95 13 149v118h145v-84c0 -71.333 -6 -138.833 -18 -202.5s-33.333 -119.5 -64 -167.5s-72 -86 -124 -114s-118 -42 -198 -42c-86 0 -157.167 14 -213.5 42s-101 66 -134 114s-56.167 103.833 -69.5 167.5s-20 131.167 -20 202.5v721z" />
    <glyph glyph-name="cacute" unicode="&#x107;" horiz-adv-x="834" 
d="M503 1724h162l-229 -398h-56zM108 640c0 40.667 0.332031 83.498 0.999023 128.498s3.83398 89.167 9.50098 132.5s14.834 84.5 27.501 123.5s31.167 73.333 55.5 103s55.333 53.334 93 71.001s84.5 26.5 140.5 26.5c62.667 0 113.167 -12.333 151.5 -37
s68.5 -56.834 90.5 -96.501s37.167 -84.5 45.5 -134.5s13.833 -100.333 16.5 -151h-150c0 16 -0.666992 35.333 -2 58s-3.66602 45.667 -6.99902 69s-7.5 45.833 -12.5 67.5s-11.167 39.5 -18.5 53.5c-14 27.333 -30.667 45.833 -50 55.5s-44 14.5 -74 14.5
c-26 0 -48.167 -5.83301 -66.5 -17.5s-33.666 -27.167 -45.999 -46.5s-22.333 -41.5 -30 -66.5s-13.334 -51.333 -17.001 -79s-6.16699 -55.5 -7.5 -83.5s-2 -54.333 -2 -79c0 -15.333 0.166992 -29.833 0.5 -43.5s0.5 -26.167 0.5 -37.5
c0 -23.333 -0.833008 -52.333 -2.5 -87s-2.5 -72 -2.5 -112c0 -46 2 -92.5 6 -139.5s12.5 -89.667 25.5 -128s31.5 -69.666 55.5 -93.999s56 -36.5 96 -36.5c27.333 0 49.833 6 67.5 18s32.5 30 44.5 54c7.33301 14.667 13.666 33.167 18.999 55.5s9.66602 45.5 12.999 69.5
s5.83301 47.667 7.5 71s2.5 43.666 2.5 60.999h151v-7c0 -41.333 -3.16699 -83.166 -9.5 -125.499s-16.833 -83.166 -31.5 -122.499c-22.667 -62 -56.167 -106.667 -100.5 -134s-98.833 -41 -163.5 -41c-71.333 0 -128.5 14.167 -171.5 42.5s-76 65.333 -99 111
s-38.167 97.167 -45.5 154.5s-11 115 -11 173v186z" />
    <glyph glyph-name="Ccircumflex" unicode="&#x108;" horiz-adv-x="1073" 
d="M452 2237h213l153 -307h-110l-150 299l-149 -299h-113zM119 1220c0 350 145.668 525.001 437.001 525.001c269.333 0 404 -175 404 -525v-70h-145v104c0 54.667 -4.33301 104.667 -13 150s-23.167 84.166 -43.5 116.499s-47 57.5 -80 75.5s-73.833 27 -122.5 27
c-54.667 0 -100.167 -9 -136.5 -27s-65.5 -43.333 -87.5 -76s-37.667 -71.5 -47 -116.5s-14 -94.833 -14 -149.5v-789c0 -54 4.5 -103.667 13.5 -149s24.5 -84.333 46.5 -117s51.167 -58.167 87.5 -76.5s82.166 -27.5 137.499 -27.5c48.667 0 89.5 9.16699 122.5 27.5
s59.667 43.833 80 76.5s34.833 71.667 43.5 117s13 95 13 149v118h145v-84c0 -71.333 -6 -138.833 -18 -202.5s-33.333 -119.5 -64 -167.5s-72 -86 -124 -114s-118 -42 -198 -42c-86 0 -157.167 14 -213.5 42s-101 66 -134 114s-56.167 103.833 -69.5 167.5
s-20 131.167 -20 202.5v721z" />
    <glyph glyph-name="ccircumflex" unicode="&#x109;" horiz-adv-x="844" 
d="M330 1715h213l153 -307h-110l-150 299l-149 -299h-113zM108 640c0 40.667 0.332031 83.498 0.999023 128.498s3.83398 89.167 9.50098 132.5s14.834 84.5 27.501 123.5s31.167 73.333 55.5 103s55.333 53.334 93 71.001s84.5 26.5 140.5 26.5
c62.667 0 113.167 -12.333 151.5 -37s68.5 -56.834 90.5 -96.501s37.167 -84.5 45.5 -134.5s13.833 -100.333 16.5 -151h-150c0 16 -0.666992 35.333 -2 58s-3.66602 45.667 -6.99902 69s-7.5 45.833 -12.5 67.5s-11.167 39.5 -18.5 53.5
c-14 27.333 -30.667 45.833 -50 55.5s-44 14.5 -74 14.5c-26 0 -48.167 -5.83301 -66.5 -17.5s-33.666 -27.167 -45.999 -46.5s-22.333 -41.5 -30 -66.5s-13.334 -51.333 -17.001 -79s-6.16699 -55.5 -7.5 -83.5s-2 -54.333 -2 -79c0 -15.333 0.166992 -29.833 0.5 -43.5
s0.5 -26.167 0.5 -37.5c0 -23.333 -0.833008 -52.333 -2.5 -87s-2.5 -72 -2.5 -112c0 -46 2 -92.5 6 -139.5s12.5 -89.667 25.5 -128s31.5 -69.666 55.5 -93.999s56 -36.5 96 -36.5c27.333 0 49.833 6 67.5 18s32.5 30 44.5 54c7.33301 14.667 13.666 33.167 18.999 55.5
s9.66602 45.5 12.999 69.5s5.83301 47.667 7.5 71s2.5 43.666 2.5 60.999h151v-7c0 -41.333 -3.16699 -83.166 -9.5 -125.499s-16.833 -83.166 -31.5 -122.499c-22.667 -62 -56.167 -106.667 -100.5 -134s-98.833 -41 -163.5 -41c-71.333 0 -128.5 14.167 -171.5 42.5
s-76 65.333 -99 111s-38.167 97.167 -45.5 154.5s-11 115 -11 173v186z" />
    <glyph glyph-name="Ccaron" unicode="&#x10c;" horiz-adv-x="1074" 
d="M317 2193h142l95 -237l95 237h142l-209 -347h-56zM119 1220c0 350 145.668 525.001 437.001 525.001c269.333 0 404 -175 404 -525v-70h-145v104c0 54.667 -4.33301 104.667 -13 150s-23.167 84.166 -43.5 116.499s-47 57.5 -80 75.5s-73.833 27 -122.5 27
c-54.667 0 -100.167 -9 -136.5 -27s-65.5 -43.333 -87.5 -76s-37.667 -71.5 -47 -116.5s-14 -94.833 -14 -149.5v-789c0 -54 4.5 -103.667 13.5 -149s24.5 -84.333 46.5 -117s51.167 -58.167 87.5 -76.5s82.166 -27.5 137.499 -27.5c48.667 0 89.5 9.16699 122.5 27.5
s59.667 43.833 80 76.5s34.833 71.667 43.5 117s13 95 13 149v118h145v-84c0 -71.333 -6 -138.833 -18 -202.5s-33.333 -119.5 -64 -167.5s-72 -86 -124 -114s-118 -42 -198 -42c-86 0 -157.167 14 -213.5 42s-101 66 -134 114s-56.167 103.833 -69.5 167.5
s-20 131.167 -20 202.5v721z" />
    <glyph glyph-name="ccaron" unicode="&#x10d;" horiz-adv-x="834" 
d="M195 1671h142l95 -237l95 237h142l-209 -347h-56zM108 640c0 40.667 0.332031 83.498 0.999023 128.498s3.83398 89.167 9.50098 132.5s14.834 84.5 27.501 123.5s31.167 73.333 55.5 103s55.333 53.334 93 71.001s84.5 26.5 140.5 26.5
c62.667 0 113.167 -12.333 151.5 -37s68.5 -56.834 90.5 -96.501s37.167 -84.5 45.5 -134.5s13.833 -100.333 16.5 -151h-150c0 16 -0.666992 35.333 -2 58s-3.66602 45.667 -6.99902 69s-7.5 45.833 -12.5 67.5s-11.167 39.5 -18.5 53.5
c-14 27.333 -30.667 45.833 -50 55.5s-44 14.5 -74 14.5c-26 0 -48.167 -5.83301 -66.5 -17.5s-33.666 -27.167 -45.999 -46.5s-22.333 -41.5 -30 -66.5s-13.334 -51.333 -17.001 -79s-6.16699 -55.5 -7.5 -83.5s-2 -54.333 -2 -79c0 -15.333 0.166992 -29.833 0.5 -43.5
s0.5 -26.167 0.5 -37.5c0 -23.333 -0.833008 -52.333 -2.5 -87s-2.5 -72 -2.5 -112c0 -46 2 -92.5 6 -139.5s12.5 -89.667 25.5 -128s31.5 -69.666 55.5 -93.999s56 -36.5 96 -36.5c27.333 0 49.833 6 67.5 18s32.5 30 44.5 54c7.33301 14.667 13.666 33.167 18.999 55.5
s9.66602 45.5 12.999 69.5s5.83301 47.667 7.5 71s2.5 43.666 2.5 60.999h151v-7c0 -41.333 -3.16699 -83.166 -9.5 -125.499s-16.833 -83.166 -31.5 -122.499c-22.667 -62 -56.167 -106.667 -100.5 -134s-98.833 -41 -163.5 -41c-71.333 0 -128.5 14.167 -171.5 42.5
s-76 65.333 -99 111s-38.167 97.167 -45.5 154.5s-11 115 -11 173v186z" />
    <glyph glyph-name="Emacron" unicode="&#x112;" horiz-adv-x="807" 
d="M221 1994h441v-115h-441v115zM146 1721h600v-122h-448v-652h320v-115h-320v-710h448v-122h-600v1721z" />
    <glyph glyph-name="emacron" unicode="&#x113;" horiz-adv-x="839" 
d="M222 1471h441v-115h-441v115zM440 1225c45.333 0 84.333 -6.66504 117 -19.998s60.167 -31.5 82.5 -54.5s40.333 -50 54 -81s24 -64 31 -99s11.667 -71.333 14 -109s3.5 -74.5 3.5 -110.5c0 -20.667 -0.166992 -41.167 -0.5 -61.5s-0.833008 -40.833 -1.5 -61.5h-480
v-183c0 -23.333 0.333008 -52.166 1 -86.499s3.83398 -68.833 9.50098 -103.5s14.667 -66.834 27 -96.501s30.166 -51.5 53.499 -65.5c13.333 -8 27.5 -13.167 42.5 -15.5s30.167 -3.5 45.5 -3.5c35.333 0 63.5 10.333 84.5 31s37 46 48 76s18.167 62 21.5 96s5 64 5 90h140
v-6c0 -17.333 -1.5 -35.333 -4.5 -54s-6.16699 -36.667 -9.5 -54c-7.33301 -40.667 -17.833 -78 -31.5 -112s-31.5 -63.5 -53.5 -88.5s-49.167 -44.5 -81.5 -58.5s-71.166 -21 -116.499 -21c-72.667 0 -130.834 12.667 -174.501 38s-77.167 62.5 -100.5 111.5
s-38.666 109.5 -45.999 181.5s-11 154.667 -11 248c0 28 0.166992 55.833 0.5 83.5s0.5 55.5 0.5 83.5c0 37.333 1.5 79.166 4.5 125.499s10 91.833 21 136.5s27.5 86 49.5 124s52 67 90 87c25.333 13.333 52.166 22.166 80.499 26.499s56.5 6.5 84.5 6.5zM593 702.002
l-0.000976562 1.99609v74.5c0 24.333 -0.333008 49.166 -1 74.499c-0.666992 24.667 -2.16699 52.834 -4.5 84.501s-8.16602 61.167 -17.499 88.5s-23.5 50.5 -42.5 69.5s-45.833 28.5 -80.5 28.5c-46 0 -81.667 -9.33301 -107 -28s-43.833 -42.667 -55.5 -72
s-18.667 -62.166 -21 -98.499s-3.5 -72.166 -3.5 -107.499c0 -19.333 0.166992 -38.666 0.5 -57.999s0.5 -38.666 0.5 -57.999h332z" />
    <glyph glyph-name="Eogonek" unicode="&#x118;" horiz-adv-x="807" 
d="M746 -358c-40.667 0 -73.999 0.835938 -99.999 2.50293s-51.5 5.16699 -76.5 10.5s-44.333 13 -58 23s-24.667 23.5 -33 40.5s-12.5 37.833 -12.5 62.5c0 46 18.167 90.167 54.5 132.5s69.833 71.166 100.5 86.499h69c-40.667 -36.667 -72.667 -71.834 -96 -105.501
s-35 -68.5 -35 -104.5c0 -8 0.5 -15.167 1.5 -21.5s3.16699 -12 6.5 -17l9 -13c2.66699 -3.66699 7.16699 -6.83398 13.5 -9.50098s11.666 -5 15.999 -7s11.5 -3.66699 21.5 -5s18 -2.33301 24 -3s15.5 -1.16699 28.5 -1.5s23.333 -0.5 31 -0.5h35.5v-70zM146.001 1721h600
v-122h-448v-652h320v-115h-320v-710h448v-122h-600v1721z" />
    <glyph glyph-name="eogonek" unicode="&#x119;" horiz-adv-x="839" 
d="M552 -358c-40.667 0 -73.999 0.835938 -99.999 2.50293s-51.5 5.16699 -76.5 10.5s-44.333 13 -58 23s-24.667 23.5 -33 40.5s-12.5 37.833 -12.5 62.5c0 46 18.167 90.167 54.5 132.5s69.833 71.166 100.5 86.499h69c-40.667 -36.667 -72.667 -71.834 -96 -105.501
s-35 -68.5 -35 -104.5c0 -8 0.5 -15.167 1.5 -21.5s3.16699 -12 6.5 -17l9 -13c2.66699 -3.66699 7.16699 -6.83398 13.5 -9.50098s11.666 -5 15.999 -7s11.5 -3.66699 21.5 -5s18 -2.33301 24 -3s15.5 -1.16699 28.5 -1.5s23.333 -0.5 31 -0.5h35.5v-70zM440.001 1225
c45.333 0 84.333 -6.66504 117 -19.998s60.167 -31.5 82.5 -54.5s40.333 -50 54 -81s24 -64 31 -99s11.667 -71.333 14 -109s3.5 -74.5 3.5 -110.5c0 -20.667 -0.166992 -41.167 -0.5 -61.5s-0.833008 -40.833 -1.5 -61.5h-480v-183c0 -23.333 0.333008 -52.166 1 -86.499
s3.83398 -68.833 9.50098 -103.5s14.667 -66.834 27 -96.501s30.166 -51.5 53.499 -65.5c13.333 -8 27.5 -13.167 42.5 -15.5s30.167 -3.5 45.5 -3.5c35.333 0 63.5 10.333 84.5 31s37 46 48 76s18.167 62 21.5 96s5 64 5 90h140v-6c0 -17.333 -1.5 -35.333 -4.5 -54
s-6.16699 -36.667 -9.5 -54c-7.33301 -40.667 -17.833 -78 -31.5 -112s-31.5 -63.5 -53.5 -88.5s-49.167 -44.5 -81.5 -58.5s-71.166 -21 -116.499 -21c-72.667 0 -130.834 12.667 -174.501 38s-77.167 62.5 -100.5 111.5s-38.666 109.5 -45.999 181.5s-11 154.667 -11 248
c0 28 0.166992 55.833 0.5 83.5s0.5 55.5 0.5 83.5c0 37.333 1.5 79.166 4.5 125.499s10 91.833 21 136.5s27.5 86 49.5 124s52 67 90 87c25.333 13.333 52.166 22.166 80.499 26.499s56.5 6.5 84.5 6.5zM593.001 702.005l-0.000976562 1.99609v74.5
c0 24.333 -0.333008 49.166 -1 74.499c-0.666992 24.667 -2.16699 52.834 -4.5 84.501s-8.16602 61.167 -17.499 88.5s-23.5 50.5 -42.5 69.5s-45.833 28.5 -80.5 28.5c-46 0 -81.667 -9.33301 -107 -28s-43.833 -42.667 -55.5 -72s-18.667 -62.166 -21 -98.499
s-3.5 -72.166 -3.5 -107.499c0 -19.333 0.166992 -38.666 0.5 -57.999s0.5 -38.666 0.5 -57.999h332z" />
    <glyph glyph-name="Gcedilla" unicode="&#x122;" horiz-adv-x="1117" 
d="M484 -467c21.333 8 39.666 20.668 54.999 38.001s26.333 36.666 33 57.999s11.334 40.5 14.001 57.5s4 32.833 4 47.5h-128v179h185v-23c0 -36.667 -0.166992 -63.5 -0.5 -80.5s-0.833008 -41.167 -1.5 -72.5s-2.33398 -54.833 -5.00098 -70.5l-10 -58
c-4 -23 -9.33301 -40.5 -16 -52.5s-14.667 -24.5 -24 -37.5s-20.666 -22.5 -33.999 -28.5s-28.333 -10 -45 -12zM119 1211c0 356 151.999 534 455.999 534c58 0 108.333 -7 151 -21s79.334 -33.833 110.001 -59.5s55.834 -56.167 75.501 -91.5s35.167 -74.333 46.5 -117
s19.333 -88 24 -136s7.33398 -97.667 8.00098 -149v-12h-152v13c0 35.333 -0.5 71 -1.5 107s-4.16699 70.833 -9.5 104.5s-13.333 65 -24 94s-25.834 54.333 -45.501 76s-44.5 38.667 -74.5 51s-66.667 18.5 -110 18.5c-56.667 0 -104.167 -9.33301 -142.5 -28
s-69.333 -44 -93 -76s-40.667 -69 -51 -111s-15.5 -86.333 -15.5 -133v-860c0 -213.333 99 -320 297 -320c54 0 98.333 9.16699 133 27.5s62.167 42.5 82.5 72.5s34.5 64.167 42.5 102.5s12 77.5 12 117.5v291h-211v115h363v-821h-67l-45 168
c-11.333 -29.333 -27.5 -56 -48.5 -80s-45.167 -44.5 -72.5 -61.5s-57.333 -30.167 -90 -39.5s-66.334 -14 -101.001 -14c-298 0 -447 169.333 -447 508v730z" />
    <glyph glyph-name="gcedilla" unicode="&#x123;" horiz-adv-x="929" 
d="M528 1672c-21.333 -8 -39.666 -20.668 -54.999 -38.001s-26.333 -36.666 -33 -57.999s-11.334 -40.5 -14.001 -57.5s-4 -32.833 -4 -47.5h128v-179h-185v23c0 36.667 0.166992 63.5 0.5 80.5s0.833008 41.167 1.5 72.5s2.33398 54.833 5.00098 70.5l10 58
c4 23 9.33301 40.5 16 52.5s14.667 24.5 24 37.5s20.666 22.5 33.999 28.5s28.333 10 45 12zM921 1224l-20.0039 -148c-50 -9.33301 -99 -41 -147 -95c25.333 -70.667 38 -131 38 -181c0 -48 -4 -93.333 -12 -136s-20.833 -82.834 -38.5 -120.501
s-39.834 -70.167 -66.501 -97.5s-59.667 -48.833 -99 -64.5s-83.333 -23.5 -132 -23.5c-57.333 0 -105.333 8 -144 24c-2 -4 -7.16699 -13.5 -15.5 -28.5s-14.833 -27.167 -19.5 -36.5s-10 -21 -16 -35s-10.5 -27 -13.5 -39s-4.5 -23 -4.5 -33c0 -3.33301 0.333008 -6 1 -8
c2.66699 -12.667 18.667 -23 48 -31c13.333 -3.33301 106 -21 278 -53c188.667 -35.333 283 -118 283 -248c0 -33.333 -5.5 -63.5 -16.5 -90.5s-25.167 -49.5 -42.5 -67.5s-38.5 -33.667 -63.5 -47s-49.5 -23.666 -73.5 -30.999s-50.167 -13.166 -78.5 -17.499
s-52.5 -7 -72.5 -8s-40.333 -1.5 -61 -1.5h-8c-264 -0.666992 -396 50.333 -396 153c0 34.667 7 68.167 21 100.5s33 61.166 57 86.499s49 47.666 75 66.999s53.667 36.333 83 51c-9.33301 2 -26 6.5 -50 13.5s-50.333 17.5 -79 31.5s-43 27.333 -43 40
c0 8.66699 1.16699 18.167 3.5 28.5s6 21.333 11 33s10.167 23 15.5 34s12 23 20 36l21 34c6 9.66699 13.333 20.834 22 33.501s15.334 22 20.001 28l18 24c7.33301 10 11.333 15.667 12 17c-47.333 42.667 -82.5 97.667 -105.5 165s-34.5 137.333 -34.5 210
c0 38.667 3.66699 77.334 11 116.001s19.833 77.167 37.5 115.5s39.334 72.166 65.001 101.499s58.334 53 98.001 71s83.834 27 132.501 27c64 0 117.167 -15.5 159.5 -46.5s83.5 -77.5 123.5 -139.5c12.667 22 23.834 40.333 33.501 55s22.5 32 38.5 52
s33.333 36.5 52 49.5s38 21.833 58 26.5zM326.996 51.999c-32 -23.333 -63.335 -60.668 -94.002 -112.001s-46 -95 -46 -131c0 -15.333 3.33301 -28.666 10 -39.999s16.834 -20.333 30.501 -27s27 -12 40 -16s30.333 -6.83301 52 -8.5s38.667 -2.66699 51 -3
s29.5 -0.5 51.5 -0.5h13h37c8.66699 0 23.334 0.833008 44.001 2.5s37.667 4 51 7s29.166 7.83301 47.499 14.5s32.833 14.667 43.5 24s19.834 21.5 27.501 36.5s11.5 31.833 11.5 50.5c0 48 -12 84.5 -36 109.5s-64 42.833 -120 53.5zM248.994 775.997
c0 -24.667 1 -48.502 3 -71.502s7.16699 -49.667 15.5 -80s19.166 -56.333 32.499 -78s32.5 -40.167 57.5 -55.5s54.167 -23 87.5 -23s62.333 7.66699 87 23s43.667 34 57 56s24 48 32 78s13.167 56.667 15.5 80s3.5 47 3.5 71c0 23.333 -1 46.833 -3 70.5
s-7.16699 51.667 -15.5 84s-19 60.5 -32 84.5s-32 44.667 -57 62s-54.167 26 -87.5 26c-28 0 -53.167 -5.83301 -75.5 -17.5s-40.333 -27.5 -54 -47.5s-25.167 -41.167 -34.5 -63.5s-16.166 -46.666 -20.499 -72.999s-7.33301 -49.166 -9 -68.499s-2.5 -38.333 -2.5 -57z
" />
    <glyph glyph-name="Hcircumflex" unicode="&#x124;" horiz-adv-x="1126" 
d="M453 2238h213l153 -307h-110l-150 299l-149 -299h-113zM146 1721h152v-779h530v779h152v-1721h-152v836h-530v-836h-152v1721z" />
    <glyph glyph-name="Hbar" unicode="&#x126;" horiz-adv-x="1118" 
d="M140 1331h-40v94h40v296h152v-296h530v296h152v-296h40v-94h-40v-1331h-152v836h-530v-836h-152v1331zM822 942v389h-530v-389h530z" />
    <glyph glyph-name="hbar" unicode="&#x127;" horiz-adv-x="912" 
d="M154 1383l-122.999 0.000976562v115h123v223h150v-223h168v-115h-168v-298c30.667 47.333 67.5 82.5 110.5 105.5s87.5 34.5 133.5 34.5c62 0 116.5 -24.667 163.5 -74s70.5 -119 70.5 -209v-942h-152v934c0 52 -12.167 90.667 -36.5 116s-52.5 38 -84.5 38
s-66.333 -8.83301 -103 -26.5s-70.334 -40.834 -101.001 -69.501v-992h-151v1383z" />
    <glyph glyph-name="Itilde" unicode="&#x128;" horiz-adv-x="444" 
d="M-61 1899c0.666992 12.667 1.83301 24.9971 3.5 36.9971s6.5 27.833 14.5 47.5s18.167 36.334 30.5 50.001s30.5 25.834 54.5 36.501s52 16 84 16c18.667 0 50.167 -12.667 94.5 -38s74.5 -38 90.5 -38c19.333 0 34.333 4.83301 45 14.5s17.667 27.167 21 52.5h116
l-1 -14c-0.666992 -8.66699 -2.16699 -18.167 -4.5 -28.5s-5.66602 -22.5 -9.99902 -36.5s-11 -27.167 -20 -39.5s-19.667 -24 -32 -35s-28.5 -19.833 -48.5 -26.5s-42.667 -10 -68 -10s-59.833 13 -103.5 39s-73.5 39 -89.5 39c-18.667 0 -32.834 -4.66699 -42.501 -14
s-16.167 -26.666 -19.5 -51.999h-115zM144.999 1721h152v-1721h-152v1721z" />
    <glyph glyph-name="itilde" unicode="&#x129;" horiz-adv-x="405" 
d="M-94 1376c0.666992 12.667 1.83301 24.9971 3.5 36.9971s6.5 27.833 14.5 47.5s18.167 36.334 30.5 50.001s30.5 25.834 54.5 36.501s52 16 84 16c18.667 0 50.167 -12.667 94.5 -38s74.5 -38 90.5 -38c19.333 0 34.333 4.83301 45 14.5s17.667 27.167 21 52.5h116
l-1 -14c-0.666992 -8.66699 -2.16699 -18.167 -4.5 -28.5s-5.66602 -22.5 -9.99902 -36.5s-11 -27.167 -20 -39.5s-19.667 -24 -32 -35s-28.5 -19.833 -48.5 -26.5s-42.667 -10 -68 -10s-59.833 13 -103.5 39s-73.5 39 -89.5 39c-18.667 0 -32.834 -4.66699 -42.501 -14
s-16.167 -26.666 -19.5 -51.999h-115zM131.999 1198h150v-1198h-150v1198z" />
    <glyph glyph-name="Imacron" unicode="&#x12a;" horiz-adv-x="444" 
d="M3 1994h441v-115h-441v115zM145 1721h152v-1721h-152v1721z" />
    <glyph glyph-name="imacron" unicode="&#x12b;" horiz-adv-x="405" 
d="M-7 1472h441v-115h-441v115zM132 1198h150v-1198h-150v1198z" />
    <glyph glyph-name="Iogonek" unicode="&#x12e;" horiz-adv-x="444" 
d="M298 -358c-40.667 0 -73.999 0.835938 -99.999 2.50293s-51.5 5.16699 -76.5 10.5s-44.333 13 -58 23s-24.667 23.5 -33 40.5s-12.5 37.833 -12.5 62.5c0 46 18.167 90.167 54.5 132.5s69.833 71.166 100.5 86.499h69c-40.667 -36.667 -72.667 -71.834 -96 -105.501
s-35 -68.5 -35 -104.5c0 -8 0.5 -15.167 1.5 -21.5s3.16699 -12 6.5 -17l9 -13c2.66699 -3.66699 7.16699 -6.83398 13.5 -9.50098s11.666 -5 15.999 -7s11.5 -3.66699 21.5 -5s18 -2.33301 24 -3s15.5 -1.16699 28.5 -1.5s23.333 -0.5 31 -0.5h35.5v-70zM145.001 1721h152
v-1721h-152v1721z" />
    <glyph glyph-name="iogonek" unicode="&#x12f;" horiz-adv-x="405" 
d="M347 -358c-40.667 0 -73.999 0.835938 -99.999 2.50293s-51.5 5.16699 -76.5 10.5s-44.333 13 -58 23s-24.667 23.5 -33 40.5s-12.5 37.833 -12.5 62.5c0 46 18.167 90.167 54.5 132.5s69.833 71.166 100.5 86.499h69c-40.667 -36.667 -72.667 -71.834 -96 -105.501
s-35 -68.5 -35 -104.5c0 -8 0.5 -15.167 1.5 -21.5s3.16699 -12 6.5 -17l9 -13c2.66699 -3.66699 7.16699 -6.83398 13.5 -9.50098s11.666 -5 15.999 -7s11.5 -3.66699 21.5 -5s18 -2.33301 24 -3s15.5 -1.16699 28.5 -1.5s23.333 -0.5 31 -0.5h35.5v-70zM132.001 1198h150
v-1198h-150v1198zM132.001 1651h150v-179h-150v179z" />
    <glyph glyph-name="Idotaccent" unicode="&#x130;" horiz-adv-x="444" 
d="M126 2083h184v-179h-184v179zM145 1721h152v-1721h-152v1721z" />
    <glyph glyph-name="dotlessi" unicode="&#x131;" horiz-adv-x="405" 
d="M132 1198h150v-1198h-150v1198z" />
    <glyph glyph-name="IJ" unicode="&#x132;" horiz-adv-x="986" 
d="M442 115c34 0 60.332 0.170898 78.999 0.503906s38.5 2.16602 59.5 5.49902s36.333 7.16602 46 11.499s20 12.166 31 23.499s18.333 23.166 22 35.499s7.33398 30 11.001 53s5.83398 46.667 6.50098 71s1 55.833 1 94.5v1311h152v-1311c0 -52 -1.16699 -95 -3.5 -129
s-7.33301 -68 -15 -102s-18.834 -60.833 -33.501 -80.5s-34.167 -37.667 -58.5 -54s-54.5 -27.833 -90.5 -34.5s-78.667 -10 -128 -10h-79v115zM145.999 1721h152v-1721h-152v1721z" />
    <glyph glyph-name="ij" unicode="&#x133;" horiz-adv-x="405" 
d="M298 -204c15.333 -0.666992 27.668 -1.16699 37.001 -1.5s15.666 -0.5 18.999 -0.5c36 0 63.333 7.5 82 22.5s32 32.667 40 53s12.333 41 13 62s1 37.833 1 50.5v1216h150v-1244c0 -182.667 -87 -274 -261 -274c-25.333 0 -52.333 2.66699 -81 8v108zM490.002 1652h150
v-179h-150v179zM132.002 1198h150v-1198h-150v1198zM132.002 1651h150v-179h-150v179z" />
    <glyph glyph-name="Jcircumflex" unicode="&#x134;" horiz-adv-x="559" 
d="M234 2237h213l153 -307h-110l-150 299l-149 -299h-113zM12 115c34 0 60.332 0.170898 78.999 0.503906s38.5 2.16602 59.5 5.49902s36.333 7.16602 46 11.499s20 12.166 31 23.499s18.333 23.166 22 35.499s7.33398 30 11.001 53s5.83398 46.667 6.50098 71
s1 55.833 1 94.5v1311h152v-1311c0 -52 -1.16699 -95 -3.5 -129s-7.33301 -68 -15 -102s-18.834 -60.833 -33.501 -80.5s-34.167 -37.667 -58.5 -54s-54.5 -27.833 -90.5 -34.5s-78.667 -10 -128 -10h-79v115z" />
    <glyph glyph-name="jcircumflex" unicode="&#x135;" horiz-adv-x="410" 
d="M92 1715h213l153 -307h-110l-150 299l-149 -299h-113zM-72 -204c30.667 -1.33301 49.334 -2 56.001 -2c22 0 41.167 3 57.5 9s29.166 14.833 38.499 26.5s17 23.167 23 34.5s10 25.5 12 42.5s3.33301 30.167 4 39.5s1 21.333 1 36v1216h150v-1244
c0 -182.667 -87 -274 -261 -274c-26.667 0 -53.667 2.66699 -81 8v108z" />
    <glyph glyph-name="kcommaaccent" unicode="&#x137;" horiz-adv-x="870" 
d="M389 -467c21.333 8 39.666 20.668 54.999 38.001s26.333 36.666 33 57.999s11.334 40.5 14.001 57.5s4 32.833 4 47.5h-128v179h185v-23c0 -36.667 -0.166992 -63.5 -0.5 -80.5s-0.833008 -41.167 -1.5 -72.5s-2.33398 -54.833 -5.00098 -70.5l-10 -58
c-4 -23 -9.33301 -40.5 -16 -52.5s-14.667 -24.5 -24 -37.5s-20.666 -22.5 -33.999 -28.5s-28.333 -10 -45 -12zM120 1721h150v-1091l374 568h169l-287 -454l285 -744h-157l-235 653l-149 -183v-470h-150v1721z" />
    <glyph glyph-name="kgreenlandic" unicode="&#x138;" horiz-adv-x="880" 
d="M120 1198h150v-598l374 598h171l-295 -481l296 -717h-162l-243 619l-141 -199v-420h-150v1198z" />
    <glyph glyph-name="Ldotaccent" unicode="&#x13f;" horiz-adv-x="811" 
d="M493 969h184v-179h-184v179zM144 1721h152v-1599h481v-122h-633v1721z" />
    <glyph glyph-name="ldot" unicode="&#x140;" horiz-adv-x="791" 
d="M558 883h185v-179h-185v179zM146 1721h150v-1721h-150v1721z" />
    <glyph glyph-name="Lslash" unicode="&#x141;" horiz-adv-x="827" 
d="M183 859l-140 -53v115l140 53v747h152v-690l251 96v-115l-251 -96v-794h481v-122h-633v859z" />
    <glyph glyph-name="lslash" unicode="&#x142;" horiz-adv-x="530" 
d="M183 873l-140 -67v115l140 67v733h150v-660l136 66v-115l-136 -66v-946h-150v873z" />
    <glyph glyph-name="Nacute" unicode="&#x143;" horiz-adv-x="1083" 
d="M625 2246h162l-229 -398h-56zM146 1721h117l545 -1363v1363h129v-1721h-114l-546 1334v-1334h-131v1721z" />
    <glyph glyph-name="nacute" unicode="&#x144;" horiz-adv-x="878" 
d="M560 1722h162l-229 -398h-56zM120 1198l149.999 -0.000976562v-113c32 46.667 70.333 81.667 115 105s91 35 139 35c28.667 0 56.334 -6.33301 83.001 -19s50.5 -31 71.5 -55s37.833 -53.667 50.5 -89s19 -75.666 19 -120.999v-941h-152v944
c0 60 -11.667 103.333 -35 130s-54 40 -92 40c-32 0 -65.667 -10.667 -101 -32s-68 -51 -98 -89v-993h-150v1198z" />
    <glyph glyph-name="OE" unicode="&#x152;" horiz-adv-x="1499" 
d="M115 1220c0 334 146.333 501 439 501h887v-122h-448v-652h320v-115h-320v-710h448v-122h-887c-292.667 -0 -439 166.333 -439 499v721zM841 121v1478h-287c-54 0 -100.167 -8.66699 -138.5 -26s-68 -42.333 -89 -75s-36.167 -68.834 -45.5 -108.501
s-14 -84.834 -14 -135.501v-789c0 -227.333 95.667 -342 287 -344h287z" />
    <glyph glyph-name="oe" unicode="&#x153;" horiz-adv-x="1332" 
d="M108 630c0 53.333 0.331055 94.168 0.998047 122.501s2.83398 67 6.50098 116s9.33398 87.167 17.001 114.5s19.167 58.666 34.5 93.999s34.166 62.166 56.499 80.499s50.5 34.166 84.5 47.499s73 20 117 20c112 0 193 -40.333 243 -121c28 45.333 63 76.833 105 94.5
s92 26.5 150 26.5c107.333 0 184.5 -38 231.5 -114s70.5 -196 70.5 -360c0 -50 -0.666992 -91 -2 -123h-480v-183c0 -78.667 3.83301 -143.167 11.5 -193.5s19.834 -88.166 36.501 -113.499s35 -42.333 55 -51s45.333 -13 76 -13c103.333 0 156.333 93.667 159 281v12h140
c0 -0.666992 -0.166992 -2 -0.5 -4s-0.5 -3.33301 -0.5 -4c-4 -44.667 -9.33301 -84.5 -16 -119.5s-17.167 -69.833 -31.5 -104.5s-32 -63.334 -53 -86.001s-48 -41 -81 -55s-71.167 -21 -114.5 -21c-62 0 -113.667 8.83301 -155 26.5s-75 46.834 -101 87.501
c-50 -76 -131 -114 -243 -114c-34.667 0 -66.167 3.83301 -94.5 11.5s-52.833 17 -73.5 28s-39 27.333 -55 49s-29.167 41.5 -39.5 59.5s-19.166 43.333 -26.499 76s-12.833 60 -16.5 82s-6.33398 53.167 -8.00098 93.5s-2.66699 71.833 -3 94.5s-0.5 56.334 -0.5 101.001
v62zM257.998 568.002c0 -188 11 -317.332 33 -387.999s66.667 -106 134 -106s112 35.333 134 106s33 200 33 388v62c0 63.333 -0.666992 116.666 -2 159.999s-4.16602 84.833 -8.49902 124.5s-10.333 71.5 -18 95.5s-17.667 45.167 -30 63.5s-27.333 31.333 -45 39
s-38.834 11.5 -63.501 11.5s-45.834 -3.83301 -63.501 -11.5s-32.834 -20.667 -45.501 -39s-22.667 -39.333 -30 -63s-13.166 -55.667 -17.499 -96s-7.16602 -81.833 -8.49902 -124.5s-2 -96 -2 -160v-62zM1076 702.003l-0.0078125 16.001v55
c0 32.667 -0.333008 61.167 -1 85.5s-2.16699 51 -4.5 80s-6.66602 53.667 -12.999 74s-14.666 39.5 -24.999 57.5s-24.166 31.5 -41.499 40.5s-37.666 13.5 -60.999 13.5c-20 0 -38 -1.83301 -54 -5.5s-30.167 -8.33398 -42.5 -14.001s-23.166 -14.667 -32.499 -27
s-17.166 -23.833 -23.499 -34.5s-11.666 -26.167 -15.999 -46.5s-7.66602 -38.333 -9.99902 -54s-4 -37.667 -5 -66s-1.66699 -52.833 -2 -73.5s-0.5 -48.667 -0.5 -84v-17h332z" />
    <glyph glyph-name="Racute" unicode="&#x154;" horiz-adv-x="1078" 
d="M617 2246h162l-229 -398h-56zM146 1721l459 0.000976562c58 0 109 -8 153 -24s79.5 -37.167 106.5 -63.5s48.833 -59 65.5 -98s28.167 -79.333 34.5 -121s9.5 -87.834 9.5 -138.501c0 -219.333 -80 -358.333 -240 -417l266 -859h-162l-251 840h-289v-840h-152v1721z
M604 962.001c43.333 0 80.001 8.66602 110.001 25.999s52.5 42 67.5 74s25.5 65.333 31.5 100s9 74.334 9 119.001c0 36.667 -1.83301 69.667 -5.5 99s-10.334 58 -20.001 86s-22.5 51.5 -38.5 70.5s-37 34.167 -63 45.5s-56.333 17 -91 17h-306v-637h306z" />
    <glyph glyph-name="Rcommaaccent" unicode="&#x156;" horiz-adv-x="1078" 
d="M486 -467c21.333 8 39.666 20.668 54.999 38.001s26.333 36.666 33 57.999s11.334 40.5 14.001 57.5s4 32.833 4 47.5h-128v179h185v-23c0 -36.667 -0.166992 -63.5 -0.5 -80.5s-0.833008 -41.167 -1.5 -72.5s-2.33398 -54.833 -5.00098 -70.5l-10 -58
c-4 -23 -9.33301 -40.5 -16 -52.5s-14.667 -24.5 -24 -37.5s-20.666 -22.5 -33.999 -28.5s-28.333 -10 -45 -12zM146 1721l459 0.000976562c58 0 109 -8 153 -24s79.5 -37.167 106.5 -63.5s48.833 -59 65.5 -98s28.167 -79.333 34.5 -121s9.5 -87.834 9.5 -138.501
c0 -219.333 -80 -358.333 -240 -417l266 -859h-162l-251 840h-289v-840h-152v1721zM604 962.002c43.333 0 80.001 8.66602 110.001 25.999s52.5 42 67.5 74s25.5 65.333 31.5 100s9 74.334 9 119.001c0 36.667 -1.83301 69.667 -5.5 99s-10.334 58 -20.001 86
s-22.5 51.5 -38.5 70.5s-37 34.167 -63 45.5s-56.333 17 -91 17h-306v-637h306z" />
    <glyph glyph-name="rcommaaccent" unicode="&#x157;" horiz-adv-x="569" 
d="M204 -467c21.333 8 39.666 20.668 54.999 38.001s26.333 36.666 33 57.999s11.334 40.5 14.001 57.5s4 32.833 4 47.5h-128v179h185v-23c0 -36.667 -0.166992 -63.5 -0.5 -80.5s-0.833008 -41.167 -1.5 -72.5s-2.33398 -54.833 -5.00098 -70.5l-10 -58
c-4 -23 -9.33301 -40.5 -16 -52.5s-14.667 -24.5 -24 -37.5s-20.666 -22.5 -33.999 -28.5s-28.333 -10 -45 -12zM120 1198h149.999v-169c18.667 62 52.334 108.5 101.001 139.5s99 47.167 151 48.5h3v-151l-26 4c-152.667 0 -229 -58.667 -229 -176v-894h-150v1198z" />
    <glyph glyph-name="Rcaron" unicode="&#x158;" horiz-adv-x="1078" 
d="M309 2193h142l95 -237l95 237h142l-209 -347h-56zM146 1721l459 0.000976562c58 0 109 -8 153 -24s79.5 -37.167 106.5 -63.5s48.833 -59 65.5 -98s28.167 -79.333 34.5 -121s9.5 -87.834 9.5 -138.501c0 -219.333 -80 -358.333 -240 -417l266 -859h-162l-251 840h-289
v-840h-152v1721zM604 962.001c43.333 0 80.001 8.66602 110.001 25.999s52.5 42 67.5 74s25.5 65.333 31.5 100s9 74.334 9 119.001c0 36.667 -1.83301 69.667 -5.5 99s-10.334 58 -20.001 86s-22.5 51.5 -38.5 70.5s-37 34.167 -63 45.5s-56.333 17 -91 17h-306v-637h306z
" />
    <glyph glyph-name="rcaron" unicode="&#x159;" horiz-adv-x="569" 
d="M106 1671h142l95 -237l95 237h142l-209 -347h-56zM120 1198h149.999v-169c18.667 62 52.334 108.5 101.001 139.5s99 47.167 151 48.5h3v-151l-26 4c-152.667 0 -229 -58.667 -229 -176v-894h-150v1198z" />
    <glyph glyph-name="Sacute" unicode="&#x15a;" horiz-adv-x="987" 
d="M541 2246h162l-229 -398h-56zM215 454c5.33301 -46 14.8369 -90.665 28.5039 -133.998s32.834 -81.666 57.501 -114.999s55.167 -60 91.5 -80s79.5 -30 129.5 -30c78.667 0 139.167 21.333 181.5 64s63.5 104.334 63.5 185.001c0 32.667 -4.83301 64.667 -14.5 96
s-24.334 63 -44.001 95s-43.834 65.333 -72.501 100s-62 72 -100 112l-269 283c-58.667 61.333 -103.667 119.166 -135 173.499s-47 111.166 -47 170.499c0 56.667 9.83301 107.834 29.5 153.501s47.167 84.667 82.5 117s77.166 57.166 125.499 74.499
s101.166 26 158.499 26c228 0 364.333 -124.333 409 -373l3 -16l-128 -40l-2 14c-6 42 -16.833 80.833 -32.5 116.5s-35.5 66.5 -59.5 92.5s-52 46.5 -84 61.5s-67.333 22.5 -106 22.5c-76 0 -136.5 -19.333 -181.5 -58s-67.5 -95.667 -67.5 -171c0 -46 12 -90.667 36 -134
s59 -90 105 -140l355 -387c20.667 -20.667 40 -43 58 -67s34.167 -47.167 48.5 -69.5s26 -42.666 35 -60.999s14.833 -31.833 17.5 -40.5c5.33301 -19.333 10.833 -41.333 16.5 -66s8.5 -48.667 8.5 -72c0 -61.333 -10 -115.833 -30 -163.5s-48 -87.834 -84 -120.501
s-79 -57.5 -129 -74.5s-104.667 -25.5 -164 -25.5c-63.333 0 -119.333 12 -168 36s-90.5 56.167 -125.5 96.5s-63.333 87.166 -85 140.499s-36.834 109.666 -45.501 168.999z" />
    <glyph glyph-name="sacute" unicode="&#x15b;" horiz-adv-x="760" 
d="M441 1727h162l-229 -398h-56zM169 339c9.33301 -29.333 20.834 -57.6699 34.501 -85.0029s30.167 -54.666 49.5 -81.999s42.166 -49.333 68.499 -66s53.833 -25 82.5 -25c52.667 0 92.167 16 118.5 48s39.5 75.333 39.5 130c0 76.667 -68.333 175 -205 295l-87 76
c-66 58 -115.833 109.833 -149.5 155.5s-50.5 96.834 -50.5 153.501c0 90 27.333 159.833 82 209.5s127.667 74.5 219 74.5c43.333 0 82.666 -8.33301 117.999 -25s65 -39.834 89 -69.501s44.167 -61.667 60.5 -96s29.5 -72.166 39.5 -113.499l-133 -41
c-6 37.333 -15.5 72.666 -28.5 105.999s-33 63.5 -60 90.5s-57.833 40.5 -92.5 40.5c-44.667 0 -80.167 -15.167 -106.5 -45.5s-39.5 -69.5 -39.5 -117.5c0 -40 12.833 -78 38.5 -114s62.834 -74.667 111.501 -116l95 -82l70.5 -62.5c16.333 -15 37 -36.333 62 -64
s43.833 -52.667 56.5 -75s24.167 -49.166 34.5 -80.499s15.833 -63.333 16.5 -96c0 -89.333 -28.167 -159.833 -84.5 -211.5s-129.833 -77.5 -220.5 -77.5c-88 0 -161.5 30.833 -220.5 92.5s-100.167 139.834 -123.5 234.501z" />
    <glyph glyph-name="Scaron" unicode="&#x160;" horiz-adv-x="1018" 
d="M276 2193h142l95 -237l95 237h142l-209 -347h-56zM214 454c5.33301 -46 14.8369 -90.665 28.5039 -133.998s32.834 -81.666 57.501 -114.999s55.167 -60 91.5 -80s79.5 -30 129.5 -30c78.667 0 139.167 21.333 181.5 64s63.5 104.334 63.5 185.001
c0 32.667 -4.83301 64.667 -14.5 96s-24.334 63 -44.001 95s-43.834 65.333 -72.501 100s-62 72 -100 112l-269 283c-58.667 61.333 -103.667 119.166 -135 173.499s-47 111.166 -47 170.499c0 56.667 9.83301 107.834 29.5 153.501s47.167 84.667 82.5 117
s77.166 57.166 125.499 74.499s101.166 26 158.499 26c228 0 364.333 -124.333 409 -373l3 -16l-128 -40l-2 14c-6 42 -16.833 80.833 -32.5 116.5s-35.5 66.5 -59.5 92.5s-52 46.5 -84 61.5s-67.333 22.5 -106 22.5c-76 0 -136.5 -19.333 -181.5 -58
s-67.5 -95.667 -67.5 -171c0 -46 12 -90.667 36 -134s59 -90 105 -140l355 -387c20.667 -20.667 40 -43 58 -67s34.167 -47.167 48.5 -69.5s26 -42.666 35 -60.999s14.833 -31.833 17.5 -40.5c5.33301 -19.333 10.833 -41.333 16.5 -66s8.5 -48.667 8.5 -72
c0 -61.333 -10 -115.833 -30 -163.5s-48 -87.834 -84 -120.501s-79 -57.5 -129 -74.5s-104.667 -25.5 -164 -25.5c-63.333 0 -119.333 12 -168 36s-90.5 56.167 -125.5 96.5s-63.333 87.166 -85 140.499s-36.834 109.666 -45.501 168.999z" />
    <glyph glyph-name="scaron" unicode="&#x161;" horiz-adv-x="819" 
d="M172 1674h142l95 -237l95 237h142l-209 -347h-56zM177 339c9.33301 -29.333 20.834 -57.6699 34.501 -85.0029s30.167 -54.666 49.5 -81.999s42.166 -49.333 68.499 -66s53.833 -25 82.5 -25c52.667 0 92.167 16 118.5 48s39.5 75.333 39.5 130
c0 76.667 -68.333 175 -205 295l-87 76c-66 58 -115.833 109.833 -149.5 155.5s-50.5 96.834 -50.5 153.501c0 90 27.333 159.833 82 209.5s127.667 74.5 219 74.5c43.333 0 82.666 -8.33301 117.999 -25s65 -39.834 89 -69.501s44.167 -61.667 60.5 -96
s29.5 -72.166 39.5 -113.499l-133 -41c-6 37.333 -15.5 72.666 -28.5 105.999s-33 63.5 -60 90.5s-57.833 40.5 -92.5 40.5c-44.667 0 -80.167 -15.167 -106.5 -45.5s-39.5 -69.5 -39.5 -117.5c0 -40 12.833 -78 38.5 -114s62.834 -74.667 111.501 -116l95 -82l70.5 -62.5
c16.333 -15 37 -36.333 62 -64s43.833 -52.667 56.5 -75s24.167 -49.166 34.5 -80.499s15.833 -63.333 16.5 -96c0 -89.333 -28.167 -159.833 -84.5 -211.5s-129.833 -77.5 -220.5 -77.5c-88 0 -161.5 30.833 -220.5 92.5s-100.167 139.834 -123.5 234.501z" />
    <glyph glyph-name="Umacron" unicode="&#x16a;" horiz-adv-x="1145" 
d="M359 1994h441v-115h-441v115zM135 1721h152v-1333c0 -49.333 5.33301 -92.333 16 -129s27.667 -67.167 51 -91.5s53.5 -42.5 90.5 -54.5s82.167 -18 135.5 -18c100 0 171.333 24.333 214 73s64 122 64 220v1333h151v-1298c0 -300 -143 -450 -429 -450
c-88.667 0 -161.667 12.167 -219 36.5s-102.833 57 -136.5 98s-57 88.833 -70 143.5s-19.5 112 -19.5 172v1298z" />
    <glyph glyph-name="umacron" unicode="&#x16b;" horiz-adv-x="889" 
d="M221 1472h441v-115h-441v115zM126 1198h152v-944c0 -59.333 11.667 -102.5 35 -129.5s54 -40.5 92 -40.5c31.333 0 64.833 10.833 100.5 32.5s68.5 51.167 98.5 88.5v993h150v-1198h-150v113c-32 -46.667 -70.333 -81.667 -115 -105s-91 -35 -139 -35
c-59.333 0 -111.5 24.833 -156.5 74.5s-67.5 119.5 -67.5 209.5v941z" />
    <glyph glyph-name="Uogonek" unicode="&#x172;" horiz-adv-x="1145" 
d="M706 -358c-40.667 0 -73.999 0.835938 -99.999 2.50293s-51.5 5.16699 -76.5 10.5s-44.333 13 -58 23s-24.667 23.5 -33 40.5s-12.5 37.833 -12.5 62.5c0 46 18.167 90.167 54.5 132.5s69.833 71.166 100.5 86.499h69c-40.667 -36.667 -72.667 -71.834 -96 -105.501
s-35 -68.5 -35 -104.5c0 -8 0.5 -15.167 1.5 -21.5s3.16699 -12 6.5 -17l9 -13c2.66699 -3.66699 7.16699 -6.83398 13.5 -9.50098s11.666 -5 15.999 -7s11.5 -3.66699 21.5 -5s18 -2.33301 24 -3s15.5 -1.16699 28.5 -1.5s23.333 -0.5 31 -0.5h35.5v-70zM135.001 1721h152
v-1333c0 -49.333 5.33301 -92.333 16 -129s27.667 -67.167 51 -91.5s53.5 -42.5 90.5 -54.5s82.167 -18 135.5 -18c100 0 171.333 24.333 214 73s64 122 64 220v1333h151v-1298c0 -300 -143 -450 -429 -450c-88.667 0 -161.667 12.167 -219 36.5s-102.833 57 -136.5 98
s-57 88.833 -70 143.5s-19.5 112 -19.5 172v1298z" />
    <glyph glyph-name="uogonek" unicode="&#x173;" horiz-adv-x="889" 
d="M803 -358c-40.667 0 -73.999 0.835938 -99.999 2.50293s-51.5 5.16699 -76.5 10.5s-44.333 13 -58 23s-24.667 23.5 -33 40.5s-12.5 37.833 -12.5 62.5c0 46 18.167 90.167 54.5 132.5s69.833 71.166 100.5 86.499h69c-40.667 -36.667 -72.667 -71.834 -96 -105.501
s-35 -68.5 -35 -104.5c0 -8 0.5 -15.167 1.5 -21.5s3.16699 -12 6.5 -17l9 -13c2.66699 -3.66699 7.16699 -6.83398 13.5 -9.50098s11.666 -5 15.999 -7s11.5 -3.66699 21.5 -5s18 -2.33301 24 -3s15.5 -1.16699 28.5 -1.5s23.333 -0.5 31 -0.5h35.5v-70zM126.001 1198h152
v-944c0 -59.333 11.667 -102.5 35 -129.5s54 -40.5 92 -40.5c31.333 0 64.833 10.833 100.5 32.5s68.5 51.167 98.5 88.5v993h150v-1198h-150v113c-32 -46.667 -70.333 -81.667 -115 -105s-91 -35 -139 -35c-59.333 0 -111.5 24.833 -156.5 74.5s-67.5 119.5 -67.5 209.5
v941z" />
    <glyph glyph-name="Ydieresis" unicode="&#x178;" horiz-adv-x="888" 
d="M216 2087h184v-179h-184v179zM600 2087h184v-179h-184v179zM374 534l-376 1187h169l282 -1032l95 348l91 335.5l96 348.5h159l-364 -1187v-534h-152v534z" />
    <glyph glyph-name="Zacute" unicode="&#x179;" horiz-adv-x="897" 
d="M543 2246h162l-229 -398h-56zM68 141l605 1458h-541v122h697v-141l-605 -1458h605v-122h-761v141z" />
    <glyph glyph-name="zacute" unicode="&#x17a;" horiz-adv-x="731" 
d="M481 1723h162l-229 -398h-56zM68 144l472 940h-408v114h549v-143l-461 -940h455v-115h-607v144z" />
    <glyph glyph-name="Zdotaccent" unicode="&#x17b;" horiz-adv-x="901" 
d="M380 2083h184v-179h-184v179zM68 141l605 1458h-541v122h697v-141l-605 -1458h605v-122h-761v141z" />
    <glyph glyph-name="zdotaccent" unicode="&#x17c;" horiz-adv-x="788" 
d="M326 1560h184v-179h-184v179zM76 144l472 940h-408v114h549v-143l-461 -940h455v-115h-607v144z" />
    <glyph glyph-name="Zcaron" unicode="&#x17d;" horiz-adv-x="899" 
d="M235 2193h142l95 -237l95 237h142l-209 -347h-56zM62 141l605 1458h-541v122h697v-141l-605 -1458h605v-122h-761v141z" />
    <glyph glyph-name="zcaron" unicode="&#x17e;" horiz-adv-x="784" 
d="M194 1671h142l95 -237l95 237h142l-209 -347h-56zM72 144l472 940h-408v114h549v-143l-461 -940h455v-115h-607v144z" />
    <glyph glyph-name="florin" unicode="&#x192;" horiz-adv-x="571" 
d="M-14 -272c16 -4 40.667 -6 74 -6c22 0 40.667 3.33301 56 10s26.833 14 34.5 22s13.5 20 17.5 36s6.16699 29 6.5 39s0.5 24.333 0.5 43v8v1234h-167v84h167v169c0 27.333 0.833008 51.5 2.5 72.5s6.66699 45.667 15 74s19.833 51.833 34.5 70.5s36 34.667 64 48
s61.667 20 101 20c46 0 86.667 -4.33301 122 -13v-109c-16 4 -40.667 6 -74 6c-22 0 -40.667 -3.33301 -56 -10s-26.833 -14 -34.5 -22s-13.5 -20 -17.5 -36s-6.16699 -29 -6.5 -39s-0.5 -24.333 -0.5 -43v-8v-180h192v-84h-192v-1224c0 -27.333 -0.833008 -51.333 -2.5 -72
s-6.66699 -45.334 -15 -74.001s-19.833 -52.167 -34.5 -70.5s-36 -34.166 -64 -47.499s-61.667 -20 -101 -20c-46 0 -86.667 4.33301 -122 13v109z" />
    <glyph glyph-name="uni01C4" unicode="&#x1c4;" horiz-adv-x="1707" 
 />
    <glyph glyph-name="uni01C5" unicode="&#x1c5;" horiz-adv-x="1822" 
d="M308 2194h142l95 -237l95 237h142l-209 -347h-56zM1159 144l472 940h-408v114h549v-143l-461 -940h455v-115h-607v144zM533 122c191.333 0 287 117.333 287 352v768c0 238 -95.667 357 -287 357h-235v-1477h235zM146 1721l387 -0.000976562c84 0 154 -13.5 210 -40.5
s101 -63.667 135 -110s58.167 -100.666 72.5 -162.999s21.5 -128.833 21.5 -199.5v-700c0 -338.667 -146.333 -508 -439 -508h-387v1721z" />
    <glyph glyph-name="uni01C6" unicode="&#x1c6;" horiz-adv-x="1707" 
 />
    <glyph glyph-name="uni01C7" unicode="&#x1c7;" horiz-adv-x="1342" 
d="M795 115c34 0 60.332 0.170898 78.999 0.503906s38.5 2.16602 59.5 5.49902s36.333 7.16602 46 11.499s20 12.166 31 23.499s18.333 23.166 22 35.499s7.33398 30 11.001 53s5.83398 46.667 6.50098 71s1 55.833 1 94.5v1311h152v-1311c0 -52 -1.16699 -95 -3.5 -129
s-7.33301 -68 -15 -102s-18.834 -60.833 -33.501 -80.5s-34.167 -37.667 -58.5 -54s-54.5 -27.833 -90.5 -34.5s-78.667 -10 -128 -10h-79v115zM145.999 1721h152v-1599h481v-122h-633v1721z" />
    <glyph glyph-name="uni01C8" unicode="&#x1c8;" horiz-adv-x="1203" 
d="M715 -204c15.333 -0.666992 27.668 -1.16699 37.001 -1.5s15.666 -0.5 18.999 -0.5c36 0 63.333 7.5 82 22.5s32 32.667 40 53s12.333 41 13 62s1 37.833 1 50.5v1216h150v-1244c0 -182.667 -87 -274 -261 -274c-25.333 0 -52.333 2.66699 -81 8v108zM907.002 1652h150
v-179h-150v179zM146.002 1721h152v-1599h481v-122h-633v1721z" />
    <glyph glyph-name="uni01C9" unicode="&#x1c9;" horiz-adv-x="862" 
d="M374 -204c15.333 -0.666992 27.668 -1.16699 37.001 -1.5s15.666 -0.5 18.999 -0.5c36 0 63.333 7.5 82 22.5s32 32.667 40 53s12.333 41 13 62s1 37.833 1 50.5v1216h150v-1244c0 -182.667 -87 -274 -261 -274c-25.333 0 -52.333 2.66699 -81 8v108zM566.002 1652h150
v-179h-150v179zM150.002 1721h150v-1721h-150v1721z" />
    <glyph glyph-name="uni01CA" unicode="&#x1ca;" horiz-adv-x="1642" 
d="M1095 115c34 0 60.332 0.170898 78.999 0.503906s38.5 2.16602 59.5 5.49902s36.333 7.16602 46 11.499s20 12.166 31 23.499s18.333 23.166 22 35.499s7.33398 30 11.001 53s5.83398 46.667 6.50098 71s1 55.833 1 94.5v1311h152v-1311c0 -52 -1.16699 -95 -3.5 -129
s-7.33301 -68 -15 -102s-18.834 -60.833 -33.501 -80.5s-34.167 -37.667 -58.5 -54s-54.5 -27.833 -90.5 -34.5s-78.667 -10 -128 -10h-79v115zM145.999 1721h117l545 -1363v1363h129v-1721h-114l-546 1334v-1334h-131v1721z" />
    <glyph glyph-name="uni01CB" unicode="&#x1cb;" horiz-adv-x="1503" 
d="M1015 -204c15.333 -0.666992 27.668 -1.16699 37.001 -1.5s15.666 -0.5 18.999 -0.5c36 0 63.333 7.5 82 22.5s32 32.667 40 53s12.333 41 13 62s1 37.833 1 50.5v1216h150v-1244c0 -182.667 -87 -274 -261 -274c-25.333 0 -52.333 2.66699 -81 8v108zM1207 1652h150
v-179h-150v179zM146.002 1721h117l545 -1363v1363h129v-1721h-114l-546 1334v-1334h-131v1721z" />
    <glyph glyph-name="uni01CC" unicode="&#x1cc;" horiz-adv-x="1298" 
d="M810 -204c15.333 -0.666992 27.668 -1.16699 37.001 -1.5s15.666 -0.5 18.999 -0.5c36 0 63.333 7.5 82 22.5s32 32.667 40 53s12.333 41 13 62s1 37.833 1 50.5v1216h150v-1244c0 -182.667 -87 -274 -261 -274c-25.333 0 -52.333 2.66699 -81 8v108zM1002 1652h150v-179
h-150v179zM120.002 1198l149.999 -0.000976562v-113c32 46.667 70.333 81.667 115 105s91 35 139 35c28.667 0 56.334 -6.33301 83.001 -19s50.5 -31 71.5 -55s37.833 -53.667 50.5 -89s19 -75.666 19 -120.999v-941h-152v944c0 60 -11.667 103.333 -35 130s-54 40 -92 40
c-32 0 -65.667 -10.667 -101 -32s-68 -51 -98 -89v-993h-150v1198z" />
    <glyph glyph-name="DZ" unicode="&#x1f1;" horiz-adv-x="2018" 
d="M1192 141l605 1458h-541v122h697v-141l-605 -1458h605v-122h-761v141zM533 122c191.333 0 287 117.333 287 352v768c0 238 -95.667 357 -287 357h-235v-1477h235zM146 1721l387 -0.000976562c84 0 154 -13.5 210 -40.5s101 -63.667 135 -110
s58.167 -100.666 72.5 -162.999s21.5 -128.833 21.5 -199.5v-700c0 -338.667 -146.333 -508 -439 -508h-387v1721z" />
    <glyph glyph-name="Dz" unicode="&#x1f2;" horiz-adv-x="1861" 
d="M1151 144l472 940h-408v114h549v-143l-461 -940h455v-115h-607v144zM533 122c191.333 0 287 117.333 287 352v768c0 238 -95.667 357 -287 357h-235v-1477h235zM146 1721l387 -0.000976562c84 0 154 -13.5 210 -40.5s101 -63.667 135 -110s58.167 -100.666 72.5 -162.999
s21.5 -128.833 21.5 -199.5v-700c0 -338.667 -146.333 -508 -439 -508h-387v1721z" />
    <glyph glyph-name="uni0200" unicode="&#x200;" horiz-adv-x="980" 
d="M402 2245h160l106 -313h-59zM171 2245h160l106 -313h-59zM51 0l170.5 863.5l169.5 857.5h198l340 -1721h-154l-86 448h-397l-88 -448h-153zM670 549l-181 1014l-179 -1014h360z" />
    <glyph glyph-name="uni0201" unicode="&#x201;" 
d="M316 1721h160l106 -313h-59zM85 1721h160l106 -313h-59zM564 145c-32 -56 -71.4961 -98.668 -118.496 -128.001s-91.833 -44 -134.5 -44c-62 0 -117 24.5 -165 73.5s-72 113.167 -72 192.5c0 21.333 0.333008 38.5 1 51.5s2.5 29.833 5.5 50.5s7.33301 38 13 52
s14 31.167 25 51.5s24.5 38.333 40.5 54s36 33.667 60 54s51.667 39.666 83 57.999s68.166 38 110.499 59s89.166 42.167 140.499 63.5v10c0 68 -3 126.167 -9 174.5s-13.333 85.666 -22 111.999s-19.834 46.833 -33.501 61.5s-26.5 23.834 -38.5 27.501
s-26.667 5.5 -44 5.5c-18 0 -34 -2.5 -48 -7.5s-29 -14.667 -45 -29s-29.333 -37.666 -40 -69.999s-17.334 -72.833 -20.001 -121.5v-7h-156c8 104.667 38.833 186.834 92.5 246.501s124.167 89.5 211.5 89.5c48.667 0 91.667 -7.83301 129 -23.5s66.833 -35.667 88.5 -60
s39.167 -53.5 52.5 -87.5s22.333 -67 27 -99s7 -66.333 7 -103v-576c0 -94 6 -186 18 -276h-140zM553.004 665.999l-115 -81.998c-28 -20.667 -57.5 -44.834 -88.5 -72.501s-54.333 -52.834 -70 -75.501s-28.667 -48.5 -39 -77.5s-15.5 -59.5 -15.5 -91.5
c0 -57.333 12 -99.833 36 -127.5s52.333 -41.5 85 -41.5c38 0 76.5 13.667 115.5 41s69.5 62.333 91.5 105v422z" />
    <glyph glyph-name="uni0202" unicode="&#x202;" horiz-adv-x="980" 
d="M212 1835c2 51.333 12.1611 95.5 30.4941 132.5s41.833 64.833 70.5 83.5s57.334 32 86.001 40s58.334 12 89.001 12s60.334 -4 89.001 -12s57.334 -21.333 86.001 -40s52.167 -46.5 70.5 -83.5s28.5 -81.167 30.5 -132.5h-111
c-9.33301 62.667 -28.166 104.834 -56.499 126.501s-64.5 32.5 -108.5 32.5s-80.167 -10.833 -108.5 -32.5s-47.166 -63.834 -56.499 -126.501h-111zM50.9941 0l170.5 863.5l169.5 857.5h198l340 -1721h-154l-86 448h-397l-88 -448h-153zM669.994 549l-181 1014l-179 -1014
h360z" />
    <glyph glyph-name="uni0203" unicode="&#x203;" 
d="M126 1312c2 51.333 12.1611 95.5 30.4941 132.5s41.833 64.833 70.5 83.5s57.334 32 86.001 40s58.334 12 89.001 12s60.334 -4 89.001 -12s57.334 -21.333 86.001 -40s52.167 -46.5 70.5 -83.5s28.5 -81.167 30.5 -132.5h-111
c-9.33301 62.667 -28.166 104.834 -56.499 126.501s-64.5 32.5 -108.5 32.5s-80.167 -10.833 -108.5 -32.5s-47.166 -63.834 -56.499 -126.501h-111zM563.994 145c-32 -56 -71.4961 -98.668 -118.496 -128.001s-91.833 -44 -134.5 -44c-62 0 -117 24.5 -165 73.5
s-72 113.167 -72 192.5c0 21.333 0.333008 38.5 1 51.5s2.5 29.833 5.5 50.5s7.33301 38 13 52s14 31.167 25 51.5s24.5 38.333 40.5 54s36 33.667 60 54s51.667 39.666 83 57.999s68.166 38 110.499 59s89.166 42.167 140.499 63.5v10c0 68 -3 126.167 -9 174.5
s-13.333 85.666 -22 111.999s-19.834 46.833 -33.501 61.5s-26.5 23.834 -38.5 27.501s-26.667 5.5 -44 5.5c-18 0 -34 -2.5 -48 -7.5s-29 -14.667 -45 -29s-29.333 -37.666 -40 -69.999s-17.334 -72.833 -20.001 -121.5v-7h-156c8 104.667 38.833 186.834 92.5 246.501
s124.167 89.5 211.5 89.5c48.667 0 91.667 -7.83301 129 -23.5s66.833 -35.667 88.5 -60s39.167 -53.5 52.5 -87.5s22.333 -67 27 -99s7 -66.333 7 -103v-576c0 -94 6 -186 18 -276h-140zM552.998 665.999l-115 -81.998c-28 -20.667 -57.5 -44.834 -88.5 -72.501
s-54.333 -52.834 -70 -75.501s-28.667 -48.5 -39 -77.5s-15.5 -59.5 -15.5 -91.5c0 -57.333 12 -99.833 36 -127.5s52.333 -41.5 85 -41.5c38 0 76.5 13.667 115.5 41s69.5 62.333 91.5 105v422z" />
    <glyph glyph-name="uni0204" unicode="&#x204;" horiz-adv-x="807" 
d="M353 2245h160l106 -313h-59zM122 2245h160l106 -313h-59zM146 1721h600v-122h-448v-652h320v-115h-320v-710h448v-122h-600v1721z" />
    <glyph glyph-name="uni0205" unicode="&#x205;" horiz-adv-x="839" 
d="M354 1721h160l106 -313h-59zM123 1721h160l106 -313h-59zM440 1225c45.333 0 84.333 -6.66504 117 -19.998s60.167 -31.5 82.5 -54.5s40.333 -50 54 -81s24 -64 31 -99s11.667 -71.333 14 -109s3.5 -74.5 3.5 -110.5c0 -20.667 -0.166992 -41.167 -0.5 -61.5
s-0.833008 -40.833 -1.5 -61.5h-480v-183c0 -23.333 0.333008 -52.166 1 -86.499s3.83398 -68.833 9.50098 -103.5s14.667 -66.834 27 -96.501s30.166 -51.5 53.499 -65.5c13.333 -8 27.5 -13.167 42.5 -15.5s30.167 -3.5 45.5 -3.5c35.333 0 63.5 10.333 84.5 31
s37 46 48 76s18.167 62 21.5 96s5 64 5 90h140v-6c0 -17.333 -1.5 -35.333 -4.5 -54s-6.16699 -36.667 -9.5 -54c-7.33301 -40.667 -17.833 -78 -31.5 -112s-31.5 -63.5 -53.5 -88.5s-49.167 -44.5 -81.5 -58.5s-71.166 -21 -116.499 -21
c-72.667 0 -130.834 12.667 -174.501 38s-77.167 62.5 -100.5 111.5s-38.666 109.5 -45.999 181.5s-11 154.667 -11 248c0 28 0.166992 55.833 0.5 83.5s0.5 55.5 0.5 83.5c0 37.333 1.5 79.166 4.5 125.499s10 91.833 21 136.5s27.5 86 49.5 124s52 67 90 87
c25.333 13.333 52.166 22.166 80.499 26.499s56.5 6.5 84.5 6.5zM593 702.002l-0.000976562 1.99609v74.5c0 24.333 -0.333008 49.166 -1 74.499c-0.666992 24.667 -2.16699 52.834 -4.5 84.501s-8.16602 61.167 -17.499 88.5s-23.5 50.5 -42.5 69.5
s-45.833 28.5 -80.5 28.5c-46 0 -81.667 -9.33301 -107 -28s-43.833 -42.667 -55.5 -72s-18.667 -62.166 -21 -98.499s-3.5 -72.166 -3.5 -107.499c0 -19.333 0.166992 -38.666 0.5 -57.999s0.5 -38.666 0.5 -57.999h332z" />
    <glyph glyph-name="uni0206" unicode="&#x206;" horiz-adv-x="807" 
d="M163 1835c2 51.333 12.1611 95.5 30.4941 132.5s41.833 64.833 70.5 83.5s57.334 32 86.001 40s58.334 12 89.001 12s60.334 -4 89.001 -12s57.334 -21.333 86.001 -40s52.167 -46.5 70.5 -83.5s28.5 -81.167 30.5 -132.5h-111
c-9.33301 62.667 -28.166 104.834 -56.499 126.501s-64.5 32.5 -108.5 32.5s-80.167 -10.833 -108.5 -32.5s-47.166 -63.834 -56.499 -126.501h-111zM145.994 1721h600v-122h-448v-652h320v-115h-320v-710h448v-122h-600v1721z" />
    <glyph glyph-name="uni0207" unicode="&#x207;" horiz-adv-x="839" 
d="M164 1312c2 51.333 12.1611 95.5 30.4941 132.5s41.833 64.833 70.5 83.5s57.334 32 86.001 40s58.334 12 89.001 12s60.334 -4 89.001 -12s57.334 -21.333 86.001 -40s52.167 -46.5 70.5 -83.5s28.5 -81.167 30.5 -132.5h-111
c-9.33301 62.667 -28.166 104.834 -56.499 126.501s-64.5 32.5 -108.5 32.5s-80.167 -10.833 -108.5 -32.5s-47.166 -63.834 -56.499 -126.501h-111zM439.994 1225c45.333 0 84.333 -6.66504 117 -19.998s60.167 -31.5 82.5 -54.5s40.333 -50 54 -81s24 -64 31 -99
s11.667 -71.333 14 -109s3.5 -74.5 3.5 -110.5c0 -20.667 -0.166992 -41.167 -0.5 -61.5s-0.833008 -40.833 -1.5 -61.5h-480v-183c0 -23.333 0.333008 -52.166 1 -86.499s3.83398 -68.833 9.50098 -103.5s14.667 -66.834 27 -96.501s30.166 -51.5 53.499 -65.5
c13.333 -8 27.5 -13.167 42.5 -15.5s30.167 -3.5 45.5 -3.5c35.333 0 63.5 10.333 84.5 31s37 46 48 76s18.167 62 21.5 96s5 64 5 90h140v-6c0 -17.333 -1.5 -35.333 -4.5 -54s-6.16699 -36.667 -9.5 -54c-7.33301 -40.667 -17.833 -78 -31.5 -112s-31.5 -63.5 -53.5 -88.5
s-49.167 -44.5 -81.5 -58.5s-71.166 -21 -116.499 -21c-72.667 0 -130.834 12.667 -174.501 38s-77.167 62.5 -100.5 111.5s-38.666 109.5 -45.999 181.5s-11 154.667 -11 248c0 28 0.166992 55.833 0.5 83.5s0.5 55.5 0.5 83.5c0 37.333 1.5 79.166 4.5 125.499
s10 91.833 21 136.5s27.5 86 49.5 124s52 67 90 87c25.333 13.333 52.166 22.166 80.499 26.499s56.5 6.5 84.5 6.5zM592.994 702.002l-0.000976562 1.99609v74.5c0 24.333 -0.333008 49.166 -1 74.499c-0.666992 24.667 -2.16699 52.834 -4.5 84.501
s-8.16602 61.167 -17.499 88.5s-23.5 50.5 -42.5 69.5s-45.833 28.5 -80.5 28.5c-46 0 -81.667 -9.33301 -107 -28s-43.833 -42.667 -55.5 -72s-18.667 -62.166 -21 -98.499s-3.5 -72.166 -3.5 -107.499c0 -19.333 0.166992 -38.666 0.5 -57.999s0.5 -38.666 0.5 -57.999
h332z" />
    <glyph glyph-name="uni0208" unicode="&#x208;" horiz-adv-x="444" 
d="M135 2245h160l106 -313h-59zM-96 2245h160l106 -313h-59zM145 1721h152v-1721h-152v1721z" />
    <glyph glyph-name="uni0209" unicode="&#x209;" horiz-adv-x="405" 
d="M125 1722h160l106 -313h-59zM-106 1722h160l106 -313h-59zM132 1198h150v-1198h-150v1198z" />
    <glyph glyph-name="uni020A" unicode="&#x20a;" horiz-adv-x="444" 
d="M-55 1835c2 51.333 12.1611 95.5 30.4941 132.5s41.833 64.833 70.5 83.5s57.334 32 86.001 40s58.334 12 89.001 12s60.334 -4 89.001 -12s57.334 -21.333 86.001 -40s52.167 -46.5 70.5 -83.5s28.5 -81.167 30.5 -132.5h-111
c-9.33301 62.667 -28.166 104.834 -56.499 126.501s-64.5 32.5 -108.5 32.5s-80.167 -10.833 -108.5 -32.5s-47.166 -63.834 -56.499 -126.501h-111zM144.994 1721h152v-1721h-152v1721z" />
    <glyph glyph-name="uni020B" unicode="&#x20b;" horiz-adv-x="405" 
d="M132 1198h150v-1198h-150v1198zM-72 1313c2 51.333 12.1611 95.5 30.4941 132.5s41.833 64.833 70.5 83.5s57.334 32 86.001 40s58.334 12 89.001 12s60.334 -4 89.001 -12s57.334 -21.333 86.001 -40s52.167 -46.5 70.5 -83.5s28.5 -81.167 30.5 -132.5h-111
c-9.33301 62.667 -28.166 104.834 -56.499 126.501s-64.5 32.5 -108.5 32.5s-80.167 -10.833 -108.5 -32.5s-47.166 -63.834 -56.499 -126.501h-111z" />
    <glyph glyph-name="uni020C" unicode="&#x20c;" horiz-adv-x="1116" 
d="M471 2245h160l106 -313h-59zM240 2245h160l106 -313h-59zM845 1254c0 246 -95.667 369 -287 369s-287 -123 -287 -369v-789c0 -246.667 95.667 -370 287 -370s287 123.333 287 370v789zM119 1220c0 72.667 7.16895 141 21.502 205s38.5 119.667 72.5 167
s79.167 84.666 135.5 111.999s126.166 41 209.499 41s153.166 -13.667 209.499 -41s101.5 -64.666 135.5 -111.999s58.167 -103 72.5 -167s21.5 -132.333 21.5 -205v-721c0 -350.667 -146.333 -526 -439 -526s-439 175.333 -439 526v721z" />
    <glyph glyph-name="uni020D" unicode="&#x20d;" horiz-adv-x="850" 
d="M338 1722h160l106 -313h-59zM107 1722h160l106 -313h-59zM258 568c0 -33.333 0.332031 -66.333 0.999023 -99s2 -65.667 4 -99c0.666992 -18.667 1.83398 -38.834 3.50098 -60.501s4.33398 -43.5 8.00098 -65.5s8.83398 -43.167 15.501 -63.5s15.834 -38.5 27.501 -54.5
s26.167 -28.667 43.5 -38s38.666 -14 63.999 -14s46.666 4.66699 63.999 14s31.833 22 43.5 38s20.834 34.167 27.501 54.5s11.834 41.5 15.501 63.5s6.16699 43.833 7.5 65.5s2.66602 41.834 3.99902 60.501c2 33.333 3.33301 66.333 4 99s1 65.667 1 99v62
c0 36.667 -0.333008 73.167 -1 109.5s-2 72.833 -4 109.5c-2 27.333 -4.66699 57 -8 89s-10.333 61.833 -21 89.5s-26.334 50.667 -47.001 69s-49.334 27.5 -86.001 27.5c-36 0 -64.5 -8.83301 -85.5 -26.5s-36.833 -40 -47.5 -67s-17.667 -56.333 -21 -88
s-6 -61.167 -8 -88.5c-2.66699 -38 -4.16699 -75.333 -4.5 -112s-0.5 -74 -0.5 -112v-62zM106.999 709c0 66.667 3.33496 130.999 10.002 192.999s21 117 43 165s54 86.333 96 115s98.333 43 169 43c51.333 0 94.666 -7.83301 129.999 -23.5s64.833 -37.5 88.5 -65.5
s42 -60.833 55 -98.5s22.833 -78.667 29.5 -123s10.667 -90.666 12 -138.999s2 -96.833 2 -145.5v-145c0 -38.667 -0.833008 -78.167 -2.5 -118.5s-5.83398 -79.333 -12.501 -117s-16.5 -73.334 -29.5 -107.001s-31.333 -63 -55 -88s-53.167 -44.833 -88.5 -59.5
s-78.333 -22 -129 -22c-50 0 -92.5 6.83301 -127.5 20.5s-64.167 32.334 -87.5 56.001s-41.5 51.5 -54.5 83.5s-23 66.333 -30 103s-11.5 74.667 -13.5 114s-3.33301 78.333 -4 117c-0.666992 40 -1 80.167 -1 120.5v121.5z" />
    <glyph glyph-name="uni020E" unicode="&#x20e;" horiz-adv-x="1116" 
d="M281 1835c2 51.333 12.1611 95.5 30.4941 132.5s41.833 64.833 70.5 83.5s57.334 32 86.001 40s58.334 12 89.001 12s60.334 -4 89.001 -12s57.334 -21.333 86.001 -40s52.167 -46.5 70.5 -83.5s28.5 -81.167 30.5 -132.5h-111
c-9.33301 62.667 -28.166 104.834 -56.499 126.501s-64.5 32.5 -108.5 32.5s-80.167 -10.833 -108.5 -32.5s-47.166 -63.834 -56.499 -126.501h-111zM844.994 1254c0 246 -95.667 369 -287 369s-287 -123 -287 -369v-789c0 -246.667 95.667 -370 287 -370
s287 123.333 287 370v789zM118.994 1220c0 72.667 7.16895 141 21.502 205s38.5 119.667 72.5 167s79.167 84.666 135.5 111.999s126.166 41 209.499 41s153.166 -13.667 209.499 -41s101.5 -64.666 135.5 -111.999s58.167 -103 72.5 -167s21.5 -132.333 21.5 -205v-721
c0 -350.667 -146.333 -526 -439 -526s-439 175.333 -439 526v721z" />
    <glyph glyph-name="uni020F" unicode="&#x20f;" horiz-adv-x="850" 
d="M148 1313c2 51.333 12.1611 95.5 30.4941 132.5s41.833 64.833 70.5 83.5s57.334 32 86.001 40s58.334 12 89.001 12s60.334 -4 89.001 -12s57.334 -21.333 86.001 -40s52.167 -46.5 70.5 -83.5s28.5 -81.167 30.5 -132.5h-111
c-9.33301 62.667 -28.166 104.834 -56.499 126.501s-64.5 32.5 -108.5 32.5s-80.167 -10.833 -108.5 -32.5s-47.166 -63.834 -56.499 -126.501h-111zM257.994 568c0 -33.333 0.332031 -66.333 0.999023 -99s2 -65.667 4 -99
c0.666992 -18.667 1.83398 -38.834 3.50098 -60.501s4.33398 -43.5 8.00098 -65.5s8.83398 -43.167 15.501 -63.5s15.834 -38.5 27.501 -54.5s26.167 -28.667 43.5 -38s38.666 -14 63.999 -14s46.666 4.66699 63.999 14s31.833 22 43.5 38s20.834 34.167 27.501 54.5
s11.834 41.5 15.501 63.5s6.16699 43.833 7.5 65.5s2.66602 41.834 3.99902 60.501c2 33.333 3.33301 66.333 4 99s1 65.667 1 99v62c0 36.667 -0.333008 73.167 -1 109.5s-2 72.833 -4 109.5c-2 27.333 -4.66699 57 -8 89s-10.333 61.833 -21 89.5
s-26.334 50.667 -47.001 69s-49.334 27.5 -86.001 27.5c-36 0 -64.5 -8.83301 -85.5 -26.5s-36.833 -40 -47.5 -67s-17.667 -56.333 -21 -88s-6 -61.167 -8 -88.5c-2.66699 -38 -4.16699 -75.333 -4.5 -112s-0.5 -74 -0.5 -112v-62zM106.993 709
c0 66.667 3.33496 130.999 10.002 192.999s21 117 43 165s54 86.333 96 115s98.333 43 169 43c51.333 0 94.666 -7.83301 129.999 -23.5s64.833 -37.5 88.5 -65.5s42 -60.833 55 -98.5s22.833 -78.667 29.5 -123s10.667 -90.666 12 -138.999s2 -96.833 2 -145.5v-145
c0 -38.667 -0.833008 -78.167 -2.5 -118.5s-5.83398 -79.333 -12.501 -117s-16.5 -73.334 -29.5 -107.001s-31.333 -63 -55 -88s-53.167 -44.833 -88.5 -59.5s-78.333 -22 -129 -22c-50 0 -92.5 6.83301 -127.5 20.5s-64.167 32.334 -87.5 56.001s-41.5 51.5 -54.5 83.5
s-23 66.333 -30 103s-11.5 74.667 -13.5 114s-3.33301 78.333 -4 117c-0.666992 40 -1 80.167 -1 120.5v121.5z" />
    <glyph glyph-name="uni0210" unicode="&#x210;" horiz-adv-x="1069" 
d="M462 2245h160l106 -313h-59zM231 2245h160l106 -313h-59zM146 1721l459 0.000976562c58 0 109 -8 153 -24s79.5 -37.167 106.5 -63.5s48.833 -59 65.5 -98s28.167 -79.333 34.5 -121s9.5 -87.834 9.5 -138.501c0 -219.333 -80 -358.333 -240 -417l266 -859h-162l-251 840
h-289v-840h-152v1721zM604 962.001c43.333 0 80.001 8.66602 110.001 25.999s52.5 42 67.5 74s25.5 65.333 31.5 100s9 74.334 9 119.001c0 36.667 -1.83301 69.667 -5.5 99s-10.334 58 -20.001 86s-22.5 51.5 -38.5 70.5s-37 34.167 -63 45.5s-56.333 17 -91 17h-306v-637
h306z" />
    <glyph glyph-name="uni0211" unicode="&#x211;" horiz-adv-x="569" 
d="M236 1722h160l106 -313h-59zM5 1722h160l106 -313h-59zM120 1198h149.999v-169c18.667 62 52.334 108.5 101.001 139.5s99 47.167 151 48.5h3v-151l-26 4c-152.667 0 -229 -58.667 -229 -176v-894h-150v1198z" />
    <glyph glyph-name="uni0212" unicode="&#x212;" horiz-adv-x="1069" 
d="M272 1835c2 51.333 12.1611 95.5 30.4941 132.5s41.833 64.833 70.5 83.5s57.334 32 86.001 40s58.334 12 89.001 12s60.334 -4 89.001 -12s57.334 -21.333 86.001 -40s52.167 -46.5 70.5 -83.5s28.5 -81.167 30.5 -132.5h-111
c-9.33301 62.667 -28.166 104.834 -56.499 126.501s-64.5 32.5 -108.5 32.5s-80.167 -10.833 -108.5 -32.5s-47.166 -63.834 -56.499 -126.501h-111zM145.994 1721l459 0.000976562c58 0 109 -8 153 -24s79.5 -37.167 106.5 -63.5s48.833 -59 65.5 -98
s28.167 -79.333 34.5 -121s9.5 -87.834 9.5 -138.501c0 -219.333 -80 -358.333 -240 -417l266 -859h-162l-251 840h-289v-840h-152v1721zM603.994 962.001c43.333 0 80.001 8.66602 110.001 25.999s52.5 42 67.5 74s25.5 65.333 31.5 100s9 74.334 9 119.001
c0 36.667 -1.83301 69.667 -5.5 99s-10.334 58 -20.001 86s-22.5 51.5 -38.5 70.5s-37 34.167 -63 45.5s-56.333 17 -91 17h-306v-637h306z" />
    <glyph glyph-name="uni0213" unicode="&#x213;" horiz-adv-x="569" 
d="M46 1313c2 51.333 12.1611 95.5 30.4941 132.5s41.833 64.833 70.5 83.5s57.334 32 86.001 40s58.334 12 89.001 12s60.334 -4 89.001 -12s57.334 -21.333 86.001 -40s52.167 -46.5 70.5 -83.5s28.5 -81.167 30.5 -132.5h-111
c-9.33301 62.667 -28.166 104.834 -56.499 126.501s-64.5 32.5 -108.5 32.5s-80.167 -10.833 -108.5 -32.5s-47.166 -63.834 -56.499 -126.501h-111zM119.994 1198h149.999v-169c18.667 62 52.334 108.5 101.001 139.5s99 47.167 151 48.5h3v-151l-26 4
c-152.667 0 -229 -58.667 -229 -176v-894h-150v1198z" />
    <glyph glyph-name="uni0214" unicode="&#x214;" horiz-adv-x="1138" 
d="M488 2245h160l106 -313h-59zM257 2245h160l106 -313h-59zM132 1721h152v-1333c0 -49.333 5.33301 -92.333 16 -129s27.667 -67.167 51 -91.5s53.5 -42.5 90.5 -54.5s82.167 -18 135.5 -18c100 0 171.333 24.333 214 73s64 122 64 220v1333h151v-1298
c0 -300 -143 -450 -429 -450c-88.667 0 -161.667 12.167 -219 36.5s-102.833 57 -136.5 98s-57 88.833 -70 143.5s-19.5 112 -19.5 172v1298z" />
    <glyph glyph-name="uni0215" unicode="&#x215;" horiz-adv-x="878" 
d="M358 1722h160l106 -313h-59zM127 1722h160l106 -313h-59zM130 1198h152v-944c0 -59.333 11.667 -102.5 35 -129.5s54 -40.5 92 -40.5c31.333 0 64.833 10.833 100.5 32.5s68.5 51.167 98.5 88.5v993h150v-1198h-150v113c-32 -46.667 -70.333 -81.667 -115 -105
s-91 -35 -139 -35c-59.333 0 -111.5 24.833 -156.5 74.5s-67.5 119.5 -67.5 209.5v941z" />
    <glyph glyph-name="uni0216" unicode="&#x216;" horiz-adv-x="1138" 
d="M298 1835c2 51.333 12.1611 95.5 30.4941 132.5s41.833 64.833 70.5 83.5s57.334 32 86.001 40s58.334 12 89.001 12s60.334 -4 89.001 -12s57.334 -21.333 86.001 -40s52.167 -46.5 70.5 -83.5s28.5 -81.167 30.5 -132.5h-111
c-9.33301 62.667 -28.166 104.834 -56.499 126.501s-64.5 32.5 -108.5 32.5s-80.167 -10.833 -108.5 -32.5s-47.166 -63.834 -56.499 -126.501h-111zM131.994 1721h152v-1333c0 -49.333 5.33301 -92.333 16 -129s27.667 -67.167 51 -91.5s53.5 -42.5 90.5 -54.5
s82.167 -18 135.5 -18c100 0 171.333 24.333 214 73s64 122 64 220v1333h151v-1298c0 -300 -143 -450 -429 -450c-88.667 0 -161.667 12.167 -219 36.5s-102.833 57 -136.5 98s-57 88.833 -70 143.5s-19.5 112 -19.5 172v1298z" />
    <glyph glyph-name="uni0217" unicode="&#x217;" horiz-adv-x="878" 
d="M168 1313c2 51.333 12.1611 95.5 30.4941 132.5s41.833 64.833 70.5 83.5s57.334 32 86.001 40s58.334 12 89.001 12s60.334 -4 89.001 -12s57.334 -21.333 86.001 -40s52.167 -46.5 70.5 -83.5s28.5 -81.167 30.5 -132.5h-111
c-9.33301 62.667 -28.166 104.834 -56.499 126.501s-64.5 32.5 -108.5 32.5s-80.167 -10.833 -108.5 -32.5s-47.166 -63.834 -56.499 -126.501h-111zM129.994 1198h152v-944c0 -59.333 11.667 -102.5 35 -129.5s54 -40.5 92 -40.5c31.333 0 64.833 10.833 100.5 32.5
s68.5 51.167 98.5 88.5v993h150v-1198h-150v113c-32 -46.667 -70.333 -81.667 -115 -105s-91 -35 -139 -35c-59.333 0 -111.5 24.833 -156.5 74.5s-67.5 119.5 -67.5 209.5v941z" />
    <glyph glyph-name="uni0218" unicode="&#x218;" horiz-adv-x="987" 
d="M440 -467c21.333 8 39.666 20.668 54.999 38.001s26.333 36.666 33 57.999s11.334 40.5 14.001 57.5s4 32.833 4 47.5h-128v179h185v-23c0 -36.667 -0.166992 -63.5 -0.5 -80.5s-0.833008 -41.167 -1.5 -72.5s-2.33398 -54.833 -5.00098 -70.5l-10 -58
c-4 -23 -9.33301 -40.5 -16 -52.5s-14.667 -24.5 -24 -37.5s-20.666 -22.5 -33.999 -28.5s-28.333 -10 -45 -12zM215 454.001c5.33301 -46 14.8369 -90.665 28.5039 -133.998s32.834 -81.666 57.501 -114.999s55.167 -60 91.5 -80s79.5 -30 129.5 -30
c78.667 0 139.167 21.333 181.5 64s63.5 104.334 63.5 185.001c0 32.667 -4.83301 64.667 -14.5 96s-24.334 63 -44.001 95s-43.834 65.333 -72.501 100s-62 72 -100 112l-269 283c-58.667 61.333 -103.667 119.166 -135 173.499s-47 111.166 -47 170.499
c0 56.667 9.83301 107.834 29.5 153.501s47.167 84.667 82.5 117s77.166 57.166 125.499 74.499s101.166 26 158.499 26c228 0 364.333 -124.333 409 -373l3 -16l-128 -40l-2 14c-6 42 -16.833 80.833 -32.5 116.5s-35.5 66.5 -59.5 92.5s-52 46.5 -84 61.5
s-67.333 22.5 -106 22.5c-76 0 -136.5 -19.333 -181.5 -58s-67.5 -95.667 -67.5 -171c0 -46 12 -90.667 36 -134s59 -90 105 -140l355 -387c20.667 -20.667 40 -43 58 -67s34.167 -47.167 48.5 -69.5s26 -42.666 35 -60.999s14.833 -31.833 17.5 -40.5
c5.33301 -19.333 10.833 -41.333 16.5 -66s8.5 -48.667 8.5 -72c0 -61.333 -10 -115.833 -30 -163.5s-48 -87.834 -84 -120.501s-79 -57.5 -129 -74.5s-104.667 -25.5 -164 -25.5c-63.333 0 -119.333 12 -168 36s-90.5 56.167 -125.5 96.5s-63.333 87.166 -85 140.499
s-36.834 109.666 -45.501 168.999z" />
    <glyph glyph-name="uni0219" unicode="&#x219;" horiz-adv-x="760" 
d="M311 -467c21.333 8 39.666 20.668 54.999 38.001s26.333 36.666 33 57.999s11.334 40.5 14.001 57.5s4 32.833 4 47.5h-128v179h185v-23c0 -36.667 -0.166992 -63.5 -0.5 -80.5s-0.833008 -41.167 -1.5 -72.5s-2.33398 -54.833 -5.00098 -70.5l-10 -58
c-4 -23 -9.33301 -40.5 -16 -52.5s-14.667 -24.5 -24 -37.5s-20.666 -22.5 -33.999 -28.5s-28.333 -10 -45 -12zM169 339.001c9.33301 -29.333 20.834 -57.6699 34.501 -85.0029s30.167 -54.666 49.5 -81.999s42.166 -49.333 68.499 -66s53.833 -25 82.5 -25
c52.667 0 92.167 16 118.5 48s39.5 75.333 39.5 130c0 76.667 -68.333 175 -205 295l-87 76c-66 58 -115.833 109.833 -149.5 155.5s-50.5 96.834 -50.5 153.501c0 90 27.333 159.833 82 209.5s127.667 74.5 219 74.5c43.333 0 82.666 -8.33301 117.999 -25
s65 -39.834 89 -69.501s44.167 -61.667 60.5 -96s29.5 -72.166 39.5 -113.499l-133 -41c-6 37.333 -15.5 72.666 -28.5 105.999s-33 63.5 -60 90.5s-57.833 40.5 -92.5 40.5c-44.667 0 -80.167 -15.167 -106.5 -45.5s-39.5 -69.5 -39.5 -117.5c0 -40 12.833 -78 38.5 -114
s62.834 -74.667 111.501 -116l95 -82l70.5 -62.5c16.333 -15 37 -36.333 62 -64s43.833 -52.667 56.5 -75s24.167 -49.166 34.5 -80.499s15.833 -63.333 16.5 -96c0 -89.333 -28.167 -159.833 -84.5 -211.5s-129.833 -77.5 -220.5 -77.5c-88 0 -161.5 30.833 -220.5 92.5
s-100.167 139.834 -123.5 234.501z" />
    <glyph glyph-name="uni021A" unicode="&#x21a;" horiz-adv-x="755" 
d="M304 -467c21.333 8 39.666 20.6689 54.999 38.002s26.333 36.666 33 57.999s11.334 40.5 14.001 57.5s4 32.833 4 47.5h-128v179h185v-24c0 -46.667 -0.166992 -81.334 -0.5 -104.001s-1.66602 -52.5 -3.99902 -89.5s-6 -64.833 -11 -83.5s-12 -39 -21 -61
s-20.833 -38.333 -35.5 -49s-32.334 -18 -53.001 -22c-5.33301 -1.33301 -9 -2 -11 -2zM300 1599h-335v122h825v-122h-338v-1599h-152v1599z" />
    <glyph glyph-name="uni021B" unicode="&#x21b;" horiz-adv-x="594" 
d="M224 -467c21.333 8 39.666 20.6689 54.999 38.002s26.333 36.666 33 57.999s11.334 40.5 14.001 57.5s4 32.833 4 47.5h-128v179h185v-24c0 -46.667 -0.166992 -81.334 -0.5 -104.001s-1.66602 -52.5 -3.99902 -89.5s-6 -64.833 -11 -83.5s-12 -39 -21 -61
s-20.833 -38.333 -35.5 -49s-32.334 -18 -53.001 -22c-5.33301 -1.33301 -9 -2 -11 -2zM179 1114l-163.002 -0.000976562v84h163v425h150v-425h192v-84h-192v-824c0 -28.667 0.333008 -51.167 1 -67.5s2.83398 -34 6.50098 -53s9 -33.167 16 -42.5s17 -17.166 30 -23.499
s29.167 -9.5 48.5 -9.5c32.667 0 62 2.66699 88 8v-103c-44.667 -11.333 -88 -17 -130 -17c-37.333 0 -69.333 5.83301 -96 17.5s-47.167 26.167 -61.5 43.5s-25.666 40.333 -33.999 69s-13.5 55.5 -15.5 80.5s-3 55.167 -3 90.5v831z" />
    <glyph glyph-name="dotlessj" unicode="&#x237;" horiz-adv-x="410" 
d="M-72 -204c30.667 -1.33301 49.334 -2 56.001 -2c22 0 41.167 3 57.5 9s29.166 14.833 38.499 26.5s17 23.167 23 34.5s10 25.5 12 42.5s3.33301 30.167 4 39.5s1 21.333 1 36v1216h150v-1244c0 -182.667 -87 -274 -261 -274c-26.667 0 -53.667 2.66699 -81 8v108z" />
    <glyph glyph-name="circumflex" unicode="&#x2c6;" horiz-adv-x="713" 
d="M250 1715h213l153 -307h-110l-150 299l-149 -299h-113z" />
    <glyph glyph-name="caron" unicode="&#x2c7;" horiz-adv-x="618" 
d="M74 1671h142l95 -237l95 237h142l-209 -347h-56z" />
    <glyph glyph-name="breve" unicode="&#x2d8;" horiz-adv-x="739" 
d="M203 1581c9.33301 -62.667 28.1719 -104.834 56.5049 -126.501s64.5 -32.5 108.5 -32.5s80.167 10.833 108.5 32.5s47.166 63.834 56.499 126.501h111c-2 -51.333 -12.167 -95.5 -30.5 -132.5s-41.833 -64.833 -70.5 -83.5s-57.334 -32 -86.001 -40
s-58.334 -12 -89.001 -12s-60.334 4 -89.001 12s-57.334 21.333 -86.001 40s-52.167 46.5 -70.5 83.5s-28.5 81.167 -30.5 132.5h111z" />
    <glyph glyph-name="dotaccent" unicode="&#x2d9;" horiz-adv-x="410" 
d="M113 1559h184v-179h-184v179z" />
    <glyph glyph-name="ring" unicode="&#x2da;" horiz-adv-x="637" 
d="M210 1401c22.667 -29.333 58.334 -44 107.001 -44s84.334 14.667 107.001 44s34 63.666 34 102.999s-11.333 73.666 -34 102.999s-58.334 44 -107.001 44s-84.334 -14.667 -107.001 -44s-34 -63.666 -34 -102.999s11.333 -73.666 34 -102.999zM480 1657
c37.333 -43.333 56 -94.333 56 -153s-18.667 -109.667 -56 -153s-91.666 -65 -162.999 -65s-125.666 21.667 -162.999 65s-56 94.333 -56 153s18.667 109.667 56 153s91.666 65 162.999 65s125.666 -21.667 162.999 -65z" />
    <glyph glyph-name="ogonek" unicode="&#x2db;" horiz-adv-x="475" 
d="M378 -358c-40.667 0 -73.999 0.835938 -99.999 2.50293s-51.5 5.16699 -76.5 10.5s-44.333 13 -58 23s-24.667 23.5 -33 40.5s-12.5 37.833 -12.5 62.5c0 46 18.167 90.167 54.5 132.5s69.833 71.166 100.5 86.499h69c-40.667 -36.667 -72.667 -71.834 -96 -105.501
s-35 -68.5 -35 -104.5c0 -8 0.5 -15.167 1.5 -21.5s3.16699 -12 6.5 -17l9 -13c2.66699 -3.66699 7.16699 -6.83398 13.5 -9.50098s11.666 -5 15.999 -7s11.5 -3.66699 21.5 -5s18 -2.33301 24 -3s15.5 -1.16699 28.5 -1.5s23.333 -0.5 31 -0.5h35.5v-70z" />
    <glyph glyph-name="tilde" unicode="&#x2dc;" horiz-adv-x="754" 
d="M102 1376c0.666992 12.667 1.83301 24.9971 3.5 36.9971s6.5 27.833 14.5 47.5s18.167 36.334 30.5 50.001s30.5 25.834 54.5 36.501s52 16 84 16c18.667 0 50.167 -12.667 94.5 -38s74.5 -38 90.5 -38c19.333 0 34.333 4.83301 45 14.5s17.667 27.167 21 52.5h116
l-1 -14c-0.666992 -8.66699 -2.16699 -18.167 -4.5 -28.5s-5.66602 -22.5 -9.99902 -36.5s-11 -27.167 -20 -39.5s-19.667 -24 -32 -35s-28.5 -19.833 -48.5 -26.5s-42.667 -10 -68 -10s-59.833 13 -103.5 39s-73.5 39 -89.5 39c-18.667 0 -32.834 -4.66699 -42.501 -14
s-16.167 -26.666 -19.5 -51.999h-115z" />
    <glyph glyph-name="hungarumlaut" unicode="&#x2dd;" horiz-adv-x="655" 
d="M206 1721h160l-207 -313h-59zM437 1721h160l-207 -313h-59z" />
    <glyph glyph-name="dotaccentcmb" unicode="&#x307;" horiz-adv-x="410" 
d="M113 1559h184v-179h-184v179z" />
    <glyph glyph-name="uni030F" unicode="&#x30f;" horiz-adv-x="666" 
d="M299 1721h160l106 -313h-59zM68 1721h160l106 -313h-59z" />
    <glyph glyph-name="uni0311" unicode="&#x311;" horiz-adv-x="737" 
d="M90 1313c2 51.333 12.1611 95.5 30.4941 132.5s41.833 64.833 70.5 83.5s57.334 32 86.001 40s58.334 12 89.001 12s60.334 -4 89.001 -12s57.334 -21.333 86.001 -40s52.167 -46.5 70.5 -83.5s28.5 -81.167 30.5 -132.5h-111
c-9.33301 62.667 -28.166 104.834 -56.499 126.501s-64.5 32.5 -108.5 32.5s-80.167 -10.833 -108.5 -32.5s-47.166 -63.834 -56.499 -126.501h-111z" />
    <glyph glyph-name="uni0326" unicode="&#x326;" horiz-adv-x="502" 
d="M178 -467c21.333 8 39.666 20.6689 54.999 38.002s26.333 36.666 33 57.999s11.334 40.5 14.001 57.5s4 32.833 4 47.5h-128v179h185v-24c0 -46.667 -0.166992 -81.334 -0.5 -104.001s-1.66602 -52.5 -3.99902 -89.5s-6 -64.833 -11 -83.5s-12 -39 -21 -61
s-20.833 -38.333 -35.5 -49s-32.334 -18 -53.001 -22c-5.33301 -1.33301 -9 -2 -11 -2z" />
    <glyph glyph-name="endash" unicode="&#x2013;" horiz-adv-x="793" 
d="M117 563h574v-115h-574v115z" />
    <glyph glyph-name="emdash" unicode="&#x2014;" horiz-adv-x="1194" 
d="M117 563h974v-115h-974v115z" />
    <glyph glyph-name="quoteleft" unicode="&#x2018;" horiz-adv-x="403" 
d="M111 1311c0 162 8.33301 273.168 25 333.501s53.667 94.166 111 101.499l27 -55c-23.333 -7.33301 -42.833 -20.166 -58.5 -38.499s-26.5 -39 -32.5 -62s-10 -41.833 -12 -56.5s-3 -29.334 -3 -44.001h128v-179h-185z" />
    <glyph glyph-name="quoteright" unicode="&#x2019;" horiz-adv-x="393" 
d="M122 1341c23.333 7.33301 42.833 20.165 58.5 38.498s26.5 39 32.5 62s10 41.833 12 56.5s3 29.334 3 44.001h-128v179h185c0 -162 -8.33301 -273.167 -25 -333.5s-53.667 -94.166 -111 -101.499z" />
    <glyph glyph-name="quotesinglbase" unicode="&#x201a;" horiz-adv-x="403" 
d="M123 -14h168l-24.5 -151l-25.5 -156h-68z" />
    <glyph glyph-name="quotedblleft" unicode="&#x201c;" horiz-adv-x="698" 
d="M111 1311c0 162 8.33301 273.168 25 333.501s53.667 94.166 111 101.499l27 -55c-23.333 -7.33301 -42.833 -20.166 -58.5 -38.499s-26.5 -39 -32.5 -62s-10 -41.833 -12 -56.5s-3 -29.334 -3 -44.001h128v-179h-185zM405 1311c0 162 8.33301 273.168 25 333.501
s53.667 94.166 111 101.499l27 -55c-23.333 -7.33301 -42.833 -20.166 -58.5 -38.499s-26.5 -39 -32.5 -62s-10 -41.833 -12 -56.5s-3 -29.334 -3 -44.001h128v-179h-185z" />
    <glyph glyph-name="quotedblright" unicode="&#x201d;" horiz-adv-x="686" 
d="M122 1341c23.333 7.33301 42.833 20.165 58.5 38.498s26.5 39 32.5 62s10 41.833 12 56.5s3 29.334 3 44.001h-128v179h185c0 -162 -8.33301 -273.167 -25 -333.5s-53.667 -94.166 -111 -101.499zM416 1341c23.333 7.33301 42.833 20.165 58.5 38.498s26.5 39 32.5 62
s10 41.833 12 56.5s3 29.334 3 44.001h-128v179h185c0 -162 -8.33301 -273.167 -25 -333.5s-53.667 -94.166 -111 -101.499z" />
    <glyph glyph-name="quotedblbase" unicode="&#x201e;" horiz-adv-x="725" 
d="M123 -13h168l-24.5 -151l-25.5 -156h-67zM446 -13h168l-24.5 -151l-25.5 -156h-67z" />
    <glyph glyph-name="daggerdbl" unicode="&#x2021;" horiz-adv-x="590" 
d="M244 448h-226v89h226v577h-226v83h226v262h118v-262h224v-83h-224v-577h224v-89h-224v-448h-118v448z" />
    <glyph glyph-name="bullet" unicode="&#x2022;" horiz-adv-x="565" 
d="M104 767c0 54 16.667 97.833 50 131.5s77.333 50.5 132 50.5c56.667 0 101.334 -16 134.001 -48s49 -76.667 49 -134c0 -56 -16.333 -99.833 -49 -131.5s-77.334 -47.5 -134.001 -47.5c-55.333 0 -99.5 15.833 -132.5 47.5s-49.5 75.5 -49.5 131.5z" />
    <glyph glyph-name="guilsinglleft" unicode="&#x2039;" horiz-adv-x="561" 
d="M78 576v128l388 452v-200l-276 -315l276 -317v-200z" />
    <glyph glyph-name="guilsinglright" unicode="&#x203a;" horiz-adv-x="561" 
d="M78 324l276 317l-276 315v200l388 -452v-128l-388 -452v200z" />
    <glyph glyph-name="fraction" unicode="&#x2044;" horiz-adv-x="651" 
d="M523 1721h145l-553 -1721h-144z" />
    <glyph glyph-name="foursuperior" unicode="&#x2074;" horiz-adv-x="737" 
d="M39 961l301 761h210v-754h134v-102h-134v-277h-136v277h-375v95zM414 968l-1 638l-229 -638h230z" />
    <glyph glyph-name="Euro" unicode="&#x20ac;" horiz-adv-x="1096" 
d="M163 695h-122.001v89h122v132h-122v89h122v215c0 350 145.667 525 437 525c269.333 0 404 -175 404 -525v-70h-145v104c0 55.333 -4.16699 104.333 -12.5 147s-22.166 81.167 -41.499 115.5s-46.166 60.666 -80.499 78.999s-75.833 27.5 -124.5 27.5
c-54 0 -100.167 -9.16699 -138.5 -27.5s-67.833 -44.666 -88.5 -78.999s-35.5 -72.833 -44.5 -115.5s-13.5 -91.667 -13.5 -147v-249h268v-89h-268v-132h268v-89h-268v-230c0 -55.333 4.5 -104.333 13.5 -147s23.833 -81.334 44.5 -116.001s50.167 -61.167 88.5 -79.5
s84.5 -27.5 138.5 -27.5c48.667 0 90.167 9.16699 124.5 27.5s61.166 44.833 80.499 79.5s33.166 73.334 41.499 116.001s12.5 91.667 12.5 147v118h145v-84c0 -60.667 -3.66699 -116 -11 -166s-20.5 -97.833 -39.5 -143.5s-43.5 -84 -73.5 -115s-68.667 -55.667 -116 -74
s-102 -27.5 -164 -27.5c-66.667 0 -125.5 9.16699 -176.5 27.5s-92.833 43 -125.5 74s-59.167 69.333 -79.5 115s-34.666 93.5 -42.999 143.5s-12.5 105.333 -12.5 166v196z" />
    <glyph glyph-name="trademark" unicode="&#x2122;" horiz-adv-x="1399" 
d="M220 1364h-163v77h426v-77h-164v-678h-99v678zM646 1441h163l148 -539l163 539h150v-755h-89v724l-201 -724h-47l-200 714v-714h-87v755z" />
    <glyph glyph-name="Delta" unicode="&#x2206;" horiz-adv-x="988" 
d="M690 115l-165 770l-228 -770h393zM393 1203h203l151 -602l151 -601h-808z" />
    <glyph glyph-name="product" unicode="&#x220f;" horiz-adv-x="1188" 
d="M152 1715h888v-1715h-184v1600h-520v-1600h-184v1715z" />
    <glyph glyph-name="integral" unicode="&#x222b;" horiz-adv-x="500" 
d="M-41 -272c16 -4 40.667 -6 74 -6c22 0 40.667 3.33301 56 10s26.833 14 34.5 22s13.5 20 17.5 36s6.16699 29 6.5 39s0.5 24.333 0.5 43v8v1487c0 27.333 0.833008 51.5 2.5 72.5s6.66699 45.667 15 74s19.833 51.833 34.5 70.5s36 34.667 64 48s61.667 20 101 20
c46 0 86.667 -4.33301 122 -13v-109c-16 4 -40.667 6 -74 6c-22 0 -40.667 -3.33301 -56 -10s-26.833 -14 -34.5 -22s-13.5 -20 -17.5 -36s-6.16699 -29 -6.5 -39s-0.5 -24.333 -0.5 -43v-8v-1488c0 -27.333 -0.833008 -51.333 -2.5 -72s-6.66699 -45.334 -15 -74.001
s-19.833 -52.167 -34.5 -70.5s-36 -34.166 -64 -47.499s-61.667 -20 -101 -20c-46 0 -86.667 4.33301 -122 13v109z" />
    <glyph glyph-name="commaaccent" unicode="&#xf6c3;" horiz-adv-x="502" 
d="M178 -467c21.333 8 39.666 20.668 54.999 38.001s26.333 36.666 33 57.999s11.334 40.5 14.001 57.5s4 32.833 4 47.5h-128v179h185v-23c0 -36.667 -0.166992 -63.5 -0.5 -80.5s-0.833008 -41.167 -1.5 -72.5s-2.33398 -54.833 -5.00098 -70.5l-10 -58
c-4 -23 -9.33301 -40.5 -16 -52.5s-14.667 -24.5 -24 -37.5s-20.666 -22.5 -33.999 -28.5s-28.333 -10 -45 -12z" />
    <glyph glyph-name="ff" unicode="&#xfb00;" horiz-adv-x="1074" 
d="M187 1114h-167.004v84h167v129v18c-1.33301 13.333 -1.5 27.833 -0.5 43.5l3 49c1 17 3.66699 34 8 51s9.5 33.5 15.5 49.5s14.5 30.833 25.5 44.5s23.833 25.667 38.5 36s32.834 18.5 54.501 24.5s45.834 9 72.501 9c46 0 86.667 -4.33301 122 -13v-109
c-16 4 -40.667 6 -74 6c-22 0 -40.667 -3.33301 -56 -10s-26.833 -14 -34.5 -22s-13.5 -20 -17.5 -36s-6.16699 -29 -6.5 -39s-0.5 -24.333 -0.5 -43v-8v-180h347v129v18c-1.33301 13.333 -1.5 27.833 -0.5 43.5l3 49c1 17 3.66699 34 8 51s9.5 33.5 15.5 49.5
s14.5 30.833 25.5 44.5s23.833 25.667 38.5 36s32.834 18.5 54.501 24.5s45.834 9 72.501 9c46 0 86.667 -4.33301 122 -13v-109c-16 4 -40.667 6 -74 6c-22 0 -40.667 -3.33301 -56 -10s-26.833 -14 -34.5 -22s-13.5 -20 -17.5 -36s-6.16699 -29 -6.5 -39
s-0.5 -24.333 -0.5 -43v-8v-180h192v-84h-192v-1114h-150v1114h-347v-1114h-150v1114z" />
    <glyph glyph-name="fi" unicode="&#xfb01;" horiz-adv-x="952" 
d="M187 1114h-167.002v84h167v129v18c-1.33301 13.333 -1.5 27.833 -0.5 43.5l3 49c1 17 3.66699 34 8 51s9.5 33.5 15.5 49.5s14.5 30.833 25.5 44.5s23.833 25.667 38.5 36s32.834 18.5 54.501 24.5s45.834 9 72.501 9c46 0 86.667 -4.33301 122 -13v-109
c-16 4 -40.667 6 -74 6c-22 0 -40.667 -3.33301 -56 -10s-26.833 -14 -34.5 -22s-13.5 -20 -17.5 -36s-6.16699 -29 -6.5 -39s-0.5 -24.333 -0.5 -43v-8v-180h492v-1198h-150v1114h-342v-1114h-150v1114zM678.998 1651h150v-179h-150v179z" />
    <glyph glyph-name="fl" unicode="&#xfb02;" horiz-adv-x="989" 
d="M187 1114l-167.002 0.000976562v84h167v169c0 58.667 7.33301 107.167 22 145.5s37.834 67.666 69.501 87.999s67.5 34.166 107.5 41.499s90 11 150 11c57.333 0 113 -4.66699 167 -14s89.333 -16.666 106 -21.999s29.334 -10 38.001 -14v-1603h-150v1532l-172 10
c-70 0 -118.833 -10.833 -146.5 -32.5s-41.5 -65.5 -41.5 -131.5v-180h192v-84h-192v-1114h-150v1114z" />
    <glyph glyph-name="ffi" unicode="&#xfb03;" horiz-adv-x="1449" 
d="M187 1114h-167.004v84h167v129v18c-1.33301 13.333 -1.5 27.833 -0.5 43.5l3 49c1 17 3.66699 34 8 51s9.5 33.5 15.5 49.5s14.5 30.833 25.5 44.5s23.833 25.667 38.5 36s32.834 18.5 54.501 24.5s45.834 9 72.501 9c46 0 86.667 -4.33301 122 -13v-109
c-16 4 -40.667 6 -74 6c-22 0 -40.667 -3.33301 -56 -10s-26.833 -14 -34.5 -22s-13.5 -20 -17.5 -36s-6.16699 -29 -6.5 -39s-0.5 -24.333 -0.5 -43v-8v-180h347v129v18c-1.33301 13.333 -1.5 27.833 -0.5 43.5l3 49c1 17 3.66699 34 8 51s9.5 33.5 15.5 49.5
s14.5 30.833 25.5 44.5s23.833 25.667 38.5 36s32.834 18.5 54.501 24.5s45.834 9 72.501 9c46 0 86.667 -4.33301 122 -13v-109c-16 4 -40.667 6 -74 6c-22 0 -40.667 -3.33301 -56 -10s-26.833 -14 -34.5 -22s-13.5 -20 -17.5 -36s-6.16699 -29 -6.5 -39
s-0.5 -24.333 -0.5 -43v-8v-180h492v-1198h-150v1114h-342v-1114h-150v1114h-347v-1114h-150v1114zM1176 1651h150v-179h-150v179z" />
    <glyph glyph-name="ffl" unicode="&#xfb04;" horiz-adv-x="1486" 
d="M187 1114l-167.004 0.000976562v84h167v129v18c-1.33301 13.333 -1.5 27.833 -0.5 43.5l3 49c1 17 3.66699 34 8 51s9.5 33.5 15.5 49.5s14.5 30.833 25.5 44.5s23.833 25.667 38.5 36s32.834 18.5 54.501 24.5s45.834 9 72.501 9c46 0 86.667 -4.33301 122 -13v-109
c-16 4 -40.667 6 -74 6c-22 0 -40.667 -3.33301 -56 -10s-26.833 -14 -34.5 -22s-13.5 -20 -17.5 -36s-6.16699 -29 -6.5 -39s-0.5 -24.333 -0.5 -43v-8v-180h347v169c0 58.667 7.33301 107.167 22 145.5s37.834 67.666 69.501 87.999s67.5 34.166 107.5 41.499
s90 11 150 11c57.333 0 113 -4.66699 167 -14s89.333 -16.666 106 -21.999s29.334 -10 38.001 -14v-1603h-150v1532l-172 10c-70 0 -118.833 -10.833 -146.5 -32.5s-41.5 -65.5 -41.5 -131.5v-180h249v-84h-249v-1114h-150v1114h-347v-1114h-150v1114z" />
    <glyph glyph-name="_1" horiz-adv-x="0" 
 />
    <glyph glyph-name="nonmarkingreturn" horiz-adv-x="629" 
 />
    <glyph glyph-name="NULL" horiz-adv-x="334" 
 />
    <glyph glyph-name="cdieresis" horiz-adv-x="825" 
d="M158 1564h184v-179h-184v179zM542 1564h184v-179h-184v179zM108 640c0 40.667 0.332031 83.498 0.999023 128.498s3.83398 89.167 9.50098 132.5s14.834 84.5 27.501 123.5s31.167 73.333 55.5 103s55.333 53.334 93 71.001s84.5 26.5 140.5 26.5
c62.667 0 113.167 -12.333 151.5 -37s68.5 -56.834 90.5 -96.501s37.167 -84.5 45.5 -134.5s13.833 -100.333 16.5 -151h-150c0 16 -0.666992 35.333 -2 58s-3.66602 45.667 -6.99902 69s-7.5 45.833 -12.5 67.5s-11.167 39.5 -18.5 53.5
c-14 27.333 -30.667 45.833 -50 55.5s-44 14.5 -74 14.5c-26 0 -48.167 -5.83301 -66.5 -17.5s-33.666 -27.167 -45.999 -46.5s-22.333 -41.5 -30 -66.5s-13.334 -51.333 -17.001 -79s-6.16699 -55.5 -7.5 -83.5s-2 -54.333 -2 -79c0 -15.333 0.166992 -29.833 0.5 -43.5
s0.5 -26.167 0.5 -37.5c0 -23.333 -0.833008 -52.333 -2.5 -87s-2.5 -72 -2.5 -112c0 -46 2 -92.5 6 -139.5s12.5 -89.667 25.5 -128s31.5 -69.666 55.5 -93.999s56 -36.5 96 -36.5c27.333 0 49.833 6 67.5 18s32.5 30 44.5 54c7.33301 14.667 13.666 33.167 18.999 55.5
s9.66602 45.5 12.999 69.5s5.83301 47.667 7.5 71s2.5 43.666 2.5 60.999h151v-7c0 -41.333 -3.16699 -83.166 -9.5 -125.499s-16.833 -83.166 -31.5 -122.499c-22.667 -62 -56.167 -106.667 -100.5 -134s-98.833 -41 -163.5 -41c-71.333 0 -128.5 14.167 -171.5 42.5
s-76 65.333 -99 111s-38.167 97.167 -45.5 154.5s-11 115 -11 173v186z" />
    <glyph glyph-name="foundryicon" horiz-adv-x="1362" 
d="M389 819l-459 338l572 11l178 542l188 -542h572l-461 -349l170 -542l-469 327l-459 -327z" />
    <glyph glyph-name="nonbreakingspace" horiz-adv-x="334" 
 />
    <glyph glyph-name="tt" horiz-adv-x="1082" 
d="M179 1114l-163.004 -0.00195312v84h163v425h150v-425h338v425h150v-425h192v-84h-192v-824c0 -28.667 0.333008 -51.167 1 -67.5s2.83398 -34 6.50098 -53s9 -33.167 16 -42.5s17 -17.166 30 -23.499s29.167 -9.5 48.5 -9.5c32.667 0 62 2.66699 88 8v-103
c-44.667 -11.333 -88 -17 -130 -17c-37.333 0 -69.333 5.83301 -96 17.5s-47.167 26.167 -61.5 43.5s-25.666 40.333 -33.999 69s-13.5 55.5 -15.5 80.5s-3 55.167 -3 90.5v831h-338v-824c0 -28.667 0.333008 -51.167 1 -67.5s2.83398 -34 6.50098 -53s9 -33.167 16 -42.5
s17 -17.166 30 -23.499s29.167 -9.5 48.5 -9.5c32.667 0 62 2.66699 88 8v-103c-44.667 -11.333 -88 -17 -130 -17c-37.333 0 -69.333 5.83301 -96 17.5s-47.167 26.167 -61.5 43.5s-25.666 40.333 -33.999 69s-13.5 55.5 -15.5 80.5s-3 55.167 -3 90.5v831z" />
    </font>
</defs>
</svg>
