<?xml version="1.0" standalone="no"?>
<!DOCTYPE svg PUBLIC "-//W3C//DTD SVG 20010904//EN"
 "http://www.w3.org/TR/2001/REC-SVG-20010904/DTD/svg10.dtd">
<svg version="1.0" xmlns="http://www.w3.org/2000/svg"
 width="900.000000pt" height="774.000000pt" viewBox="0 0 900.000000 774.000000"
 preserveAspectRatio="xMidYMid meet">
<metadata>
Created by potrace 1.10, written by Peter Selinger 2001-2011
</metadata>
<g transform="translate(0.000000,774.000000) scale(0.100000,-0.100000)"
fill="#000000" stroke="none">
<path d="M0 7320 l0 -420 577 -2 578 -3 19 -40 c28 -57 62 -144 121 -305 7
-19 20 -54 29 -77 9 -24 23 -61 31 -83 30 -79 48 -125 60 -155 7 -16 20 -48
28 -70 8 -22 22 -59 31 -82 20 -55 42 -113 60 -160 37 -100 49 -130 62 -156 8
-16 14 -35 14 -42 0 -7 6 -26 14 -42 8 -15 21 -46 29 -68 8 -22 21 -58 30 -80
8 -22 21 -58 30 -80 8 -22 21 -58 30 -80 37 -100 50 -132 63 -157 8 -14 14
-33 14 -41 0 -9 6 -28 14 -44 8 -15 22 -48 31 -73 9 -25 22 -54 28 -65 5 -11
14 -33 18 -50 4 -16 17 -55 29 -85 12 -30 26 -69 31 -87 5 -18 14 -35 19 -38
6 -4 10 -15 10 -25 0 -10 6 -31 14 -47 8 -15 22 -47 30 -70 22 -59 43 -115 62
-165 9 -24 22 -60 30 -80 35 -94 47 -125 60 -150 8 -14 14 -33 14 -41 0 -9 6
-28 14 -44 8 -15 22 -47 30 -70 9 -24 23 -61 31 -83 8 -22 21 -57 29 -77 37
-100 49 -130 62 -156 8 -16 14 -35 14 -42 0 -7 6 -26 14 -42 13 -26 30 -67 61
-153 7 -19 20 -54 29 -77 19 -51 40 -107 62 -165 8 -24 22 -56 30 -71 8 -16
14 -35 14 -42 0 -7 6 -26 14 -42 8 -15 22 -47 30 -70 9 -24 23 -62 32 -85 9
-24 23 -61 31 -83 9 -22 22 -58 30 -80 9 -22 22 -58 30 -80 8 -22 21 -53 28
-70 7 -16 19 -48 28 -70 8 -22 22 -59 31 -82 9 -24 23 -61 31 -83 8 -22 22
-59 31 -82 9 -24 23 -61 31 -83 8 -22 21 -53 29 -68 8 -16 14 -35 14 -42 0 -7
6 -26 14 -42 8 -15 22 -47 30 -70 9 -24 23 -62 32 -85 9 -24 22 -59 29 -78 7
-19 19 -53 28 -75 17 -48 38 -128 45 -173 2 -18 9 -35 15 -39 14 -9 951 -32
1332 -33 171 0 558 -7 860 -15 303 -8 681 -15 840 -15 160 0 542 -7 850 -14
308 -8 765 -16 1015 -18 l455 -3 3 28 c2 16 -3 50 -11 75 -14 45 -29 96 -62
217 -8 30 -22 80 -32 110 l-16 55 -56 0 c-31 0 -96 5 -146 11 -49 5 -173 14
-275 19 -102 5 -257 14 -345 20 -88 6 -263 17 -390 25 -126 8 -304 20 -395 26
-91 6 -237 15 -325 19 -88 4 -234 13 -325 19 -91 6 -235 16 -320 22 -85 6
-229 15 -320 19 -160 8 -334 19 -645 41 -82 6 -224 15 -315 19 -91 4 -237 13
-325 19 -88 6 -213 15 -279 19 l-118 7 -18 35 c-10 19 -26 55 -35 80 -9 25
-23 58 -31 73 -8 16 -14 35 -14 42 0 7 -6 26 -14 42 -8 15 -22 47 -30 71 -9
23 -22 59 -30 80 -32 85 -49 128 -58 146 -6 11 -14 31 -18 45 -5 14 -18 51
-30 81 -39 102 -49 134 -44 142 3 4 1143 8 2533 8 2011 0 2531 3 2539 13 5 6
12 37 15 67 2 30 10 96 16 145 6 50 16 126 22 170 6 44 14 125 19 180 5 55 14
124 20 154 5 29 10 72 10 95 0 22 6 88 15 146 8 58 21 168 30 245 22 196 44
380 60 520 8 66 17 143 19 170 4 47 9 92 37 305 7 47 15 123 19 170 4 47 13
126 19 175 6 50 16 126 22 170 6 44 14 125 19 180 5 55 14 124 20 154 5 29 11
81 11 115 2 77 12 122 27 118 8 -1 12 18 12 63 l0 64 -327 3 c-221 2 -331 0
-341 -8 -9 -7 -18 -42 -24 -100 -5 -49 -16 -133 -24 -186 -8 -53 -14 -116 -14
-140 0 -24 -7 -81 -15 -128 -8 -47 -15 -104 -15 -128 0 -24 -6 -87 -14 -140
-18 -122 -37 -273 -46 -377 -4 -44 -12 -119 -19 -167 -6 -49 -16 -127 -22
-175 -7 -49 -15 -126 -19 -173 -4 -47 -12 -121 -18 -165 -6 -44 -18 -143 -27
-220 -8 -77 -22 -187 -30 -245 -9 -58 -15 -121 -15 -140 0 -19 -8 -86 -17
-147 l-18 -113 -2377 0 -2378 0 -6 28 c-4 15 -12 38 -19 52 -12 24 -30 68 -61
153 -8 20 -21 56 -30 80 -9 23 -23 60 -31 82 -9 22 -21 54 -28 70 -7 17 -20
48 -28 70 -8 22 -22 59 -31 83 -9 23 -23 61 -32 85 -8 23 -22 55 -30 70 -8 16
-14 35 -14 42 0 7 -6 26 -14 42 -8 15 -22 47 -30 71 -9 23 -23 61 -32 85 -9
23 -23 60 -31 82 -9 22 -21 54 -28 70 -13 31 -37 92 -60 155 -23 63 -47 124
-60 155 -18 43 -54 136 -92 240 -8 22 -21 53 -29 68 -8 16 -14 35 -14 42 0 7
-6 26 -14 42 -13 26 -30 67 -61 153 -19 52 -46 121 -60 155 -13 31 -37 92 -60
155 -31 86 -48 127 -61 153 -8 16 -14 35 -14 42 0 7 -6 26 -14 42 -13 26 -30
67 -61 153 -19 52 -46 121 -60 155 -13 29 -33 82 -61 158 -33 88 -47 124 -59
152 -14 33 -39 98 -61 158 -8 20 -21 56 -30 80 -8 23 -22 55 -30 70 -8 16 -14
35 -14 42 0 7 -6 26 -14 42 -8 15 -22 47 -30 71 -9 23 -22 59 -30 80 -22 59
-47 124 -61 157 -7 17 -21 49 -31 73 l-17 42 -849 0 -848 0 0 -420z"/>
<path d="M3045 1366 c-5 -2 -44 -10 -85 -16 -47 -8 -110 -29 -169 -57 -79 -38
-107 -58 -181 -131 -48 -48 -93 -99 -101 -114 -89 -172 -94 -190 -93 -368 0
-168 11 -219 70 -327 95 -170 272 -304 454 -343 100 -22 302 -6 400 32 103 39
252 158 316 253 34 50 81 157 98 221 21 77 21 263 1 319 -8 22 -15 46 -15 52
0 7 -14 43 -32 80 -107 230 -324 376 -589 397 -35 3 -68 4 -74 2z"/>
<path d="M7900 1195 c-267 -59 -470 -316 -470 -594 0 -98 28 -208 71 -281 5
-8 14 -26 19 -39 6 -13 48 -61 93 -106 88 -89 176 -139 287 -164 94 -22 331
-4 363 28 6 6 17 11 25 11 27 0 131 73 184 128 136 146 176 263 164 484 -5
104 -12 130 -59 223 -77 154 -236 276 -407 311 -77 17 -194 16 -270 -1z"/>
</g>
</svg>
